<?xml version="1.0" encoding="UTF-8" standalone="no"?>
<svg
   enable-background="new 0 0 128 128"
   height="128px"
   id="Layer_1"
   version="1.1"
   viewBox="0 0 128 128"
   width="128px"
   xml:space="preserve"
   sodipodi:docname="bad@bleak.svg"
   inkscape:version="1.1.1 (3bf5ae0d25, 2021-09-20)"
   xmlns:inkscape="http://www.inkscape.org/namespaces/inkscape"
   xmlns:sodipodi="http://sodipodi.sourceforge.net/DTD/sodipodi-0.dtd"
   xmlns="http://www.w3.org/2000/svg"
   xmlns:svg="http://www.w3.org/2000/svg"><defs
     id="defs7" /><sodipodi:namedview
     id="namedview5"
     pagecolor="#ffffff"
     bordercolor="#666666"
     borderopacity="1.0"
     inkscape:pageshadow="2"
     inkscape:pageopacity="0.0"
     inkscape:pagecheckerboard="0"
     showgrid="false"
     inkscape:zoom="3.7675533"
     inkscape:cx="75.513198"
     inkscape:cy="67.815895"
     inkscape:window-width="1522"
     inkscape:window-height="871"
     inkscape:window-x="389"
     inkscape:window-y="1071"
     inkscape:window-maximized="1"
     inkscape:current-layer="Layer_1" /><path
     d="M 90.572729,64.000063 124.07523,30.496056 c 5.24041,-5.240413 5.23138,-13.750061 -0.0286,-19.008544 L 116.50826,3.9506538 C 111.25429,-1.3048178 102.74163,-1.3183706 97.501218,3.9220423 L 64.000222,37.427556 30.499226,3.9250541 C 25.25279,-1.3198764 16.746154,-1.3033119 11.489176,3.9521596 L 3.9523183,11.489018 c -5.2569774,5.258483 -5.2720361,13.763613 -0.027106,19.008544 L 37.427714,64.000063 3.9282244,97.499553 c -5.2449305,5.246437 -5.228366,13.753077 0.027106,19.008547 l 7.5368576,7.53836 c 5.258483,5.25848 13.763613,5.27354 19.008544,0.0271 l 33.49949,-33.499493 33.500996,33.499493 c 5.240412,5.24192 13.750062,5.23288 19.007042,-0.0286 l 7.53836,-7.53837 c 5.25397,-5.25396 5.26752,-13.76662 0.0286,-19.007037 z"
     fill="#232323"
     id="path2"
     style="fill:#5f0f0f;fill-opacity:1;stroke-width:1.50587" /></svg>
