<svg id="Layer_1" enable-background="new 0 0 509.035 509.035" height="512" viewBox="0 0 509.035 509.035" width="512" xmlns="http://www.w3.org/2000/svg"><path d="m509.032 38.266c-.032-12.515-13.829-20.17-24.467-13.537-68.881 42.958-136.038 96.59-194.486 137.415-.825-57.53-23.998-105.098-64.368-143.839-8.827-8.474-23.546-4.274-26.578 7.576l-44.355 173.281c-79.334-60.471-134.703-38.332-154.4 52.827-2.841 13.152 10.897 23.739 22.889 17.643 25.909-13.169 44.635-13.591 62.494-1.382 34.42 27.501 29.27 115.717 74.682 139.303 29.759 15.457 66.558 16.663 109.63 3.637 6.961 35.506 42.005 62.156 72.533 81.509 3.91 2.479 8.823 3.203 13.439 1.727 72.484-23.179 130.193-84.06 95.481-149.315-3.521-6.62-11.164-9.908-18.396-7.906-28.913 8.005-59.475 5.638-93.381-7.24l-14.497-9.551c147.667-14.258 184.149-133.177 183.78-282.148zm-286.253 24.278c27.283 34.792 38.715 75.017 34.505 121.596-19.578 12.455-51.347 31.263-74.373 34.154zm51.336 226.816c-16.24-.848-23.202 20.398-9.631 29.339 64.611 42.567 59.851 39.615 62.121 40.497 35.419 13.749 69.386 17.771 101.198 12.016 11.824 41.197-34.108 75.663-74.447 90.326-51.773-34.329-54.491-56.125-51.848-69.691 2.412-12.368-9.807-22.556-21.541-17.958-43.468 17.031-78.719 18.802-104.775 5.268-27.367-14.215-28.371-107.482-70.804-136.931-19.431-13.488-40.546-17.734-63.951-12.749 6.013-14.6 14.552-27.102 26.584-30.919 14.29-4.536 42.182.049 93.905 47.625 2.51 2.309 5.692 3.755 9.082 4.128 68.133 7.492 179.821-98.461 306.556-182.383-5.39 151.519-55.102 229.061-202.449 221.432z"/></svg>