<?xml version="1.0" ?><svg id="Bold" viewBox="0 0 24 24" xmlns="http://www.w3.org/2000/svg"><title/><path d="M23.57,13.32a1,1,0,0,0,0-1.61l-3-2.32a.5.5,0,0,1,0-.79l3-2.32a1,1,0,0,0-.09-1.64L17,.65a1,1,0,0,0-1.14.06L12.31,3.49a.5.5,0,0,1-.61,0L8.11.71A1,1,0,0,0,7,.65l-6.5,4A1,1,0,0,0,.39,6.29l3,2.32a.5.5,0,0,1,0,.79l-3,2.32a1,1,0,0,0,0,1.61l3,2.09a.1.1,0,0,1,0,.08v3a1,1,0,0,0,.53.88l7.5,4a1,1,0,0,0,.94,0l7.5-4a1,1,0,0,0,.53-.88v-3a.1.1,0,0,1,0-.08ZM16.29,2.93a.5.5,0,0,1,.57,0l3.77,2.32a.5.5,0,0,1,0,.82l-2,1.53a.5.5,0,0,1-.57,0L14.37,5.28a.5.5,0,0,1,0-.82ZM15.9,8.57a.5.5,0,0,1,0,.85l-3.64,2.24a.5.5,0,0,1-.52,0L8.1,9.43a.5.5,0,0,1,0-.85l3.64-2.24a.5.5,0,0,1,.52,0ZM3.32,6a.5.5,0,0,1,0-.82L7.14,2.9a.5.5,0,0,1,.57,0l2,1.53a.5.5,0,0,1,0,.82L5.86,7.6a.5.5,0,0,1-.57,0Zm-.07,6.8a.5.5,0,0,1,0-.81l2.07-1.61a.5.5,0,0,1,.57,0l3.9,2.4a.5.5,0,0,1,.07.8L7.72,15.47a.5.5,0,0,1-.62,0Zm15.25,4.8a.43.43,0,0,1-.23.38l-6,3.22a.5.5,0,0,1-.47,0L5.73,18a.43.43,0,1,1,.44-.73l.76.53a1,1,0,0,0,1.23-.08l3.5-3.11a.5.5,0,0,1,.66,0l3.5,3.11a1,1,0,0,0,1.23.08l.76-.53a.43.43,0,0,1,.67.35Zm-1.6-2.14a.5.5,0,0,1-.62,0l-2.11-1.88a.5.5,0,0,1,.07-.8l3.9-2.4a.5.5,0,0,1,.57,0L20.77,12a.5.5,0,0,1,0,.81Z"/></svg>