<?xml version="1.0" encoding="iso-8859-1"?>
<!-- Generator: Adobe Illustrator 19.0.0, SVG Export Plug-In . SVG Version: 6.00 Build 0)  -->
<svg version="1.1" id="Capa_1" xmlns="http://www.w3.org/2000/svg" xmlns:xlink="http://www.w3.org/1999/xlink" x="0px" y="0px"
	 viewBox="0 0 512 512" style="enable-background:new 0 0 512 512;" xml:space="preserve">
<g>
	<g>
		<g>
			<path d="M511.986,136.467c-0.024-0.985-0.22-1.958-0.581-2.874c-0.095-0.257-0.199-0.493-0.318-0.738
				c-0.36-0.756-0.831-1.454-1.396-2.071c-0.099-0.108-0.167-0.235-0.272-0.337c-0.589-0.585-1.262-1.08-1.995-1.47l-179.2-93.867
				c-2.458-1.29-5.39-1.302-7.858-0.033L4.633,197.209c-0.749,0.393-1.434,0.895-2.034,1.491c-0.119,0.116-0.198,0.257-0.31,0.379
				c-0.553,0.607-1.015,1.292-1.37,2.032c-0.118,0.242-0.226,0.474-0.321,0.729c-0.372,0.932-0.575,1.924-0.598,2.928l0.003,0.02
				L0,204.801v170.667c0,3.174,1.762,6.087,4.575,7.558l179.2,93.867c0.361,0.166,0.732,0.307,1.113,0.42
				c0.23,0.082,0.449,0.196,0.684,0.258c0.702,0.19,1.425,0.29,2.152,0.296l0.004-0.001l0.004,0.001l0.01-0.003
				c1.235-0.025,2.45-0.318,3.56-0.859c0.105-0.048,0.226-0.027,0.33-0.08l315.733-162.133c2.845-1.462,4.634-4.393,4.633-7.592
				V136.534L511.986,136.467z M179.2,455.232L17.067,370.305V218.902L179.2,303.829V455.232z M187.771,289.055L27.067,204.876
				L324.229,52.28l160.704,84.179L187.771,289.055z M494.933,301.988L196.267,455.359V303.88l298.667-153.37V301.988z"/>
			<path d="M170.667,187.734c-29.188,0-51.2,12.842-51.2,29.867s22.013,29.867,51.2,29.867s51.2-12.842,51.2-29.867
				S199.854,187.734,170.667,187.734z M170.667,230.401c-21.175,0-34.133-8.287-34.133-12.8s12.958-12.8,34.133-12.8
				s34.133,8.287,34.133,12.8S191.842,230.401,170.667,230.401z"/>
			<path d="M260.267,140.801c-29.188,0-51.2,12.842-51.2,29.867s22.013,29.867,51.2,29.867s51.2-12.842,51.2-29.867
				S289.454,140.801,260.267,140.801z M260.267,183.467c-21.175,0-34.133-8.287-34.133-12.8c0-4.512,12.958-12.8,34.133-12.8
				c21.175,0,34.133,8.288,34.133,12.8C294.4,175.18,281.442,183.467,260.267,183.467z"/>
			<path d="M349.867,93.867c-29.188,0-51.2,12.842-51.2,29.867s22.013,29.867,51.2,29.867s51.2-12.842,51.2-29.867
				S379.054,93.867,349.867,93.867z M349.867,136.534c-21.175,0-34.133-8.287-34.133-12.8s12.958-12.8,34.133-12.8
				S384,119.221,384,123.734S371.042,136.534,349.867,136.534z"/>
		</g>
	</g>
</g>
<g>
</g>
<g>
</g>
<g>
</g>
<g>
</g>
<g>
</g>
<g>
</g>
<g>
</g>
<g>
</g>
<g>
</g>
<g>
</g>
<g>
</g>
<g>
</g>
<g>
</g>
<g>
</g>
<g>
</g>
</svg>
