<?xml version="1.0" encoding="UTF-8" standalone="no"?>
<svg
   enable-background="new 0 0 512 512"
   id="Layer_1"
   version="1.1"
   viewBox="0 0 512 512"
   xml:space="preserve"
   sodipodi:docname="calendar@b.svg"
   inkscape:version="1.1.1 (3bf5ae0d25, 2021-09-20)"
   xmlns:inkscape="http://www.inkscape.org/namespaces/inkscape"
   xmlns:sodipodi="http://sodipodi.sourceforge.net/DTD/sodipodi-0.dtd"
   xmlns="http://www.w3.org/2000/svg"
   xmlns:svg="http://www.w3.org/2000/svg"><defs
     id="defs23" /><sodipodi:namedview
     id="namedview21"
     pagecolor="#ffffff"
     bordercolor="#666666"
     borderopacity="1.0"
     inkscape:pageshadow="2"
     inkscape:pageopacity="0.0"
     inkscape:pagecheckerboard="0"
     showgrid="false"
     inkscape:zoom="1.3320312"
     inkscape:cx="255.62463"
     inkscape:cy="196.31672"
     inkscape:window-width="1522"
     inkscape:window-height="871"
     inkscape:window-x="389"
     inkscape:window-y="1071"
     inkscape:window-maximized="1"
     inkscape:current-layer="Layer_1" /><g
     id="g18"
     style="fill:#000000"
     transform="matrix(1.1470566,0,0,1,-38.047771,0)"><rect
       fill="#303A3F"
       height="65"
       width="65"
       x="223.5"
       y="244.60001"
       id="rect2"
       style="fill:#000000" /><rect
       fill="#303A3F"
       height="65"
       width="65"
       x="325.39999"
       y="244.60001"
       id="rect4"
       style="fill:#000000" /><rect
       fill="#303A3F"
       height="65"
       width="65"
       x="121.7"
       y="343.39999"
       id="rect6"
       style="fill:#000000" /><rect
       fill="#303A3F"
       height="65"
       width="65"
       x="223.5"
       y="343.39999"
       id="rect8"
       style="fill:#000000" /><rect
       fill="#303A3F"
       height="65"
       width="65"
       x="325.39999"
       y="343.39999"
       id="rect10"
       style="fill:#000000" /><path
       d="m 155.8,123.8 v 0 c -16,0 -29.1,-13.1 -29.1,-29.1 V 29.2 c 0,-16 13.1,-29.1 29.1,-29.1 v 0 c 16,0 29.1,13.1 29.1,29.1 v 65.6 c 0,15.9 -13.1,29 -29.1,29 z"
       fill="#303A3F"
       id="path12"
       style="fill:#000000" /><path
       d="m 430.7,61.9 h -33 v 39.7 c 0,24.5 -19.7,44.5 -43.8,44.5 h -11.6 c -24.1,0 -43.8,-20 -43.8,-44.5 V 61.9 h -90.4 v 39.7 c 0,24.5 -19.7,44.5 -43.8,44.5 h -11.6 c -24.1,0 -43.8,-20 -43.8,-44.5 V 61.9 H 83.6 c -27.1,0 -49.3,22.5 -49.3,50 v 350 c 0,27.5 22.2,50 49.3,50 h 347.2 c 27.1,0 49.3,-22.5 49.3,-50 v -350 c -0.1,-27.5 -22.3,-50 -49.4,-50 z m -8.4,352.8 c 0,17.1 -13.8,31.1 -30.6,31.1 h -269 c -16.8,0 -30.6,-14 -30.6,-31.1 V 238.3 c 0,-17.1 13.8,-32.3 30.6,-32.3 h 269 c 16.8,0 30.6,15.2 30.6,32.3 z"
       fill="#303A3F"
       id="path14"
       style="fill:#000000" /><path
       d="m 348.3,123.8 v 0 c -16,0 -29.1,-13.1 -29.1,-29.1 V 29.2 c 0,-16 13.1,-29.1 29.1,-29.1 v 0 c 16,0 29.1,13.1 29.1,29.1 v 65.6 c 0,15.9 -13.1,29 -29.1,29 z"
       fill="#303A3F"
       id="path16"
       style="fill:#000000" /></g></svg>
