<?xml version="1.0" encoding="UTF-8" standalone="no"?>
<svg
   enable-background="new 0 0 128 128"
   height="128px"
   id="Layer_1"
   version="1.1"
   viewBox="0 0 128 128"
   width="128px"
   xml:space="preserve"
   sodipodi:docname="cog2_b.svg"
   inkscape:version="1.1.1 (3bf5ae0d25, 2021-09-20)"
   xmlns:inkscape="http://www.inkscape.org/namespaces/inkscape"
   xmlns:sodipodi="http://sodipodi.sourceforge.net/DTD/sodipodi-0.dtd"
   xmlns="http://www.w3.org/2000/svg"
   xmlns:svg="http://www.w3.org/2000/svg"><defs
     id="defs7" /><sodipodi:namedview
     id="namedview5"
     pagecolor="#ffffff"
     bordercolor="#666666"
     borderopacity="1.0"
     inkscape:pageshadow="2"
     inkscape:pageopacity="0.0"
     inkscape:pagecheckerboard="0"
     showgrid="false"
     inkscape:zoom="3.7675533"
     inkscape:cx="42.600592"
     inkscape:cy="69.40844"
     inkscape:window-width="1522"
     inkscape:window-height="871"
     inkscape:window-x="389"
     inkscape:window-y="1071"
     inkscape:window-maximized="1"
     inkscape:current-layer="Layer_1" /><path
     d="m 122.2082,74.203501 -4.76163,-5.114338 c 0.005,-0.04487 0.004,-0.0887 -10e-4,-0.155485 0.10226,-1.140578 0.17009,-2.289504 0.21497,-3.439474 0.0104,-0.331842 -0.003,-0.686642 0.003,-1.018484 0.009,-0.881783 -0.003,-1.734346 -0.0428,-2.585866 -0.0167,-0.37254 -0.0365,-0.718992 -0.0605,-1.089445 -0.0198,-0.568724 -0.0491,-1.130143 -0.0918,-1.723911 l 4.77519,-5.078858 c 2.27802,-2.426206 6.41353,-5.647581 5.14773,-8.714514 l -5.22808,-12.686188 c -1.26581,-3.070064 -6.46363,-2.426206 -9.78727,-2.542038 l -6.97182,-0.25149 c -0.52698,-0.630292 -1.09466,-1.229278 -1.64043,-1.837656 -0.0209,-0.02296 -0.0459,-0.05844 -0.072,-0.09079 -0.1941,-0.203488 -0.35793,-0.424716 -0.55411,-0.625074 -0.29532,-0.321407 -0.63551,-0.628205 -0.94022,-0.941264 -0.44142,-0.444543 -0.88074,-0.896391 -1.33363,-1.326326 -0.743,-0.714817 -1.526688,-1.388937 -2.2989,-2.05784 -0.03131,-0.03235 -0.0814,-0.05948 -0.108527,-0.0814 -0.04174,-0.0407 -0.07931,-0.08661 -0.121049,-0.128354 L 98.109971,15.730371 C 98.007705,12.423426 98.657824,7.2162143 95.608631,5.9472824 L 82.918269,0.66597981 C 79.864902,-0.60503908 76.621612,3.5325553 74.202711,5.7897095 l -5.110164,4.7710165 c -1.145795,-0.114788 -2.283242,-0.174269 -3.421733,-0.218097 -0.318276,-0.01252 -0.63864,-0.0063 -0.97883,-0.0042 -0.733602,-0.0063 -1.473464,-0.02818 -2.227936,0.001 -0.952742,0.03026 -1.905485,0.08974 -2.855096,0.172182 -0.122093,0.0063 -0.244186,0.0063 -0.340191,0.01461 -0.06783,0.01357 -0.118962,0.0031 -0.187835,0.0167 L 53.997894,5.7573601 C 51.575862,3.4918576 48.350312,-0.65617202 45.283379,0.60754216 L 32.597191,5.8356248 C 29.527128,7.1003825 30.176203,12.310725 30.05411,15.624975 l -0.247317,6.982255 c -0.07618,0.05739 -0.152355,0.136703 -0.223315,0.206619 -0.83378,0.694991 -1.651907,1.412939 -2.447076,2.160106 -0.293232,0.288014 -0.576029,0.578116 -0.862999,0.86926 -0.56455,0.54994 -1.131186,1.11762 -1.672778,1.700953 -0.277579,0.302624 -0.533244,0.609422 -0.803518,0.918306 -0.367322,0.398628 -0.726296,0.792039 -1.077966,1.212581 l -6.988516,0.213924 C 12.42368,29.992288 7.2164676,29.34217 5.9475357,32.392406 L 0.66414606,45.081725 c -1.26997537,3.05441 2.86135784,6.286221 5.11851204,8.705122 l 4.7720599,5.111208 c -0.07722,0.790995 -0.111657,1.577816 -0.155486,2.378203 0.001,0.07409 -0.01252,0.152356 -0.01043,0.226446 -0.0647,1.356589 -0.09705,2.71109 -0.05009,4.061417 0.02191,0.592725 0.06574,1.175014 0.103309,1.766695 0.03444,0.477937 0.04487,0.964222 0.08974,1.441114 -0.0031,0.05218 0.001,0.100179 0.0052,0.135659 l -4.7814517,5.096598 c -2.266546,2.417858 -6.4177062,5.634016 -5.15399201,8.699905 L 5.8296169,95.39028 c 1.2658013,3.072151 6.4792741,2.432467 9.7935241,2.553517 l 6.978082,0.236881 c 0.04696,0.06887 0.103309,0.109571 0.153398,0.180531 0.707513,0.849432 1.450506,1.679041 2.224805,2.513861 0.272361,0.29323 0.560375,0.54472 0.836911,0.83274 0.568723,0.57707 1.141621,1.14788 1.734346,1.70408 0.291144,0.25254 0.598986,0.51655 0.893261,0.78891 0.412194,0.36419 0.812909,0.73569 1.226147,1.06753 l 0.21288,6.98747 c 0.104353,3.30695 -0.542635,8.52668 2.508645,9.79666 l 12.689318,5.28234 c 3.055455,1.27207 6.285178,-2.8624 8.70408,-5.11955 l 5.115381,-4.76058 c 0.05635,0.001 0.110614,-0.006 0.166965,-0.005 0.658467,0.073 1.311716,0.0981 1.964966,0.13148 0.196183,0.0167 0.386106,0.0177 0.571854,0.0376 0.306798,0.009 0.601073,0.0334 0.897435,0.0438 0.350626,0.007 0.700208,-0.003 1.050834,-0.002 0.852564,0.0198 1.706171,0.002 2.55143,-0.0365 0.368366,-0.0125 0.74508,-0.0407 1.109272,-0.0616 0.574984,-0.025 1.129099,-0.0532 1.694692,-0.0866 l 5.09138,4.76893 c 2.425162,2.27802 5.634015,6.41875 8.699905,5.15295 l 12.687231,-5.22809 c 3.071108,-1.26684 2.436642,-6.46884 2.553517,-9.79352 l 0.240012,-6.9666 c 0.597942,-0.49881 1.17397,-1.01849 1.730172,-1.52564 0.07826,-0.0908 0.16801,-0.15445 0.25358,-0.22645 0.19409,-0.18366 0.40176,-0.3381 0.56872,-0.51446 0.3381,-0.29949 0.62925,-0.63029 0.93709,-0.92874 0.44037,-0.44559 0.90787,-0.89117 1.35555,-1.35763 0.65011,-0.69812 1.30441,-1.428594 1.93679,-2.189327 0.072,-0.06783 0.12835,-0.125224 0.18992,-0.213924 0.0532,-0.04696 0.0856,-0.07827 0.11583,-0.114788 l 6.98226,-0.224359 c 3.30694,-0.103309 8.52667,0.543679 9.79665,-2.507601 l 5.28235,-12.689319 c 1.27623,-3.052323 -2.86449,-6.294569 -5.1206,-8.713471 z M 91.914537,63.99987 c 0,15.416061 -12.498353,27.914413 -27.914413,27.914413 -15.416061,0 -27.914414,-12.498352 -27.914414,-27.914413 0,-15.416061 12.498353,-27.914413 27.914414,-27.914413 15.41606,0 27.914413,12.498352 27.914413,27.914413 z"
     fill="#232323"
     id="path2"
     style="stroke-width:1.04353;fill:#000000" /><path
     style="fill:#000000;stroke-width:0.265424"
     d="m 38.884652,124.63212 c -3.576592,-1.50026 -6.830441,-2.99175 -7.230775,-3.31442 -1.184206,-0.95447 -1.470994,-2.60921 -1.672799,-9.65188 l -0.180964,-6.31526 -3.661453,-3.66145 -3.661455,-3.661454 -6.281654,-0.176919 C 9.5405662,97.663303 8.0852703,97.455162 6.9474136,96.528041 6.0309984,95.781349 0.61786865,82.908398 0.60182519,81.437611 0.58522593,79.915872 1.5773953,78.549832 6.2795621,73.620378 L 10.61697,69.073316 10.588625,63.841907 10.560279,58.610496 6.5275315,54.394638 C 1.8481483,49.502784 0.66356062,47.901464 0.66356062,46.467746 c 0,-0.656293 0.94817398,-3.263487 2.81375658,-7.736987 1.5475662,-3.710925 2.9509969,-6.915849 3.1187349,-7.122054 0.167738,-0.206203 0.8424624,-0.616225 1.4993874,-0.911157 1.0545478,-0.47345 1.9743785,-0.556549 7.8553155,-0.70967 l 6.660907,-0.173425 3.66851,-3.66851 3.668508,-3.66851 0.195918,-6.527436 C 30.34042,9.4256813 30.504532,8.3030289 31.452773,7.0010754 31.671748,6.700419 32.131742,6.3053587 32.47498,6.123164 34.201796,5.2065493 45.963198,0.53084849 46.542062,0.53084849 c 1.397997,0 3.055484,1.20858731 7.607444,5.54710721 l 4.665173,4.4464243 h 5.288379 5.288382 L 73.946269,6.1979149 C 78.366055,1.9997234 80.40282,0.52000837 81.736425,0.53834211 82.351068,0.54679189 95.057906,5.806441 96.077228,6.4743264 97.637753,7.4968218 98.06145,9.798991 98.069001,17.29671 l 0.0053,5.219906 3.690549,3.706886 3.69056,3.706885 6.86006,0.250367 c 6.25259,0.228196 6.95946,0.301705 7.98264,0.830152 0.61742,0.318883 1.2977,0.918434 1.51174,1.332336 0.72138,1.394985 5.49023,13.123531 5.63948,13.86975 0.27298,1.364909 -0.85653,2.987068 -5.44686,7.822588 l -4.41949,4.655544 -0.13271,5.225946 -0.13271,5.225946 1.45955,1.592546 c 0.80276,0.8759 2.79632,2.986872 4.43014,4.691052 3.05991,3.191666 4.10156,4.743742 4.14203,6.171671 0.0361,1.272595 -5.30369,13.891819 -6.31294,14.919083 -1.11748,1.137425 -2.47072,1.351753 -9.72425,1.540143 l -6.00546,0.155974 -3.62467,3.624665 -3.624657,3.62466 -0.213563,6.65727 c -0.185722,5.78943 -0.282793,6.81297 -0.744637,7.85168 -0.292091,0.65692 -0.71772,1.34843 -0.945839,1.53669 -0.884311,0.72977 -13.852754,5.89519 -14.800624,5.89519 -1.441349,0 -2.879206,-1.06045 -7.786303,-5.74258 l -4.413161,-4.21083 -5.325313,0.0188 -5.325313,0.0188 -1.779844,1.7162 c -7.878089,7.5964 -8.67897,8.22242 -10.461915,8.17773 -0.480261,-0.012 -3.799505,-1.24936 -7.376097,-2.74962 z M 67.292008,91.827234 c 3.234158,-0.395408 5.854798,-1.166943 8.884751,-2.615732 7.374401,-3.526111 12.678636,-9.891178 14.886496,-17.863761 1.013892,-3.661163 1.175572,-9.119377 0.383666,-12.952342 C 88.942948,46.275746 78.667065,37.040726 66.687842,36.14421 57.902684,35.486736 50.659652,38.014496 44.548296,43.870731 33.229374,54.717139 33.107659,72.849522 44.279514,83.911983 c 6.103866,6.044092 14.551494,8.949691 23.012494,7.915251 z"
     id="path883" /></svg>
