<?xml version="1.0" encoding="UTF-8" standalone="no"?>
<svg
   id="Layer_1"
   style="enable-background:new 0 0 512 512;"
   version="1.1"
   viewBox="0 0 512 512"
   xml:space="preserve"
   sodipodi:docname="cogs.svg"
   inkscape:version="1.1.1 (3bf5ae0d25, 2021-09-20)"
   xmlns:inkscape="http://www.inkscape.org/namespaces/inkscape"
   xmlns:sodipodi="http://sodipodi.sourceforge.net/DTD/sodipodi-0.dtd"
   xmlns="http://www.w3.org/2000/svg"
   xmlns:svg="http://www.w3.org/2000/svg"><defs
     id="defs29" /><sodipodi:namedview
     id="namedview27"
     pagecolor="#ffffff"
     bordercolor="#666666"
     borderopacity="1.0"
     inkscape:pageshadow="2"
     inkscape:pageopacity="0.0"
     inkscape:pagecheckerboard="0"
     showgrid="false"
     inkscape:zoom="1.3320312"
     inkscape:cx="255.62463"
     inkscape:cy="256.37537"
     inkscape:window-width="1522"
     inkscape:window-height="871"
     inkscape:window-x="389"
     inkscape:window-y="1071"
     inkscape:window-maximized="1"
     inkscape:current-layer="g12" /><style
     type="text/css"
     id="style2">
	.st0{fill:none;stroke:#000000;stroke-width:2;stroke-linecap:round;stroke-linejoin:round;stroke-miterlimit:10;}
	.st1{stroke:#000000;stroke-width:2;stroke-linecap:round;stroke-linejoin:round;stroke-miterlimit:10;}
	.st2{fill:#FFFFFF;}
</style><g
     id="g24"><g
       id="g12"><g
         id="g6"
         transform="matrix(1.1017536,0.46835175,-0.46835175,1.1017536,179.63892,-218.6642)"><path
           d="m 354.96,511 h -23.6 c -5.17,0 -9.41,-3.89 -9.86,-9.04 l -2.59,-29.67 c -5.22,-1.58 -10.26,-3.68 -15.08,-6.26 L 281,485.18 c -3.91,3.28 -9.78,3.03 -13.38,-0.6 l -16.67,-16.67 c -3.64,-3.66 -3.89,-9.39 -0.59,-13.35 l 19.17,-22.84 c -2.58,-4.81 -4.68,-9.86 -6.26,-15.08 l -29.68,-2.59 c -5.15,-0.45 -9.04,-4.69 -9.04,-9.86 v -23.6 c 0,-5.17 3.88,-9.4 9.03,-9.86 l 29.68,-2.6 c 1.58,-5.21 3.67,-10.26 6.26,-15.08 l -19.16,-22.83 c -3.31,-3.97 -3.06,-9.7 0.57,-13.35 l 16.7,-16.7 c 3.59,-3.6 9.47,-3.87 13.37,-0.57 l 22.82,19.15 c 4.82,-2.58 9.87,-4.68 15.08,-6.26 l 2.59,-29.67 c 0.45,-5.15 4.69,-9.04 9.86,-9.04 h 23.6 c 5.17,0 9.41,3.89 9.86,9.04 l 2.59,29.67 c 5.22,1.58 10.26,3.68 15.08,6.26 l 22.83,-19.16 c 3.9,-3.28 9.78,-3.03 13.38,0.6 l 16.67,16.67 c 3.64,3.66 3.9,9.39 0.6,13.35 l -19.17,22.85 c 2.58,4.81 4.67,9.86 6.26,15.07 l 29.68,2.6 c 5.15,0.45 9.04,4.69 9.04,9.86 v 23.6 c 0,5.17 -3.88,9.41 -9.03,9.86 l -29.68,2.59 c -1.59,5.22 -3.68,10.26 -6.26,15.08 l 19.16,22.83 c 3.31,3.98 3.06,9.71 -0.57,13.35 l -16.7,16.7 c -3.58,3.61 -9.47,3.87 -13.37,0.57 L 382.5,466.02 c -4.82,2.58 -9.87,4.68 -15.08,6.26 l -2.59,29.67 c -0.46,5.16 -4.7,9.05 -9.87,9.05 z m -18.51,-15.45 h 13.42 l 2.49,-28.49 c 0.37,-4.18 3.36,-7.67 7.44,-8.69 6.38,-1.61 12.53,-4.16 18.24,-7.58 3.6,-2.17 8.17,-1.8 11.38,0.88 l 21.93,18.41 9.49,-9.49 -18.4,-21.92 c -2.69,-3.22 -3.04,-7.79 -0.9,-11.37 3.43,-5.72 5.98,-11.87 7.6,-18.28 1.01,-4.07 4.51,-7.07 8.7,-7.42 l 28.47,-2.48 V 385.7 l -28.49,-2.49 c -4.17,-0.35 -7.67,-3.34 -8.69,-7.45 -1.61,-6.38 -4.16,-12.53 -7.58,-18.23 -2.17,-3.6 -1.81,-8.19 0.9,-11.4 l 18.39,-21.91 -9.49,-9.49 -21.92,18.4 c -3.21,2.71 -7.8,3.06 -11.39,0.89 -5.71,-3.42 -11.86,-5.97 -18.27,-7.58 -4.06,-1 -7.05,-4.5 -7.42,-8.68 l -2.49,-28.49 h -13.42 l -2.49,28.49 c -0.37,4.18 -3.36,7.67 -7.44,8.69 -6.38,1.61 -12.53,4.16 -18.24,7.58 -3.59,2.16 -8.15,1.8 -11.36,-0.87 l -21.95,-18.42 -9.49,9.49 18.41,21.93 c 2.7,3.2 3.06,7.79 0.88,11.39 -3.41,5.7 -5.97,11.84 -7.58,18.25 -1.03,4.1 -4.53,7.08 -8.71,7.43 l -28.46,2.49 v 13.42 l 28.49,2.48 c 4.15,0.35 7.65,3.33 8.68,7.42 1.61,6.41 4.16,12.56 7.58,18.26 2.15,3.61 1.79,8.17 -0.88,11.38 l -18.42,21.94 9.49,9.49 21.92,-18.4 c 3.24,-2.69 7.81,-3.05 11.39,-0.89 5.71,3.42 11.86,5.97 18.27,7.58 4.06,1 7.05,4.5 7.42,8.68 z m 71.31,-21.88 c -0.01,0.01 -0.01,0.02 -0.02,0.02 z m -129.21,-0.01 0.02,0.02 c -0.01,-0.01 -0.02,-0.02 -0.02,-0.02 z m 44.21,-0.3 c 0.02,0 0.03,0 0.04,0.01 -0.01,-0.01 -0.03,-0.01 -0.04,-0.01 z m 40.83,-0.01 c -0.01,0 -0.03,0.01 -0.04,0.01 0.01,0 0.03,-0.01 0.04,-0.01 z m -92.52,-0.01 c 0,0.01 -0.01,0.01 -0.01,0.02 z m 144.17,0 0.02,0.02 c -0.01,-0.02 -0.02,-0.02 -0.02,-0.02 z M 267.15,416.99 c 0.02,0 0.03,0 0.05,0 z m 152.05,0 h -0.04 c 0.01,0 0.02,0 0.04,0 z m 4.93,-4.23 c 0,0.02 -0.01,0.03 -0.01,0.05 0,-0.02 0.01,-0.04 0.01,-0.05 z m -0.02,-40.79 c 0,0.02 0.01,0.02 0.01,0.04 0,-0.02 0,-0.03 -0.01,-0.04 z M 267.16,367.8 c -0.02,0 -0.03,0 -0.05,0 z m 151.97,0 h 0.04 c -0.01,0 -0.02,0 -0.04,0 z M 272.04,356.06 c 0,0 0.01,0.01 0.01,0.02 z m 142.25,-0.01 -0.01,0.01 c 0,0 0.01,-0.01 0.01,-0.01 z m -142.78,-6.49 c 0,0.01 0,0.02 -0.01,0.02 0.01,0 0.01,-0.01 0.01,-0.02 z m 143.29,0 c 0,0.01 0,0.01 0.01,0.02 0,-0.02 -0.01,-0.02 -0.01,-0.02 z M 271.06,311.44 c 0.01,0.01 0.01,0.01 0.02,0.02 z m 144.2,-0.01 -0.01,0.02 c 0.01,-0.01 0.01,-0.01 0.01,-0.02 z m -92.49,0 c -0.01,0 -0.03,0.01 -0.04,0.01 0.01,0 0.03,-0.01 0.04,-0.01 z m 40.75,0 c 0.01,0.01 0.03,0.01 0.04,0.01 -0.01,-0.01 -0.03,-0.01 -0.04,-0.01 z m 44.24,-0.31 c 0.01,0.01 0.01,0.02 0.02,0.02 z m -129.18,-0.02 -0.02,0.02 c 0.01,0 0.01,-0.01 0.02,-0.02 z"
           id="path4" /></g><g
         id="g10"
         transform="matrix(1.1017536,0.46835175,-0.46835175,1.1017536,179.63892,-218.6642)"><path
           d="m 343.16,434.66 c -23.3,0 -42.26,-18.96 -42.26,-42.26 0,-23.3 18.96,-42.26 42.26,-42.26 23.3,0 42.26,18.96 42.26,42.26 0,23.3 -18.96,42.26 -42.26,42.26 z m 0,-69.07 c -14.78,0 -26.8,12.02 -26.8,26.8 0,14.78 12.02,26.8 26.8,26.8 14.78,0 26.81,-12.02 26.81,-26.8 0,-14.78 -12.03,-26.8 -26.81,-26.8 z"
           id="path8" /></g></g><g
       id="g22"
       transform="matrix(1.1897746,0,0,1.1897746,-58.586671,-0.33717087)"><g
         id="g16"><path
           d="m 215.74,301.65 h -30.35 c -5.49,0 -9.99,-4.13 -10.48,-9.59 l -3.46,-39.69 c -7.54,-2.17 -14.82,-5.19 -21.73,-9.02 l -30.52,25.61 c -4.22,3.54 -10.32,3.26 -14.21,-0.63 L 83.54,246.88 c -3.89,-3.89 -4.15,-10 -0.62,-14.21 l 25.61,-30.51 c -3.83,-6.91 -6.85,-14.19 -9.02,-21.73 l -39.67,-3.46 c -5.48,-0.49 -9.61,-5 -9.61,-10.48 v -30.35 c 0,-5.49 4.12,-9.99 9.59,-10.48 l 39.69,-3.46 c 2.17,-7.55 5.2,-14.83 9.02,-21.73 L 82.92,69.96 c -3.53,-4.2 -3.27,-10.32 0.62,-14.2 L 105,34.3 c 3.86,-3.88 9.96,-4.17 14.19,-0.63 l 30.53,25.62 c 6.91,-3.83 14.19,-6.84 21.73,-9.02 L 174.91,10.6 C 175.39,5.13 179.9,1 185.39,1 h 30.35 c 5.5,0 10.01,4.14 10.48,9.61 l 3.46,39.66 c 7.53,2.17 14.82,5.19 21.73,9.02 l 30.51,-25.61 c 4.23,-3.52 10.33,-3.26 14.21,0.62 l 21.46,21.46 c 3.89,3.9 4.15,10.01 0.62,14.21 l -25.61,30.51 c 3.82,6.89 6.85,14.17 9.02,21.73 l 39.67,3.46 c 5.48,0.48 9.61,4.99 9.61,10.48 v 30.35 c 0,5.49 -4.12,10 -9.59,10.48 l -39.68,3.46 c -2.17,7.54 -5.2,14.82 -9.02,21.72 l 25.61,30.52 c 3.53,4.2 3.27,10.3 -0.61,14.19 l -21.47,21.47 c -3.87,3.89 -9.98,4.17 -14.19,0.63 l -30.52,-25.62 c -6.91,3.83 -14.19,6.84 -21.73,9.02 l -3.46,39.67 c -0.49,5.48 -5,9.61 -10.5,9.61 z M 189.91,286.2 h 21.31 l 3.38,-38.67 c 0.38,-4.41 3.55,-8.12 7.87,-9.21 8.46,-2.12 16.57,-5.49 24.11,-10.01 3.81,-2.29 8.68,-1.92 12.09,0.95 l 29.74,24.96 15.07,-15.06 -24.97,-29.75 c -2.86,-3.37 -3.25,-8.23 -0.95,-12.07 4.52,-7.55 7.89,-15.65 10.01,-24.09 1.08,-4.32 4.77,-7.49 9.19,-7.89 l 38.69,-3.37 v -21.31 l -38.66,-3.37 c -4.44,-0.4 -8.14,-3.57 -9.22,-7.89 -2.12,-8.45 -5.49,-16.56 -10,-24.07 -2.29,-3.84 -1.91,-8.7 0.95,-12.1 L 303.48,63.51 288.4,48.43 258.66,73.39 c -3.41,2.87 -8.28,3.24 -12.1,0.94 -7.52,-4.51 -15.63,-7.87 -24.08,-9.99 -4.34,-1.09 -7.5,-4.8 -7.88,-9.21 l -3.38,-38.67 h -21.31 l -3.38,38.67 c -0.38,4.41 -3.55,8.12 -7.87,9.21 -8.46,2.13 -16.57,5.49 -24.11,10.01 -3.83,2.29 -8.7,1.92 -12.1,-0.96 L 112.72,48.43 97.66,63.5 122.63,93.24 c 2.86,3.42 3.23,8.28 0.94,12.1 -4.51,7.52 -7.87,15.62 -9.99,24.07 -1.08,4.31 -4.77,7.49 -9.19,7.89 l -38.69,3.37 v 21.31 l 38.67,3.37 c 4.44,0.4 8.14,3.58 9.22,7.89 2.12,8.44 5.48,16.54 10,24.08 2.3,3.82 1.92,8.69 -0.95,12.1 l -24.96,29.73 15.07,15.07 29.74,-24.96 c 3.4,-2.86 8.27,-3.25 12.1,-0.94 7.52,4.51 15.63,7.86 24.08,9.99 4.34,1.09 7.5,4.8 7.88,9.21 z m -74,-28.79 0.01,0.02 c 0,-0.01 0,-0.01 -0.01,-0.02 z m 30.71,-15.83 c 0,0 0.01,0 0.02,0.01 -0.01,0 -0.02,-0.01 -0.02,-0.01 z m 107.9,-0.02 c -0.01,0.01 -0.02,0.01 -0.02,0.02 0,-0.01 0.01,-0.01 0.02,-0.02 z m -102.09,-0.47 -0.02,0.02 c 0,-0.01 0.01,-0.02 0.02,-0.02 z m -42.12,-35.82 c 0,0 0.01,0.01 0.01,0.02 0,-0.02 0,-0.02 -0.01,-0.02 z m 0.48,-5.79 c 0,0 -0.01,0.01 -0.01,0.02 z m 179.52,-0.03 0.03,0.04 c -0.01,-0.02 -0.02,-0.03 -0.03,-0.04 z M 98.59,177 c 0,0.01 0,0.02 0,0.02 0,-0.01 0,-0.01 0,-0.02 z m 203.96,-0.01 c 0,0.01 0,0.02 0,0.02 0,0 0,-0.01 0,-0.02 z M 98.59,125.65 c 0,0 0,0.01 0,0.02 -0.01,-0.01 0,-0.02 0,-0.02 z m 203.95,-0.01 c 0,0 0,0.01 0,0.02 0,-0.01 0,-0.02 0,-0.02 z M 110.32,97.39 c 0,0 -0.01,0 0,0 -0.01,0 0,0 0,0 z m 42.07,-35.85 0.02,0.02 c -0.01,-0.01 -0.01,-0.02 -0.02,-0.02 z m -5.77,-0.46 c 0,0.01 -0.01,0.01 -0.02,0.02 0.01,-0.02 0.02,-0.02 0.02,-0.02 z m 107.87,-0.01 c 0.01,0 0.02,0.01 0.02,0.01 -0.01,0 -0.02,0 -0.02,-0.01 z m -138.55,-15.85 -0.02,0.01 c 0.01,0 0.01,-0.01 0.02,-0.01 z"
           id="path14" /></g><g
         id="g20"><path
           d="m 200.56,203.46 c -28.75,0 -52.14,-23.39 -52.14,-52.14 0,-28.75 23.39,-52.14 52.14,-52.14 28.75,0 52.14,23.39 52.14,52.14 0,28.75 -23.39,52.14 -52.14,52.14 z m 0,-88.82 c -20.23,0 -36.69,16.46 -36.69,36.69 0,20.22 16.46,36.68 36.69,36.68 20.23,0 36.69,-16.46 36.69,-36.68 0,-20.23 -16.46,-36.69 -36.69,-36.69 z"
           id="path18" /></g></g></g></svg>
