<?xml version="1.0" encoding="UTF-8" standalone="no"?>
<!-- Generator: Adobe Illustrator 15.0.2, SVG Export Plug-In . SVG Version: 6.00 Build 0)  -->

<svg
   version="1.1"
   id="Ebene_1"
   x="0px"
   y="0px"
   width="105.89999"
   height="109.25999"
   viewBox="0 0 105.9 109.25999"
   enable-background="new 0 0 595.22 842"
   xml:space="preserve"
   inkscape:version="1.1.1 (3bf5ae0d25, 2021-09-20)"
   sodipodi:docname="dagger_sign@b.svg"
   xmlns:inkscape="http://www.inkscape.org/namespaces/inkscape"
   xmlns:sodipodi="http://sodipodi.sourceforge.net/DTD/sodipodi-0.dtd"
   xmlns="http://www.w3.org/2000/svg"
   xmlns:svg="http://www.w3.org/2000/svg"
   xmlns:rdf="http://www.w3.org/1999/02/22-rdf-syntax-ns#"
   xmlns:cc="http://creativecommons.org/ns#"
   xmlns:dc="http://purl.org/dc/elements/1.1/"><metadata
   id="metadata9"><rdf:RDF><cc:Work
       rdf:about=""><dc:format>image/svg+xml</dc:format><dc:type
         rdf:resource="http://purl.org/dc/dcmitype/StillImage" /></cc:Work></rdf:RDF></metadata><defs
   id="defs7" /><sodipodi:namedview
   pagecolor="#ffffff"
   bordercolor="#666666"
   borderopacity="1"
   objecttolerance="10"
   gridtolerance="10"
   guidetolerance="10"
   inkscape:pageopacity="0"
   inkscape:pageshadow="2"
   inkscape:window-width="1522"
   inkscape:window-height="871"
   id="namedview5"
   showgrid="false"
   fit-margin-top="0"
   fit-margin-left="0"
   fit-margin-right="0"
   fit-margin-bottom="0"
   inkscape:zoom="6.3421265"
   inkscape:cx="53.530941"
   inkscape:cy="41.547579"
   inkscape:window-x="389"
   inkscape:window-y="1071"
   inkscape:window-maximized="1"
   inkscape:current-layer="Ebene_1"
   inkscape:pagecheckerboard="0" />
<path
   d="m 55.996008,108.75764 h -4.15294 C 51.506344,91.496248 50.271686,77.638513 48.251336,67.062873 46.679954,59.222312 44.210638,51.746429 40.731148,44.696002 c 3.703973,-1.762607 6.397772,-3.585993 7.969155,-5.530938 1.571383,-1.944946 2.693799,-4.801584 3.142765,-8.509136 -4.826389,0.243118 -9.652779,3.434506 -14.479169,4.528538 -7.63243,1.701827 -13.244511,2.61352 -16.724002,2.61352 -3.255007,0 -5.948806,-0.547016 -7.969155,-1.641047 -2.020349,-1.033253 -3.0305238,-4.893215 -3.0305238,-6.534263 0,-1.641048 1.0101748,-5.719466 3.1427658,-6.874277 2.132591,-1.094032 4.826389,-1.641048 8.081397,-1.641048 6.081041,0.01215 12.031315,1.88545 16.499518,2.917418 4.377423,1.033252 9.203813,4.321537 14.479169,4.503875 -0.112241,-1.641047 -0.336724,-2.856638 -0.785691,-3.707552 -0.561208,-1.215591 -1.683624,-2.917418 -3.367249,-5.105481 -3.928456,-5.044702 -5.836564,-8.873813 -5.836564,-11.4873334 0,-2.3096225 1.122416,-4.1937883 3.591732,-5.5917177 2.357074,-1.458709 5.275356,-2.12728389 8.642605,-2.12728389 3.030524,0 5.836564,0.72935449 8.30588,2.18806349 2.469316,1.5194885 3.703974,3.3428747 3.703974,5.5309381 0,1.1548113 -0.336725,2.3704024 -0.897933,3.5252134 -0.785692,1.580268 -2.357075,4.01145 -4.938632,7.475883 -2.581557,3.403655 -4.040698,6.503411 -4.265182,9.29927 5.163115,-0.243118 9.989505,-3.531402 14.366928,-4.503875 5.688035,-1.133694 12.011562,-2.841704 17.509693,-2.856638 3.479491,0 6.397773,0.547015 8.530364,1.641047 2.132591,1.094032 3.255007,5.17245 3.255007,6.813498 0,1.580268 -1.122416,5.440231 -3.255007,6.534263 -2.132591,1.154811 -4.82639,1.701827 -8.081397,1.701827 -4.040699,0 -9.989505,-0.911693 -18.070901,-2.795859 -4.669285,-1.262277 -10.139773,-4.233942 -14.254687,-4.406979 0.336725,3.707552 1.3469,6.56419 2.918283,8.569915 1.683624,2.005725 4.265181,3.829111 7.969155,5.470159 -3.47949,7.232765 -5.948806,14.404751 -7.295706,21.515957 -1.459141,7.171986 -2.581557,21.333619 -3.591732,42.545681 z"
   id="path3"
   inkscape:connector-curvature="0"
   sodipodi:nodetypes="ccccsccscsccccccscscscccccsscscccccc"
   style="stroke-width:1.3766" />
</svg>
