<?xml version="1.0" encoding="iso-8859-1"?>
<!-- Generator: Adobe Illustrator 19.0.0, SVG Export Plug-In . SVG Version: 6.00 Build 0)  -->
<svg version="1.1" id="Capa_1" xmlns="http://www.w3.org/2000/svg" xmlns:xlink="http://www.w3.org/1999/xlink" x="0px" y="0px"
	 viewBox="0 0 512 512" style="enable-background:new 0 0 512 512;" xml:space="preserve">
<g>
	<g>
		<circle cx="46" cy="315" r="15"/>
	</g>
</g>
<g>
	<g>
		<circle cx="46" cy="255" r="15"/>
	</g>
</g>
<g>
	<g>
		<circle cx="106" cy="255" r="15"/>
	</g>
</g>
<g>
	<g>
		<circle cx="406" cy="195" r="15"/>
	</g>
</g>
<g>
	<g>
		<circle cx="106" cy="195" r="15"/>
	</g>
</g>
<g>
	<g>
		<circle cx="406" cy="255" r="15"/>
	</g>
</g>
<g>
	<g>
		<circle cx="466" cy="255" r="15"/>
	</g>
</g>
<g>
	<g>
		<circle cx="466" cy="315" r="15"/>
	</g>
</g>
<g>
	<g>
		<circle cx="466" cy="375" r="15"/>
	</g>
</g>
<g>
	<g>
		<circle cx="46" cy="375" r="15"/>
	</g>
</g>
<g>
	<g>
		<path d="M497,452H15c-8.284,0-15,6.714-15,15c0,24.853,20.147,45,45,45h422c24.853,0,45-20.147,45-45
			C512,458.714,505.284,452,497,452z"/>
	</g>
</g>
<g>
	<g>
		<path d="M346,180H166c-8.284,0-15,6.714-15,15c0,24.853,20.147,45,45,45h15v30h90v-30h15c24.853,0,45-20.147,45-45
			C361,186.714,354.284,180,346,180z"/>
	</g>
</g>
<g>
	<g>
		<path d="M406,300H106c-8.284,0-15,6.714-15,15c0,24.853,20.147,45,45,45h45v62h150v-62h45c24.853,0,45-20.147,45-45
			C421,306.714,414.284,300,406,300z"/>
	</g>
</g>
<g>
	<g>
		<path d="M361,60c-33.091,0-60,26.909-60,60v30h30v-30c0-16.538,13.462-30,30-30c16.538,0,30,13.462,30,30v15
			c0,8.291,6.709,15,15,15c8.291,0,15-6.709,15-15v-15C421,86.909,394.091,60,361,60z"/>
	</g>
</g>
<g>
	<g>
		<path d="M361,0c-45.117,0-84.507,25.034-105,61.948C235.507,25.034,196.117,0,151,0C84.833,0,31,53.833,31,120v75
			c0,8.291,6.709,15,15,15s15-6.709,15-15v-75c0-49.629,40.371-90,90-90c49.629,0,90,40.371,90,90v30h30v-30
			c0-49.629,40.371-90,90-90c49.629,0,90,40.371,90,90v75c0,8.291,6.709,15,15,15c8.291,0,15-6.709,15-15v-75
			C481,53.833,427.167,0,361,0z"/>
	</g>
</g>
<g>
	<g>
		<path d="M151,60c-33.091,0-60,26.909-60,60v15c0,8.291,6.709,15,15,15s15-6.709,15-15v-15c0-16.538,13.462-30,30-30
			c16.538,0,30,13.462,30,30v30h30v-30C211,86.909,184.091,60,151,60z"/>
	</g>
</g>
<g>
</g>
<g>
</g>
<g>
</g>
<g>
</g>
<g>
</g>
<g>
</g>
<g>
</g>
<g>
</g>
<g>
</g>
<g>
</g>
<g>
</g>
<g>
</g>
<g>
</g>
<g>
</g>
<g>
</g>
</svg>
