<svg xmlns:dc="http://purl.org/dc/elements/1.1/" xmlns:cc="http://creativecommons.org/ns#" xmlns:rdf="http://www.w3.org/1999/02/22-rdf-syntax-ns#" xmlns:svg="http://www.w3.org/2000/svg" xmlns="http://www.w3.org/2000/svg" xmlns:sodipodi="http://sodipodi.sourceforge.net/DTD/sodipodi-0.dtd" xmlns:inkscape="http://www.inkscape.org/namespaces/inkscape" viewBox="0 0 100 125" version="1.1" x="0px" y="0px"><g transform="translate(0,-952.36216)"><path style="color:#000000;font-style:normal;font-variant:normal;font-weight:normal;font-stretch:normal;font-size:medium;line-height:normal;font-family:sans-serif;font-variant-ligatures:normal;font-variant-position:normal;font-variant-caps:normal;font-variant-numeric:normal;font-variant-alternates:normal;font-feature-settings:normal;text-indent:0;text-align:start;text-decoration:none;text-decoration-line:none;text-decoration-style:solid;text-decoration-color:#000000;letter-spacing:normal;word-spacing:normal;text-transform:none;writing-mode:lr-tb;direction:ltr;text-orientation:mixed;dominant-baseline:auto;baseline-shift:baseline;text-anchor:start;white-space:normal;shape-padding:0;clip-rule:nonzero;display:inline;overflow:visible;visibility:visible;opacity:1;isolation:auto;mix-blend-mode:normal;color-interpolation:sRGB;color-interpolation-filters:linearRGB;solid-color:#000000;solid-opacity:1;vector-effect:none;fill:#000000;fill-opacity:1;fill-rule:evenodd;stroke:none;stroke-width:7.66843367;stroke-linecap:round;stroke-linejoin:round;stroke-miterlimit:4;stroke-dasharray:none;stroke-dashoffset:0;stroke-opacity:1;color-rendering:auto;image-rendering:auto;shape-rendering:auto;text-rendering:auto;enable-background:accumulate" d="m 68.18332,975.49566 c -5.93706,0 -10.78373,5.019 -10.78373,11.214 0,9.6655 15.4874,20.13414 17.26558,21.28144 0.459,0.3154 1.0039,0.4587 1.54867,0.4587 0.51623,0 1.0612,-0.1433 1.5202,-0.4587 C 79.51226,1006.8438 95,996.37516 95,986.70966 c 0,-6.195 -4.84723,-11.214 -10.78411,-11.214 -3.18355,0 -6.0514,1.434 -8.00168,3.6998 -1.97895,-2.2657 -4.84736,-3.6998 -8.03089,-3.6998 z m -35.88924,21.041 c -0.73453,0 -1.47488,0.051 -2.23837,0.1681 -4.07168,0.6263 -7.55755,2.7281 -13.92637,6.40514 L 5,1009.5352 l 3.83422,6.641 3.37965,5.8539 2.85469,4.9441 1.30154,2.2545 5.35068,-3.0888 c 5.35046,-3.0889 5.35028,-3.0889 11.0406,-1.5643 l 5.69029,1.5247 5.69029,1.5247 c 5.69032,1.5247 5.69031,1.5247 14.3184,-0.549 l 8.62811,-2.0736 13.51749,-3.249 c 2.21955,-0.5337 2.43402,-2.9445 1.35995,-4.8126 h -3.8e-4 c -0.73488,-1.2782 -2.07244,-2.3022 -3.78366,-2.2972 l -8.73595,0.025 -6.47399,0.021 c -6.47411,0.02 -6.47422,0.02 -14.35247,-2.393 l -7.87849,-2.4125 -0.49988,-0.1528 a 1.6897986,1.6897986 0 0 1 -1.14015,-2.1002 1.6897986,1.6897986 0 0 1 2.09983,-1.1402 1.6897986,1.6897986 0 0 1 0.38567,0.1712 l 9.83117,3.2036 a 3.8346002,3.8346002 0 0 0 4.46814,-5.6978 3.8346002,3.8346002 0 0 0 -2.09235,-1.5932 l -10.92789,-3.56094 c -4.31972,-1.4076 -7.38846,-2.4639 -10.57143,-2.475 z"/></g><text x="0" y="115" fill="#000000" font-size="5px" font-weight="bold" font-family="'Helvetica Neue', Helvetica, Arial-Unicode, Arial, Sans-serif">Created by Andrew Doane</text><text x="0" y="120" fill="#000000" font-size="5px" font-weight="bold" font-family="'Helvetica Neue', Helvetica, Arial-Unicode, Arial, Sans-serif">from the Noun Project</text></svg>