<?xml version="1.0" encoding="UTF-8" standalone="no"?>
<svg
   enable-background="new 0 0 128 128"
   height="128px"
   id="Layer_1"
   version="1.1"
   viewBox="0 0 128 128"
   width="128px"
   xml:space="preserve"
   sodipodi:docname="good@b.svg"
   inkscape:version="1.1.1 (3bf5ae0d25, 2021-09-20)"
   xmlns:inkscape="http://www.inkscape.org/namespaces/inkscape"
   xmlns:sodipodi="http://sodipodi.sourceforge.net/DTD/sodipodi-0.dtd"
   xmlns="http://www.w3.org/2000/svg"
   xmlns:svg="http://www.w3.org/2000/svg"><defs
     id="defs7" /><sodipodi:namedview
     id="namedview5"
     pagecolor="#ffffff"
     bordercolor="#666666"
     borderopacity="1.0"
     inkscape:pageshadow="2"
     inkscape:pageopacity="0.0"
     inkscape:pagecheckerboard="0"
     showgrid="false"
     inkscape:zoom="5.328125"
     inkscape:cx="26.932551"
     inkscape:cy="63.718475"
     inkscape:window-width="1522"
     inkscape:window-height="871"
     inkscape:window-x="389"
     inkscape:window-y="1071"
     inkscape:window-maximized="1"
     inkscape:current-layer="Layer_1" /><path
     d="M116.158,29.336l-4.975-4.975c-3.469-3.469-9.088-3.478-12.549-0.019L48.103,74.875L29.364,56.136  c-3.459-3.46-9.078-3.45-12.549,0.021l-4.974,4.974c-3.47,3.47-3.48,9.089-0.02,12.549L41.8,103.657  c1.741,1.741,4.026,2.602,6.31,2.588c2.279,0.011,4.559-0.852,6.297-2.59l61.771-61.771  C119.637,38.424,119.631,32.807,116.158,29.336z"
     fill="#232323"
     id="path2"
     style="fill:#2f6a40;fill-opacity:1" /><path
     style="fill:#000000;fill-opacity:1;stroke-width:0.187683"
     d="m 46.639296,106.01867 c -0.567742,-0.0914 -1.665689,-0.47165 -2.439883,-0.84498 C 42.83795,104.51717 42.273882,103.9771 26.998829,88.704931 18.312701,80.020444 10.977286,72.543863 10.697907,72.090304 9.022624,69.370567 8.9245033,66.076806 10.434376,63.243993 c 0.845956,-1.587174 7.364964,-8.003808 8.82414,-8.685566 2.673923,-1.24931 5.703721,-1.158375 8.132864,0.244097 0.628665,0.362961 4.241517,3.843482 10.707649,10.315449 5.367371,5.372211 9.843733,9.767657 9.947475,9.767657 0.10374,0 11.63249,-11.447409 25.619444,-25.438689 C 87.652902,35.455662 99.519062,23.73007 100.03519,23.39007 c 2.72686,-1.796323 5.7008,-1.991776 8.71422,-0.572717 1.24098,0.584394 1.7605,1.022858 4.71722,3.981267 1.82747,1.828501 3.55234,3.695641 3.83304,4.149199 1.67272,2.702697 1.77632,6.012579 0.27629,8.826915 -0.4583,0.859872 -6.51704,7.009061 -32.51243,32.997845 -30.729923,30.722111 -31.997371,31.962791 -33.212479,32.511181 -0.694824,0.31357 -1.835,0.6528 -2.533725,0.75384 -1.422778,0.20574 -1.276099,0.20677 -2.67803,-0.0189 z"
     id="path9005" /></svg>
