<?xml version="1.0" encoding="UTF-8" standalone="no"?>
<svg
   data-name="Layer 1"
   id="Layer_1"
   viewBox="0 0 64 64"
   version="1.1"
   sodipodi:docname="info_circle@b.svg"
   inkscape:version="1.1.1 (3bf5ae0d25, 2021-09-20)"
   xmlns:inkscape="http://www.inkscape.org/namespaces/inkscape"
   xmlns:sodipodi="http://sodipodi.sourceforge.net/DTD/sodipodi-0.dtd"
   xmlns="http://www.w3.org/2000/svg"
   xmlns:svg="http://www.w3.org/2000/svg">
  <defs
     id="defs12" />
  <sodipodi:namedview
     id="namedview10"
     pagecolor="#ffffff"
     bordercolor="#666666"
     borderopacity="1.0"
     inkscape:pageshadow="2"
     inkscape:pageopacity="0.0"
     inkscape:pagecheckerboard="0"
     showgrid="false"
     inkscape:zoom="10.65625"
     inkscape:cx="31.953079"
     inkscape:cy="24.539589"
     inkscape:window-width="1522"
     inkscape:window-height="871"
     inkscape:window-x="389"
     inkscape:window-y="1071"
     inkscape:window-maximized="1"
     inkscape:current-layer="Layer_1" />
  <title
     id="title2" />
  <path
     d="M64,32A32,32,0,1,0,32,64,32,32,0,0,0,64,32Zm-5.57,0A26.43,26.43,0,1,1,32,5.57,26.45,26.45,0,0,1,58.43,32Z"
     data-name="&lt;Compound Path&gt;"
     id="_Compound_Path_" />
  <rect
     height="8.7279425"
     width="8.7279425"
     x="27.63603"
     y="7.2163925"
     id="rect5"
     style="stroke-width:1.25401" />
  <polygon
     points="35.48,23.89 28.88,23.89 25.65,23.89 25.65,30.85 28.88,30.85 28.88,44.39 25.65,44.39 25.65,51.35 28.88,51.35 35.48,51.35 38.35,51.35 38.35,44.39 35.48,44.39 35.48,30.85 "
     id="polygon7"
     transform="matrix(1.2540146,0,0,1.2540146,-8.128469,-8.0700456)" />
</svg>
