<?xml version="1.0" encoding="UTF-8" standalone="no"?>
<!-- Generator: Adobe Illustrator 19.0.0, SVG Export Plug-In . SVG Version: 6.00 Build 0)  -->

<svg
   version="1.1"
   id="Capa_1"
   x="0px"
   y="0px"
   viewBox="0 0 512 512"
   style="enable-background:new 0 0 512 512;"
   xml:space="preserve"
   sodipodi:docname="input@b.svg"
   inkscape:version="1.1.1 (3bf5ae0d25, 2021-09-20)"
   xmlns:inkscape="http://www.inkscape.org/namespaces/inkscape"
   xmlns:sodipodi="http://sodipodi.sourceforge.net/DTD/sodipodi-0.dtd"
   xmlns="http://www.w3.org/2000/svg"
   xmlns:svg="http://www.w3.org/2000/svg"><defs
   id="defs47" /><sodipodi:namedview
   id="namedview45"
   pagecolor="#ffffff"
   bordercolor="#666666"
   borderopacity="1.0"
   inkscape:pageshadow="2"
   inkscape:pageopacity="0.0"
   inkscape:pagecheckerboard="0"
   showgrid="false"
   inkscape:zoom="1.3320312"
   inkscape:cx="255.62464"
   inkscape:cy="316.43403"
   inkscape:window-width="1522"
   inkscape:window-height="871"
   inkscape:window-x="389"
   inkscape:window-y="1071"
   inkscape:window-maximized="1"
   inkscape:current-layer="Capa_1" />
<g
   id="g6"
   transform="matrix(1,0,0,-1,0,512)">
	<g
   id="g4">
		<path
   d="M 407,182 H 332 V 15 C 332,6.71 325.29,0 317,0 H 195 c -8.29,0 -15,6.71 -15,15 v 167 h -75 c -12.68,0 -19.69,14.84 -11.52,24.61 l 152,180 c 5.98,7.18 17.05,7.18 23.03,0 l 150,-180 C 426.68,196.84 419.68,182 407,182 Z"
   id="path2" />
	</g>
</g>
<g
   id="g12"
   transform="matrix(1,0,0,-1,0,512)">
	<g
   id="g10">
		<path
   d="m 497,302 h -60 c -8.29,0 -15,6.71 -15,15 V 422 H 90 V 317 c 0,-8.29 -6.71,-15 -15,-15 H 15 c -8.29,0 -15,6.71 -15,15 v 150 c 0,24.82 20.18,45 45,45 h 422 c 24.81,0 45,-20.18 45,-45 V 317 c 0,-8.29 -6.71,-15 -15,-15 z"
   id="path8" />
	</g>
</g>
<g
   id="g14"
   transform="matrix(1,0,0,-1,0,512)">
</g>
<g
   id="g16"
   transform="matrix(1,0,0,-1,0,512)">
</g>
<g
   id="g18"
   transform="matrix(1,0,0,-1,0,512)">
</g>
<g
   id="g20"
   transform="matrix(1,0,0,-1,0,512)">
</g>
<g
   id="g22"
   transform="matrix(1,0,0,-1,0,512)">
</g>
<g
   id="g24"
   transform="matrix(1,0,0,-1,0,512)">
</g>
<g
   id="g26"
   transform="matrix(1,0,0,-1,0,512)">
</g>
<g
   id="g28"
   transform="matrix(1,0,0,-1,0,512)">
</g>
<g
   id="g30"
   transform="matrix(1,0,0,-1,0,512)">
</g>
<g
   id="g32"
   transform="matrix(1,0,0,-1,0,512)">
</g>
<g
   id="g34"
   transform="matrix(1,0,0,-1,0,512)">
</g>
<g
   id="g36"
   transform="matrix(1,0,0,-1,0,512)">
</g>
<g
   id="g38"
   transform="matrix(1,0,0,-1,0,512)">
</g>
<g
   id="g40"
   transform="matrix(1,0,0,-1,0,512)">
</g>
<g
   id="g42"
   transform="matrix(1,0,0,-1,0,512)">
</g>
</svg>
