<?xml version="1.0" encoding="UTF-8" standalone="no"?>
<svg
   height="48"
   viewBox="0 0 48 48"
   width="48"
   version="1.1"
   id="svg6"
   sodipodi:docname="key.svg"
   inkscape:version="1.1.1 (3bf5ae0d25, 2021-09-20)"
   xmlns:inkscape="http://www.inkscape.org/namespaces/inkscape"
   xmlns:sodipodi="http://sodipodi.sourceforge.net/DTD/sodipodi-0.dtd"
   xmlns="http://www.w3.org/2000/svg"
   xmlns:svg="http://www.w3.org/2000/svg">
  <defs
     id="defs10" />
  <sodipodi:namedview
     id="namedview8"
     pagecolor="#ffffff"
     bordercolor="#666666"
     borderopacity="1.0"
     inkscape:pageshadow="2"
     inkscape:pageopacity="0.0"
     inkscape:pagecheckerboard="0"
     showgrid="false"
     inkscape:zoom="8"
     inkscape:cx="66.1875"
     inkscape:cy="25.8125"
     inkscape:window-width="1522"
     inkscape:window-height="871"
     inkscape:window-x="389"
     inkscape:window-y="1071"
     inkscape:window-maximized="1"
     inkscape:current-layer="svg6" />
  <path
     d="M0 0h48v48H0z"
     fill="none"
     id="path2" />
  <path
     d="M 24.803971,16.891911 C 22.849913,12.351013 23.832786,6.8907512 27.664015,3.3453197 32.530116,-1.1577859 40.118751,-0.8637762 44.621856,4.0023248 49.124961,8.8684256 48.830952,16.45706 43.96485,20.960165 40.133622,24.505596 34.613682,25.06306 30.237583,22.763526 L 14.858868,36.553666 20.29248,42.425281 14.420865,47.858893 8.9872525,41.987278 6.0514453,44.704084 0.61783364,38.832469 Z M 38.531239,15.08855 c 1.622033,-1.501035 1.720037,-4.030579 0.218998,-5.6526129 -1.501034,-1.6220342 -4.030579,-1.7200374 -5.652613,-0.2189993 -1.622033,1.5010352 -1.720036,4.0305792 -0.218999,5.6526132 1.501036,1.622034 4.03058,1.720037 5.652614,0.218999 z"
     id="path4"
     sodipodi:nodetypes="csssccccccccsssss"
     style="fill:#bd7d00;fill-opacity:1;fill-rule:nonzero;opacity:1" />
</svg>
