<?xml version="1.0" encoding="UTF-8" standalone="no"?>
<svg
   height="48"
   viewBox="0 0 48 48"
   width="48"
   version="1.1"
   id="svg6"
   sodipodi:docname="key@b.svg"
   inkscape:version="1.1.1 (3bf5ae0d25, 2021-09-20)"
   xmlns:inkscape="http://www.inkscape.org/namespaces/inkscape"
   xmlns:sodipodi="http://sodipodi.sourceforge.net/DTD/sodipodi-0.dtd"
   xmlns="http://www.w3.org/2000/svg"
   xmlns:svg="http://www.w3.org/2000/svg">
  <defs
     id="defs10" />
  <sodipodi:namedview
     id="namedview8"
     pagecolor="#ffffff"
     bordercolor="#666666"
     borderopacity="1.0"
     inkscape:pageshadow="2"
     inkscape:pageopacity="0.0"
     inkscape:pagecheckerboard="0"
     showgrid="false"
     inkscape:zoom="8"
     inkscape:cx="40.6875"
     inkscape:cy="25.5625"
     inkscape:window-width="1522"
     inkscape:window-height="871"
     inkscape:window-x="389"
     inkscape:window-y="1071"
     inkscape:window-maximized="1"
     inkscape:current-layer="svg6" />
  <path
     d="M0 0h48v48H0z"
     fill="none"
     id="path2" />
  <path
     d="M 24.803971,16.891911 C 22.849913,12.351013 23.832786,6.8907512 27.664015,3.3453197 32.530116,-1.1577859 40.118751,-0.8637762 44.621856,4.0023248 49.124961,8.8684256 48.830952,16.45706 43.96485,20.960165 40.133622,24.505596 34.613682,25.06306 30.237583,22.763526 L 14.858868,36.553666 20.29248,42.425281 14.420865,47.858893 8.9872525,41.987278 6.0514453,44.704084 0.61783364,38.832469 Z M 38.531239,15.08855 c 1.622033,-1.501035 1.720037,-4.030579 0.218998,-5.6526129 -1.501034,-1.6220342 -4.030579,-1.7200374 -5.652613,-0.2189993 -1.622033,1.5010352 -1.720036,4.0305792 -0.218999,5.6526132 1.501036,1.622034 4.03058,1.720037 5.652614,0.218999 z"
     id="path4"
     sodipodi:nodetypes="csssccccccccsssss"
     style="fill:#bd7d00;fill-opacity:1;fill-rule:nonzero;opacity:1" />
  <path
     style="fill:#000000;stroke-width:0.125"
     d="M 11.75,44.8694 C 10.30625,43.295499 9.06875,42.006185 9,42.004259 8.93125,42.002334 8.2613251,42.563088 7.511278,43.250379 6.761231,43.93767 6.1059375,44.5 6.0550702,44.5 5.9527399,44.5 0.89765502,39.05742 0.83700138,38.881942 0.81610214,38.821479 6.2070795,33.865367 12.816951,27.868362 22.894179,18.725495 24.824156,16.922149 24.76837,16.701109 24.731777,16.556124 24.547281,15.959375 24.358376,15.375 c -0.317667,-0.982699 -0.344024,-1.222102 -0.35092,-3.1875 -0.0083,-2.3744941 0.157813,-3.2191302 0.985677,-5.0109331 1.478431,-3.1998703 4.353682,-5.6259722 7.772632,-6.55845281 1.474926,-0.40226966 3.873889,-0.46702385 5.422989,-0.14638045 3.693248,0.76445406 6.797036,3.22185776 8.440641,6.68282426 1.164972,2.4531002 1.41467,5.7236861 0.635903,8.3291661 -1.176649,3.936648 -4.366385,7.090266 -8.229236,8.136051 -2.681252,0.725894 -5.539412,0.528216 -7.933805,-0.54872 -0.425008,-0.191158 -0.83138,-0.327534 -0.903047,-0.303058 -0.180075,0.0615 -15.365702,13.64819 -15.377333,13.75821 -0.0052,0.04879 1.200539,1.396686 2.679326,2.995325 2.537039,2.742664 2.676296,2.918243 2.46875,3.112701 -1.577416,1.477941 -5.537683,5.113478 -5.562387,5.106287 C 14.389655,47.735306 13.19375,46.443303 11.75,44.8694 Z M 37.505704,15.821751 C 38.954056,15.168355 39.7033,14.052839 39.788874,12.422434 39.85806,11.104279 39.615642,10.350176 38.84839,9.4968058 38.53407,9.1472069 37.989598,8.7098656 37.63845,8.5249364 37.075296,8.2283553 36.859952,8.1887014 35.8125,8.1887014 c -1.047452,0 -1.262796,0.039654 -1.82595,0.336235 -0.840623,0.4427077 -1.72541,1.4388454 -1.992646,2.2434196 -0.27075,0.815151 -0.204465,2.466777 0.12468,3.106644 1.047763,2.036884 3.3462,2.867474 5.38712,1.946751 z"
     id="path896" />
</svg>
