<?xml version="1.0" encoding="UTF-8" standalone="no"?>
<svg
   height="24px"
   id="Layer_1"
   version="1.2"
   viewBox="0 0 24 24"
   width="24px"
   xml:space="preserve"
   sodipodi:docname="letter_i.svg"
   inkscape:version="1.1.1 (3bf5ae0d25, 2021-09-20)"
   xmlns:inkscape="http://www.inkscape.org/namespaces/inkscape"
   xmlns:sodipodi="http://sodipodi.sourceforge.net/DTD/sodipodi-0.dtd"
   xmlns="http://www.w3.org/2000/svg"
   xmlns:svg="http://www.w3.org/2000/svg"><defs
     id="defs11" /><sodipodi:namedview
     id="namedview9"
     pagecolor="#ffffff"
     bordercolor="#666666"
     borderopacity="1.0"
     inkscape:pageshadow="2"
     inkscape:pageopacity="0.0"
     inkscape:pagecheckerboard="0"
     showgrid="false"
     inkscape:zoom="20.093618"
     inkscape:cx="11.521071"
     inkscape:cy="11.322003"
     inkscape:window-width="1522"
     inkscape:window-height="871"
     inkscape:window-x="389"
     inkscape:window-y="1071"
     inkscape:window-maximized="1"
     inkscape:current-layer="Layer_1" /><g
     id="g6"
     transform="matrix(1.4978074,0,0,1.4978074,-5.724727,-5.1767497)"><path
       d="m 13.839,17.525 c -0.006,0.002 -0.559,0.186 -1.039,0.186 -0.265,0 -0.372,-0.055 -0.406,-0.079 -0.168,-0.117 -0.48,-0.336 0.054,-1.4 l 1,-1.994 c 0.593,-1.184 0.681,-2.329 0.245,-3.225 C 13.337,10.28 12.654,9.777 11.773,9.597 11.456,9.532 11.134,9.5 10.815,9.5 c -1.849,0 -3.094,1.08 -3.146,1.126 -0.179,0.158 -0.221,0.42 -0.102,0.626 0.12,0.206 0.367,0.3 0.595,0.222 0.005,-0.002 0.559,-0.187 1.039,-0.187 0.263,0 0.369,0.055 0.402,0.078 0.169,0.118 0.482,0.34 -0.051,1.402 l -1,1.995 c -0.594,1.185 -0.681,2.33 -0.245,3.225 0.356,0.733 1.038,1.236 1.921,1.416 0.314,0.063 0.636,0.097 0.954,0.097 1.85,0 3.096,-1.08 3.148,-1.126 0.179,-0.157 0.221,-0.42 0.102,-0.626 -0.12,-0.205 -0.369,-0.297 -0.593,-0.223 z"
       id="path2" /><circle
       cx="13"
       cy="6.0009999"
       r="2.5"
       id="circle4" /></g></svg>
