<?xml version="1.0" encoding="UTF-8" standalone="no"?>
<!-- Generator: Adobe Illustrator 19.0.0, SVG Export Plug-In . SVG Version: 6.00 Build 0)  -->

<svg
   version="1.1"
   id="Capa_1"
   x="0px"
   y="0px"
   viewBox="0 0 392.2 392.2"
   style="enable-background:new 0 0 392.2 392.2;"
   xml:space="preserve"
   sodipodi:docname="box2.svg"
   inkscape:version="1.1.1 (3bf5ae0d25, 2021-09-20)"
   xmlns:inkscape="http://www.inkscape.org/namespaces/inkscape"
   xmlns:sodipodi="http://sodipodi.sourceforge.net/DTD/sodipodi-0.dtd"
   xmlns="http://www.w3.org/2000/svg"
   xmlns:svg="http://www.w3.org/2000/svg"><defs
   id="defs47" /><sodipodi:namedview
   id="namedview45"
   pagecolor="#ffffff"
   bordercolor="#666666"
   borderopacity="1.0"
   inkscape:pageshadow="2"
   inkscape:pageopacity="0.0"
   inkscape:pagecheckerboard="0"
   showgrid="false"
   inkscape:zoom="1.7389087"
   inkscape:cx="195.81247"
   inkscape:cy="150.38168"
   inkscape:window-width="1522"
   inkscape:window-height="871"
   inkscape:window-x="69"
   inkscape:window-y="-9"
   inkscape:window-maximized="1"
   inkscape:current-layer="g6" />
<g
   id="g6">
	<g
   id="g4"
   transform="matrix(1.0266101,0,0,1,-4.3984091,0)">
		<path
   d="m 386.9,99.4 c -0.4,-0.8 -0.4,-1.2 -1.2,-2 -0.4,-0.8 -1.2,-1.2 -2.4,-1.6 L 291.7,48.2 198.9,0.6 c -1.6,-0.8 -3.6,-0.8 -5.2,0 l -93.2,47.6 -92,47.6 c -1.2,0.4 -2.4,1.6 -2.8,2.8 -0.4,0.8 -0.4,1.2 -0.8,2 v 0.4 190.4 c 0,2 1.2,4 3.2,5.2 l 185.2,94.8 c 0.4,0.4 0.8,0.4 1.2,0.4 h 0.4 c 0.4,0 0.8,0.4 1.6,0.4 0.8,0 1.2,0 2,-0.4 0,0 0.4,0 0.4,-0.4 0,0 0.4,0 0.4,-0.4 l 184.8,-94.4 c 2,-1.2 3.2,-3.2 3.2,-5.2 V 101 c 0,-0.8 0,-1.2 -0.4,-1.6 z m -190.8,-87.2 90,46.4 82.8,42.4 -80,41.2 -172.8,-88.8 z m -5.6,365.2 -174,-89.6 V 110.6 l 84.4,43.2 89.6,46 z m 5.6,-187.6 -90,-46.4 -82.8,-42.4 80,-41.2 172.8,88.8 z m 179.6,98.4 -174,88.8 V 199.8 l 89.6,-46 84.4,-43.2 z"
   id="path2" />
	</g>
</g>
<g
   id="g12">
	<g
   id="g10">
		<path
   d="M332.5,173c0.4,0,0-0.4,0-0.8c-1.6-4.4-5.2-7.2-9.2-8.8c-4.4-1.6-9.6-1.2-14.4,1.2l-44,21.2c-4.8,2.4-8.8,6.4-11.2,10.8    c-2.4,4.4-2.8,9.6-1.2,14c1.6,4.4,5.2,7.6,9.2,9.2c4.4,1.6,9.6,1.2,14.4-1.2l44-21.2c4.8-2.4,8.8-6.4,11.2-10.8    C333.3,182.2,334.1,177.4,332.5,173z M320.9,183.4c-0.8,1.6-2.4,3.2-4,4l-44,21.2c-2,0.8-4,1.2-5.6,0.4c-1.6-0.4-2.8-1.6-3.6-3.2    v-0.4c-0.4-1.6-0.4-3.6,0.4-5.2c0.8-1.6,2.4-3.2,4-4l44-21.2c2-0.8,4-1.2,5.6-0.4c1.6,0.4,2.8,1.6,3.6,3.6    C322.1,179.8,321.7,181.8,320.9,183.4z"
   id="path8" />
	</g>
</g>
<g
   id="g14">
</g>
<g
   id="g16">
</g>
<g
   id="g18">
</g>
<g
   id="g20">
</g>
<g
   id="g22">
</g>
<g
   id="g24">
</g>
<g
   id="g26">
</g>
<g
   id="g28">
</g>
<g
   id="g30">
</g>
<g
   id="g32">
</g>
<g
   id="g34">
</g>
<g
   id="g36">
</g>
<g
   id="g38">
</g>
<g
   id="g40">
</g>
<g
   id="g42">
</g>
</svg>
