<?xml version="1.0" ?><svg viewBox="0 0 64 64" xmlns="http://www.w3.org/2000/svg"><title/><g id="Lock"><path d="M48,24H46V18a14,14,0,0,0-28,0v6H16a6.0066,6.0066,0,0,0-6,6V54a6.0066,6.0066,0,0,0,6,6H48a6.0066,6.0066,0,0,0,6-6V30A6.0066,6.0066,0,0,0,48,24ZM22,18a10,10,0,0,1,20,0v6H22ZM50,54a2.0023,2.0023,0,0,1-2,2H16a2.0023,2.0023,0,0,1-2-2V30a2.002,2.002,0,0,1,2-2H48a2.002,2.002,0,0,1,2,2Z"/><path d="M32,35a3.9871,3.9871,0,0,0-2,7.4437V47a2,2,0,0,0,4,0V42.4437A3.9871,3.9871,0,0,0,32,35Z"/></g></svg>