<svg id="Capa_1" enable-background="new 0 0 512 512" height="512" viewBox="0 0 512 512" width="512" xmlns="http://www.w3.org/2000/svg"><path d="m269.162 271h94.347c6.968 34.192 37.272 60 73.491 60 41.355 0 75-33.645 75-75s-33.645-75-75-75c-36.219 0-66.522 25.808-73.491 60h-94.347c-1.861-16.76-6.799-32.604-14.241-46.952l98.311-65.811c13.562 13.443 32.21 21.763 52.768 21.763 41.355 0 75-33.645 75-75s-33.645-75-75-75-75 33.645-75 75c0 10.009 1.986 19.559 5.56 28.296l-98.324 65.819c-24.783-29.401-61.862-48.115-103.236-48.115-74.439 0-135 60.561-135 135s60.561 135 135 135c41.374 0 78.453-18.714 103.236-48.116l98.324 65.819c-3.574 8.738-5.56 18.288-5.56 28.297 0 41.355 33.645 75 75 75s75-33.645 75-75-33.645-75-75-75c-20.558 0-39.206 8.32-52.768 21.763l-98.311-65.811c7.442-14.348 12.38-30.192 14.241-46.952zm167.838-60c24.813 0 45 20.187 45 45s-20.187 45-45 45-45-20.187-45-45 20.187-45 45-45zm-31-181c24.813 0 45 20.187 45 45s-20.187 45-45 45-45-20.187-45-45 20.187-45 45-45zm0 362c24.813 0 45 20.187 45 45s-20.187 45-45 45-45-20.187-45-45 20.187-45 45-45zm-271-31c-57.897 0-105-47.103-105-105s47.103-105 105-105 105 47.103 105 105-47.103 105-105 105z"/></svg>