<?xml version="1.0" encoding="UTF-8" standalone="no"?>
<!-- Generator: Adobe Illustrator 19.0.0, SVG Export Plug-In . SVG Version: 6.00 Build 0)  -->

<svg
   version="1.1"
   id="Capa_1"
   x="0px"
   y="0px"
   viewBox="0 0 512 512"
   style="enable-background:new 0 0 512 512;"
   xml:space="preserve"
   sodipodi:docname="present@b.svg"
   inkscape:version="1.1.1 (3bf5ae0d25, 2021-09-20)"
   xmlns:inkscape="http://www.inkscape.org/namespaces/inkscape"
   xmlns:sodipodi="http://sodipodi.sourceforge.net/DTD/sodipodi-0.dtd"
   xmlns="http://www.w3.org/2000/svg"
   xmlns:svg="http://www.w3.org/2000/svg"><defs
   id="defs41" /><sodipodi:namedview
   id="namedview39"
   pagecolor="#ffffff"
   bordercolor="#666666"
   borderopacity="1.0"
   inkscape:pageshadow="2"
   inkscape:pageopacity="0.0"
   inkscape:pagecheckerboard="0"
   showgrid="false"
   inkscape:zoom="1.3320312"
   inkscape:cx="255.62463"
   inkscape:cy="376.49267"
   inkscape:window-width="1522"
   inkscape:window-height="871"
   inkscape:window-x="389"
   inkscape:window-y="1071"
   inkscape:window-maximized="1"
   inkscape:current-layer="Capa_1" />
<g
   id="g6"
   transform="matrix(1,0,0,1.0636116,0,-16.284578)">
	<g
   id="g4">
		<path
   d="M 480,143.686 H 378.752 c 7.264,-4.96 13.504,-9.888 17.856,-14.304 25.792,-25.952 25.792,-68.192 0,-94.144 -25.056,-25.216 -68.768,-25.248 -93.856,0 -13.856,13.92 -50.688,70.592 -45.6,108.448 h -2.304 C 259.904,105.83 223.104,49.158 209.248,35.238 184.16,9.99 140.448,10.022 115.392,35.238 89.6,61.19 89.6,103.43 115.36,129.382 c 4.384,4.416 10.624,9.344 17.888,14.304 H 32 c -17.632,0 -32,14.368 -32,32 v 80 c 0,8.832 7.168,16 16,16 h 16 v 192 c 0,17.632 14.368,32 32,32 h 384 c 17.632,0 32,-14.368 32,-32 v -192 h 16 c 8.832,0 16,-7.168 16,-16 v -80 c 0,-17.632 -14.368,-32 -32,-32 z M 138.08,57.798 c 6.496,-6.528 15.104,-10.112 24.256,-10.112 9.12,0 17.728,3.584 24.224,10.112 21.568,21.696 43.008,77.12 35.552,84.832 0,0 -1.344,1.056 -5.92,1.056 -22.112,0 -64.32,-22.976 -78.112,-36.864 -13.408,-13.504 -13.408,-35.52 0,-49.024 z M 240,463.686 H 64 v -192 h 176 z m 0,-224 H 32 v -64 H 216.192 240 Z M 325.44,57.798 c 12.992,-13.024 35.52,-12.992 48.48,0 13.408,13.504 13.408,35.52 0,49.024 -13.792,13.888 -56,36.864 -78.112,36.864 -4.576,0 -5.92,-1.024 -5.952,-1.056 -7.424,-7.712 14.016,-63.136 35.584,-84.832 z M 448,463.686 H 272 v -192 h 176 z m 32,-224 H 272 v -64 H 295.808 480 Z"
   id="path2" />
	</g>
</g>
<g
   id="g8">
</g>
<g
   id="g10">
</g>
<g
   id="g12">
</g>
<g
   id="g14">
</g>
<g
   id="g16">
</g>
<g
   id="g18">
</g>
<g
   id="g20">
</g>
<g
   id="g22">
</g>
<g
   id="g24">
</g>
<g
   id="g26">
</g>
<g
   id="g28">
</g>
<g
   id="g30">
</g>
<g
   id="g32">
</g>
<g
   id="g34">
</g>
<g
   id="g36">
</g>
</svg>
