<?xml version="1.0" encoding="UTF-8" standalone="no"?>
<svg
   id="Capa_1"
   enable-background="new 0 0 512 512"
   height="512"
   viewBox="0 0 512 512"
   width="512"
   version="1.1"
   sodipodi:docname="puzzle_pieces@b.svg"
   inkscape:version="1.1.1 (3bf5ae0d25, 2021-09-20)"
   xmlns:inkscape="http://www.inkscape.org/namespaces/inkscape"
   xmlns:sodipodi="http://sodipodi.sourceforge.net/DTD/sodipodi-0.dtd"
   xmlns="http://www.w3.org/2000/svg"
   xmlns:svg="http://www.w3.org/2000/svg">
  <defs
     id="defs9" />
  <sodipodi:namedview
     id="namedview7"
     pagecolor="#ffffff"
     bordercolor="#666666"
     borderopacity="1.0"
     inkscape:pageshadow="2"
     inkscape:pageopacity="0.0"
     inkscape:pagecheckerboard="0"
     showgrid="false"
     inkscape:zoom="1.3320312"
     inkscape:cx="255.62463"
     inkscape:cy="226.34604"
     inkscape:window-width="1522"
     inkscape:window-height="871"
     inkscape:window-x="389"
     inkscape:window-y="1071"
     inkscape:window-maximized="1"
     inkscape:current-layer="Capa_1" />
  <g
     id="g4"
     transform="matrix(1,0,0,1.3706178,0,-94.878134)">
    <path
       d="M 469.074,266.841 H 512 V 152.585 h -84.256 v -12.926 c 0,-28.256 -22.988,-51.244 -51.244,-51.244 -28.256,0 -51.244,22.988 -51.244,51.244 v 12.926 H 186.744 v -12.926 c 0,-28.256 -22.988,-51.244 -51.244,-51.244 -28.256,0 -51.244,22.988 -51.244,51.244 v 12.926 H 0 v 271 h 114.256 v -42.926 c 0,-11.714 9.53,-21.244 21.244,-21.244 11.714,0 21.244,9.53 21.244,21.244 v 42.926 H 512 V 309.329 h -42.926 c -11.714,0 -21.244,-9.53 -21.244,-21.244 0,-11.714 9.53,-21.244 21.244,-21.244 z M 241,393.585 h -54.256 v -12.926 c 0,-28.256 -22.988,-51.244 -51.244,-51.244 -28.256,0 -51.244,22.988 -51.244,51.244 v 12.926 H 30 v -211 h 84.256 v -42.926 c 0,-11.714 9.53,-21.244 21.244,-21.244 11.714,0 21.244,9.53 21.244,21.244 v 42.926 H 241 v 84.256 h 42.926 c 11.714,0 21.244,9.53 21.244,21.244 0,11.714 -9.53,21.244 -21.244,21.244 H 241 Z M 469.074,339.329 H 482 v 54.256 H 271 v -54.256 h 12.926 c 28.256,0 51.244,-22.988 51.244,-51.244 0,-28.256 -22.988,-51.244 -51.244,-51.244 H 271 v -54.256 h 84.256 v -42.926 c 0,-11.714 9.53,-21.244 21.244,-21.244 11.714,0 21.244,9.53 21.244,21.244 v 42.926 H 482 v 54.256 h -12.926 c -28.256,0 -51.244,22.988 -51.244,51.244 0,28.256 22.988,51.244 51.244,51.244 z"
       id="path2" />
  </g>
</svg>
