<?xml version="1.0" encoding="UTF-8" standalone="no"?>
<!-- Generator: Adobe Illustrator 19.0.0, SVG Export Plug-In . SVG Version: 6.00 Build 0)  -->

<svg
   version="1.1"
   id="Capa_1"
   x="0px"
   y="0px"
   viewBox="0 0 512.001 512.001"
   style="enable-background:new 0 0 512.001 512.001;"
   xml:space="preserve"
   sodipodi:docname="puzzle_piece@b.svg"
   inkscape:version="1.1.1 (3bf5ae0d25, 2021-09-20)"
   xmlns:inkscape="http://www.inkscape.org/namespaces/inkscape"
   xmlns:sodipodi="http://sodipodi.sourceforge.net/DTD/sodipodi-0.dtd"
   xmlns="http://www.w3.org/2000/svg"
   xmlns:svg="http://www.w3.org/2000/svg"><defs
   id="defs41" /><sodipodi:namedview
   id="namedview39"
   pagecolor="#ffffff"
   bordercolor="#666666"
   borderopacity="1.0"
   inkscape:pageshadow="2"
   inkscape:pageopacity="0.0"
   inkscape:pagecheckerboard="0"
   showgrid="false"
   inkscape:zoom="1.3320287"
   inkscape:cx="255.62512"
   inkscape:cy="256.37586"
   inkscape:window-width="1522"
   inkscape:window-height="871"
   inkscape:window-x="389"
   inkscape:window-y="1071"
   inkscape:window-maximized="1"
   inkscape:current-layer="Capa_1" />
<g
   id="g6"
   transform="matrix(1.2670056,0,0,1,-68.353702,0)">
	<g
   id="g4">
		<path
   d="m 348.691,279.542 c 15.675,0 30.087,7.912 38.549,21.165 l 4.445,6.962 8.25,0.001 c 0.017,0 0.033,0 0.05,0 23.061,0 41.901,-18.744 42.009,-41.806 l 0.586,-126.21 -127.926,-0.764 c -4.203,-0.007 -7.899,-2.231 -9.977,-5.56 16.664,-14.313 26.348,-35.113 26.348,-57.47 0,-20.931 -8.34,-40.418 -23.482,-54.874 C 292.407,6.535 272.535,-0.879 251.574,0.083 c -38.968,1.808 -70.686,33.765 -72.208,72.754 -0.908,23.213 8.999,45.539 26.339,60.51 -2.05,3.345 -5.721,5.6 -9.908,5.65 L 69.422,138.088 V 512 H 441.09 l 0.731,-126.922 c 0.134,-22.956 -18.436,-41.904 -41.335,-42.237 l -8.8,-0.005 -4.445,6.962 c -8.858,13.871 -23.959,21.755 -40.395,21.128 -23.481,-0.918 -42.725,-20.016 -43.814,-43.48 -0.586,-12.647 3.885,-24.634 12.591,-33.753 8.712,-9.125 20.456,-14.151 33.068,-14.151 z m -75.777,49.301 c 1.806,38.969 33.764,70.687 72.753,72.209 23.167,0.906 45.464,-8.967 60.435,-26.253 3.362,2.116 5.595,5.869 5.571,10.106 l -0.559,96.946 H 99.571 V 168.456 l 96.128,0.691 h 0.194 c 22.987,-0.13 41.688,-18.938 41.688,-41.924 v -8.366 l -6.961,-4.446 c -13.873,-8.858 -21.771,-23.959 -21.128,-40.396 0.917,-23.48 20.015,-42.725 43.479,-43.813 12.638,-0.586 24.634,3.884 33.753,12.59 9.126,8.713 14.152,20.456 14.152,33.068 0,15.675 -7.912,30.087 -21.166,38.55 l -6.961,4.446 v 8.26 c 0,23.08 18.777,41.888 41.792,41.924 l 97.751,0.583 -0.446,96.101 c -0.02,4.241 -2.285,7.964 -5.663,10.044 -14.314,-16.68 -35.124,-26.374 -57.492,-26.374 -20.931,0 -40.419,8.339 -54.875,23.482 -14.451,15.134 -21.874,35.01 -20.902,55.967 z"
   id="path2" />
	</g>
</g>
<g
   id="g8">
</g>
<g
   id="g10">
</g>
<g
   id="g12">
</g>
<g
   id="g14">
</g>
<g
   id="g16">
</g>
<g
   id="g18">
</g>
<g
   id="g20">
</g>
<g
   id="g22">
</g>
<g
   id="g24">
</g>
<g
   id="g26">
</g>
<g
   id="g28">
</g>
<g
   id="g30">
</g>
<g
   id="g32">
</g>
<g
   id="g34">
</g>
<g
   id="g36">
</g>
</svg>
