<?xml version="1.0" encoding="UTF-8" standalone="no"?>
<svg
   height="1792"
   viewBox="0 0 1792 1792"
   width="1792"
   version="1.1"
   id="svg4"
   sodipodi:docname="question@b.svg"
   inkscape:version="1.1.1 (3bf5ae0d25, 2021-09-20)"
   xmlns:inkscape="http://www.inkscape.org/namespaces/inkscape"
   xmlns:sodipodi="http://sodipodi.sourceforge.net/DTD/sodipodi-0.dtd"
   xmlns="http://www.w3.org/2000/svg"
   xmlns:svg="http://www.w3.org/2000/svg">
  <defs
     id="defs8" />
  <sodipodi:namedview
     id="namedview6"
     pagecolor="#ffffff"
     bordercolor="#666666"
     borderopacity="1.0"
     inkscape:pageshadow="2"
     inkscape:pageopacity="0.0"
     inkscape:pagecheckerboard="0"
     showgrid="false"
     inkscape:zoom="0.047572545"
     inkscape:cx="4908.2932"
     inkscape:cy="-2890.3226"
     inkscape:window-width="1522"
     inkscape:window-height="871"
     inkscape:window-x="389"
     inkscape:window-y="1071"
     inkscape:window-maximized="1"
     inkscape:current-layer="svg4" />
  <path
     d="m 1106.149,1402.4859 v 335.6957 q 0,22.3797 -16.7297,39.1645 -16.7296,16.7848 -39.0357,16.7848 H 715.7912 q -22.30616,0 -39.03578,-16.7848 -16.72961,-16.7848 -16.72961,-39.1645 v -335.6957 q 0,-22.3797 16.72961,-39.1645 16.72962,-16.7848 39.03578,-16.7848 h 334.5924 q 22.3061,0 39.0357,16.7848 16.7297,16.7848 16.7297,39.1645 z m 440.5466,-839.23935 q 0,75.53154 -21.6091,141.27195 -21.6091,65.74042 -48.7947,107.00302 -27.1857,41.2626 -76.6774,83.22457 -49.4918,41.96196 -80.1628,60.84484 -30.671,18.88289 -85.0422,49.65507 -57.1596,32.1708 -95.4983,90.9175 -38.3387,58.7468 -38.3387,93.7151 0,23.7785 -16.7296,45.4587 -16.7296,21.6804 -39.0358,21.6804 H 710.21466 q -20.91202,0 -35.55044,-25.8766 -14.63841,-25.8765 -14.63841,-52.4524 v -62.9429 q 0,-116.0948 90.61876,-218.90162 90.61877,-102.80682 199.36129,-151.76244 82.25394,-37.76577 117.10734,-78.329 34.8534,-40.56324 34.8534,-106.30366 0,-58.74675 -64.8273,-103.50618 -64.82729,-44.75942 -149.86951,-44.75942 -90.61876,0 -150.56656,40.56323 -48.79473,34.9683 -149.17244,160.8542 -18.12375,22.37972 -43.21818,22.37972 -16.72962,0 -34.85337,-11.18986 L 280.82111,449.94924 q -18.12375,-13.98732 -21.60909,-34.9683 -3.48533,-20.98099 7.66775,-39.1645 Q 489.94135,3.7536657 913.75836,3.7536657 q 111.53074,0 224.45574,43.3606993 112.9249,43.360697 203.5437,116.094765 90.6187,72.73408 147.7783,178.33836 57.1595,105.60429 57.1595,221.69906 z"
     id="path2"
     style="stroke-width:1.39643" />
</svg>
