<?xml version="1.0" encoding="UTF-8" standalone="no"?>
<svg
   version="1.1"
   x="0px"
   y="0px"
   viewBox="0 0 100 125"
   style="enable-background:new 0 0 100 100;"
   xml:space="preserve"
   id="svg38"
   sodipodi:docname="raised_hand@w.svg"
   inkscape:version="1.1.1 (3bf5ae0d25, 2021-09-20)"
   xmlns:inkscape="http://www.inkscape.org/namespaces/inkscape"
   xmlns:sodipodi="http://sodipodi.sourceforge.net/DTD/sodipodi-0.dtd"
   xmlns="http://www.w3.org/2000/svg"
   xmlns:svg="http://www.w3.org/2000/svg"><defs
     id="defs42" /><sodipodi:namedview
     id="namedview40"
     pagecolor="#ffffff"
     bordercolor="#666666"
     borderopacity="1.0"
     inkscape:pageshadow="2"
     inkscape:pageopacity="0.0"
     inkscape:pagecheckerboard="0"
     showgrid="false"
     inkscape:zoom="3.8579746"
     inkscape:cx="59.487172"
     inkscape:cy="71.410527"
     inkscape:window-width="1522"
     inkscape:window-height="871"
     inkscape:window-x="389"
     inkscape:window-y="1071"
     inkscape:window-maximized="1"
     inkscape:current-layer="svg38" /><g
     id="g8"
     transform="matrix(1.4255224,0,0,1.4089973,-10.276366,-7.4346191)"><g
       id="g6"><g
         id="g4"><path
           d="M 35.582868,58.180348 C 34.482868,58.180348 32.94,40.76 32.94,39.66 V 17.99 c 0,-3.87 3.08,-7.02 6.86,-7.02 3.78,0 6.86,3.15 6.86,7.02 0,1.1 -0.9,2 -2,2 -1.1,0 -2,-0.9 -2,-2 0,-1.67 -1.28,-3.02 -2.86,-3.02 -1.58,0 -2.86,1.36 -2.86,3.02 v 21.67 c 0,1.11 -0.247132,18.520348 -1.357132,18.520348 z"
           id="path2"
           sodipodi:nodetypes="sssssssssss" /></g></g></g><g
     id="g16"
     transform="matrix(1.4255224,0,0,1.4089973,-10.276366,-7.4346191)"><g
       id="g14"><g
         id="g12"><path
           d="m 54.4,46.56 c -1.1,0 -2,-0.9 -2,-2 v -31.9 c 0,-1.67 -1.28,-3.03 -2.86,-3.03 -1.58,0 -2.86,1.36 -2.86,3.03 v 31.9 c 0,1.1 -0.9,2 -2,2 -1.1,0 -2,-0.9 -2,-2 v -31.9 c 0,-3.87 3.08,-7.03 6.86,-7.03 3.78,0 6.86,3.15 6.86,7.03 v 31.9 c 0,1.1 -0.9,2 -2,2 z"
           id="path10" /></g></g></g><g
     id="g24"
     transform="matrix(1.4255224,0,0,1.4089973,-10.276366,-7.4346191)"><g
       id="g22"><g
         id="g20"><path
           d="m 64.12,30.53 c -1.1,0 -2,-0.9 -2,-2 V 18.07 c 0,-1.67 -1.29,-3.03 -2.86,-3.03 -1.57,0 -2.86,1.36 -2.86,3.03 0,1.1 -0.9,2 -2,2 -1.1,0 -2,-0.9 -2,-2 0,-3.88 3.08,-7.03 6.86,-7.03 3.78,0 6.86,3.15 6.86,7.03 v 10.46 c 0,1.11 -0.89,2 -2,2 z"
           id="path18" /></g></g></g><g
     id="g32"
     transform="matrix(1.4255224,0,0,1.4089973,-10.276366,-7.4346191)"><g
       id="g30"><g
         id="g28"><path
           d="m 51.26,94.36 c -2.77,0 -5.79,-0.27 -6.28,-0.31 -0.07,-0.01 -0.13,-0.02 -0.2,-0.03 C 32.83,91.7 29.329908,80.002743 24.15,69.03 L 11.164073,41.521548 c -0.732685,-1.552066 0.91,-3.25 2.43,-4.09 1.68,-0.93 3.84,-0.86 5.49,0.18 l 2,1.38 C 32.214392,55.937689 46.228387,54.012787 43.428748,68.953184 39.967171,59.517476 25.734659,50.913839 18.714073,42.21155 l -1.83,-1.27 c -0.42,-0.26 -1.01,-0.2 -1.35,-0.02 -0.32,0.18 -0.439354,0.406822 -0.36,0.59 L 27.259985,69.410244 C 31.527075,79.260245 35.43,88.07 45.46,90.06 c 2.58,0.23 7.1,0.46 8.62,0.11 10.47,-2.45 17.79,-11.14 17.79,-21.15 v -41.3 c 0,-1.67 -1.28,-3.03 -2.86,-3.03 -1.58,0 -2.86,1.36 -2.86,3.03 v 20.09 c 0,1.1 -0.9,2 -2,2 -1.1,0 -2,-0.9 -2,-2 V 27.73 c 0,-3.88 3.08,-7.03 6.86,-7.03 3.78,0 6.86,3.15 6.86,7.03 v 41.3 c 0,11.88 -8.59,22.17 -20.88,25.05 -0.93,0.21 -2.3,0.28 -3.73,0.28 z"
           id="path26"
           sodipodi:nodetypes="sccsscccccccssccssssssssssscs" /></g></g></g></svg>
