<?xml version="1.0" ?><svg id="Слой_1" style="enable-background:new 0 0 139 139;" version="1.1" viewBox="0 0 139 139" xml:space="preserve" xmlns="http://www.w3.org/2000/svg" xmlns:xlink="http://www.w3.org/1999/xlink"><style type="text/css">
	.st0{fill:none;stroke:#000000;stroke-width:6;stroke-miterlimit:10;}
	.st1{stroke:#000000;stroke-miterlimit:10;}
</style><path class="st0" d="M34.8,44.4L12.5,78.5c0,0,5.4,8,22.2,8" id="XMLID_7_"/><path class="st0" d="M34.8,86.5c16.9,0,22.2-8,22.2-8L34.8,44.4v-4.9h34.7h34.7l0,4.9l22.2,34.1c0,0-5.4,8-22.2,8" id="XMLID_6_"/><path class="st0" d="M104.2,44.4L82,78.5c0,0,5.4,8,22.2,8" id="XMLID_11_"/><line class="st0" id="XMLID_9_" x1="69.5" x2="69.5" y1="106.6" y2="31"/><line class="st0" id="XMLID_10_" x1="94.7" x2="44.2" y1="106.6" y2="106.6"/><path class="st1" d="M12.5,78.5H57C57,78.5,34.7,95,12.5,78.5z" id="XMLID_8_"/><path class="st1" d="M82,78.5h44.5C126.5,78.5,104.2,95,82,78.5z" id="XMLID_13_"/></svg>