<?xml version="1.0" encoding="UTF-8" standalone="no"?>
<svg
   enable-background="new 0 0 128 128"
   height="128px"
   id="Layer_1"
   version="1.1"
   viewBox="0 0 128 128"
   width="128px"
   xml:space="preserve"
   sodipodi:docname="speech_cloud@b.svg"
   inkscape:version="1.1.1 (3bf5ae0d25, 2021-09-20)"
   xmlns:inkscape="http://www.inkscape.org/namespaces/inkscape"
   xmlns:sodipodi="http://sodipodi.sourceforge.net/DTD/sodipodi-0.dtd"
   xmlns="http://www.w3.org/2000/svg"
   xmlns:svg="http://www.w3.org/2000/svg"><defs
     id="defs7" /><sodipodi:namedview
     id="namedview5"
     pagecolor="#ffffff"
     bordercolor="#666666"
     borderopacity="1.0"
     inkscape:pageshadow="2"
     inkscape:pageopacity="0.0"
     inkscape:pagecheckerboard="0"
     showgrid="false"
     inkscape:zoom="3.7675533"
     inkscape:cx="63.038258"
     inkscape:cy="78.963713"
     inkscape:window-width="1522"
     inkscape:window-height="871"
     inkscape:window-x="389"
     inkscape:window-y="1071"
     inkscape:window-maximized="1"
     inkscape:current-layer="Layer_1" /><path
     d="M 121.94091,7.5031233 C 118.09764,3.0915952 112.72387,0.34202841 106.84742,0.3444723 H 21.464937 C 15.589554,0.34206223 10.215794,3.0915952 6.3714466,7.5031233 2.5185617,11.906099 0.11611191,18.056575 0.11931376,24.785073 V 80.701501 C 0.11611176,87.43122 2.5185617,93.58292 6.3714466,97.984675 10.215794,102.3962 15.589554,105.14699 21.464937,105.1421 h 2.152706 l 6.034407,20.79284 c 0.446123,1.62898 1.84106,2.0689 3.135672,2.0689 1.293545,0 2.202868,-0.85298 3.134604,-2.0689 L 50.852522,105.1421 h 55.994898 c 5.87645,0.004 11.25128,-2.7459 15.09457,-7.157425 3.85395,-4.401755 6.25426,-10.553455 6.25106,-17.283174 V 24.785073 c 0.003,-6.728498 -2.39711,-12.878974 -6.25214,-17.2819497 z M 109.32672,79.078647 c 0,2.33652 -1.64895,4.230666 -3.68532,4.230666 H 22.669896 c -2.037439,0 -3.685321,-1.894146 -3.685321,-4.230666 v -3.352029 c 0,-2.337744 1.647882,-4.233113 3.685321,-4.233113 H 105.6414 c 2.03637,0 3.68532,1.895369 3.68532,4.233113 z m 0,-24.76444 c 0,2.337744 -1.64895,4.23189 -3.68532,4.23189 H 22.669896 c -2.037439,0 -3.685321,-1.894146 -3.685321,-4.23189 v -3.353251 c 0,-2.33652 1.647882,-4.230668 3.685321,-4.230668 H 105.6414 c 2.03637,0 3.68532,1.894148 3.68532,4.230668 z m 0,-24.763217 c 0,2.337743 -1.64895,4.23189 -3.68532,4.23189 H 22.669896 c -2.037439,0 -3.685321,-1.894147 -3.685321,-4.23189 v -3.35325 c 0,-2.336522 1.647882,-4.23189 3.685321,-4.23189 H 105.6414 c 2.03637,0 3.68532,1.895368 3.68532,4.23189 z"
     fill="#232323"
     id="path2"
     style="stroke-width:1.14204" /></svg>
