<?xml version="1.0" encoding="iso-8859-1"?>
<!-- Generator: Adobe Illustrator 19.0.0, SVG Export Plug-In . SVG Version: 6.00 Build 0)  -->
<svg version="1.1" id="Capa_1" xmlns="http://www.w3.org/2000/svg" xmlns:xlink="http://www.w3.org/1999/xlink" x="0px" y="0px"
	 viewBox="0 0 512 512" style="enable-background:new 0 0 512 512;" xml:space="preserve">
<g>
	<g>
		<g>
			<path d="M401.052,327.37C462.229,327.37,512,277.599,512,216.422c0-26.864-9.762-52.803-27.488-73.037
				c-15.228-17.383-35.387-29.527-57.572-34.857c-15.48-56.165-66.927-95.935-126.029-95.935c-34.072,0-66.456,13.212-90.709,36.641
				c-14.924-8.453-31.718-12.868-49.262-12.868c-51.057,0-93.635,38.803-99.477,88.463c-16.17,6.825-30.547,17.946-41.2,32.021
				C7.007,174.363,0,195.232,0,217.2c0,55.228,44.932,100.159,100.159,100.159c14.055,0,27.91-2.984,40.71-8.71
				c27.378,31.294,67.337,49.64,109.289,49.64c38.442,0,75.062-15.257,102.246-42.235
				C367.553,323.486,384.148,327.37,401.052,327.37z M338.012,287.48c-22.055,25.935-54.076,40.809-87.854,40.809
				c-36.761,0-71.591-17.755-93.171-47.494c-2.921-4.024-7.494-6.191-12.151-6.191c-2.698,0-5.426,0.727-7.876,2.242
				c-11.128,6.878-23.854,10.514-36.801,10.514C61.474,287.359,30,255.886,30,217.2c0-30.765,20.595-58.413,50.084-67.235
				c6.293-1.883,10.629-7.642,10.699-14.21c0.411-38.262,31.883-69.39,70.156-69.39c15.549,0,30.24,4.932,42.484,14.261
				c6.358,4.846,15.399,3.854,20.555-2.257c19.186-22.736,47.227-35.776,76.932-35.776c48.217,0,89.818,34.344,98.92,81.662
				c1.21,6.293,6.284,11.122,12.629,12.02C452.104,141.882,482,176.338,482,216.422c0,44.635-36.313,80.948-80.948,80.948
				c-15.379,0-30.432-4.429-43.53-12.808C351.203,280.52,342.87,281.766,338.012,287.48z"/>
			<path d="M354,349.407c-30.327,0-55,24.673-55,55c0,30.327,24.673,55,55,55c30.327,0,55-24.673,55-55
				C409,374.08,384.327,349.407,354,349.407z M354,429.407c-13.785,0-25-11.215-25-25c0-13.785,11.215-25,25-25
				c13.785,0,25,11.215,25,25C379,418.192,367.785,429.407,354,429.407z"/>
			<path d="M467,409.407c-24.813,0-45,20.187-45,45s20.187,45,45,45s45-20.187,45-45S491.813,409.407,467,409.407z M467,469.407
				c-8.271,0-15-6.729-15-15s6.729-15,15-15s15,6.729,15,15S475.271,469.407,467,469.407z"/>
		</g>
	</g>
</g>
<g>
</g>
<g>
</g>
<g>
</g>
<g>
</g>
<g>
</g>
<g>
</g>
<g>
</g>
<g>
</g>
<g>
</g>
<g>
</g>
<g>
</g>
<g>
</g>
<g>
</g>
<g>
</g>
<g>
</g>
</svg>
