<?xml version="1.0" encoding="UTF-8" standalone="no"?>
<svg
   width="16"
   height="16"
   viewBox="0 0 16 16"
   version="1.1"
   id="svg4"
   sodipodi:docname="cross_reference@b.svg"
   inkscape:version="1.1.1 (3bf5ae0d25, 2021-09-20)"
   xmlns:inkscape="http://www.inkscape.org/namespaces/inkscape"
   xmlns:sodipodi="http://sodipodi.sourceforge.net/DTD/sodipodi-0.dtd"
   xmlns="http://www.w3.org/2000/svg"
   xmlns:svg="http://www.w3.org/2000/svg">
  <defs
     id="defs8" />
  <sodipodi:namedview
     id="namedview6"
     pagecolor="#ffffff"
     bordercolor="#666666"
     borderopacity="1.0"
     inkscape:pageshadow="2"
     inkscape:pageopacity="0.0"
     inkscape:pagecheckerboard="0"
     showgrid="false"
     inkscape:zoom="54.5625"
     inkscape:cx="8"
     inkscape:cy="7.9908362"
     inkscape:window-width="2560"
     inkscape:window-height="1284"
     inkscape:window-x="-11"
     inkscape:window-y="-11"
     inkscape:window-maximized="1"
     inkscape:current-layer="svg4" />
  <path
     fill-rule="evenodd"
     d="M 15.981672,0.36660992 V 4.7557744 a 0.26466259,0.26466259 0 0 1 -0.452043,0.187381 L 13.896131,3.3096579 9.9261922,7.2795968 A 0.79398778,0.79398778 0 1 1 8.8040229,6.1574275 L 12.773962,2.1874886 11.140464,0.55399104 a 0.26466259,0.26466259 0 0 1 0.187382,-0.45204371 h 4.389164 a 0.26466259,0.26466259 0 0 1 0.264662,0.26466259 z M 1.954555,2.7485733 A 0.26466259,0.26466259 0 0 0 1.6898923,3.0132358 v 7.9398772 c 0,0.146095 0.1185689,0.264664 0.2646627,0.264664 h 2.1173007 a 0.79398778,0.79398778 0 0 1 0.7939878,0.793987 v 2.318444 l 2.879529,-2.879529 a 0.79398778,0.79398778 0 0 1 0.5610847,-0.232902 h 4.7639258 a 0.26466259,0.26466259 0 0 0 0.264663,-0.264664 V 8.3064877 a 0.79398812,0.79398812 0 1 1 1.587976,0 v 2.6466253 a 1.8526382,1.8526382 0 0 1 -1.852639,1.852639 H 8.6346388 L 5.9107314,15.529659 A 1.5424536,1.5424536 0 0 1 3.277868,14.43925 V 12.805752 H 1.954555 A 1.8526382,1.8526382 0 0 1 0.10191683,10.953113 V 3.0132358 c 0,-1.0226562 0.82998189,-1.8526381 1.85263817,-1.8526381 h 5.8225771 a 0.79398782,0.79398782 0 0 1 0,1.5879756 z"
     id="path2"
     style="stroke-width:1.05865" />
</svg>
