<?xml version="1.0" encoding="UTF-8" standalone="no"?>
<!-- Generator: Adobe Illustrator 19.0.0, SVG Export Plug-In . SVG Version: 6.00 Build 0)  -->

<svg
   version="1.1"
   id="Layer_1"
   x="0px"
   y="0px"
   viewBox="0 0 260 512"
   xml:space="preserve"
   sodipodi:docname="approximately_equal@b.svg"
   width="260"
   height="512"
   inkscape:version="1.1.1 (3bf5ae0d25, 2021-09-20)"
   xmlns:inkscape="http://www.inkscape.org/namespaces/inkscape"
   xmlns:sodipodi="http://sodipodi.sourceforge.net/DTD/sodipodi-0.dtd"
   xmlns="http://www.w3.org/2000/svg"
   xmlns:svg="http://www.w3.org/2000/svg"><defs
   id="defs53" /><sodipodi:namedview
   id="namedview51"
   pagecolor="#ffffff"
   bordercolor="#666666"
   borderopacity="1.0"
   inkscape:pageshadow="2"
   inkscape:pageopacity="0.0"
   inkscape:pagecheckerboard="0"
   showgrid="false"
   inkscape:zoom="0.66601563"
   inkscape:cx="433.17302"
   inkscape:cy="410.65103"
   inkscape:window-width="1522"
   inkscape:window-height="871"
   inkscape:window-x="69"
   inkscape:window-y="-9"
   inkscape:window-maximized="1"
   inkscape:current-layer="Layer_1" />
<g
   id="g6"
   transform="translate(-123.12023)">
	<g
   id="g4">
		
	</g>
</g>
<g
   id="g12"
   transform="matrix(0.81018635,0,0,3.2001673,-74.528312,-485.1346)">
	<g
   id="g10">
		<path
   d="m 406.292,200.337 c 0.001,-9.224 -7.476,-16.7 -16.698,-16.7 -3.256,0 -6.553,0.997 -9.263,2.804 -17.432,11.619 -37.463,17.416 -57.535,17.42 -20.07,-0.003 -40.103,-5.801 -57.534,-17.42 -0.003,-0.002 -0.008,-0.004 -0.012,-0.007 -23.015,-15.342 -49.551,-23.026 -76.049,-23.022 -26.502,-0.003 -53.042,7.682 -76.061,23.029 l 0.001,0.002 c -4.483,2.995 -7.437,8.097 -7.437,13.893 0,9.222 7.477,16.699 16.699,16.699 3.256,0 6.554,-0.999 9.264,-2.805 17.431,-11.619 37.463,-17.416 57.533,-17.42 20.07,0.003 40.103,5.801 57.534,17.42 23.018,15.347 49.558,23.033 76.06,23.029 26.502,0.003 53.042,-7.683 76.06,-23.029 l -10e-4,-10e-4 c 4.485,-2.994 7.439,-8.096 7.439,-13.892 z"
   id="path8" />
	</g>
</g>
<g
   id="g18"
   transform="matrix(0.81018635,0,0,3.2001673,-74.528312,-602.24896)">
	<g
   id="g16">
		<path
   d="m 406.292,300.718 c 0.001,-9.225 -7.476,-16.7 -16.698,-16.7 -3.256,0 -6.553,0.997 -9.263,2.804 -17.432,11.619 -37.463,17.416 -57.535,17.42 -20.07,-0.003 -40.103,-5.801 -57.534,-17.42 -0.003,-0.002 -0.008,-0.004 -0.012,-0.007 -23.015,-15.342 -49.551,-23.026 -76.049,-23.022 -26.502,-0.003 -53.042,7.683 -76.06,23.029 l 10e-4,0.002 c -4.483,2.995 -7.438,8.097 -7.438,13.893 0,9.222 7.477,16.699 16.699,16.699 3.256,0 6.553,-0.999 9.264,-2.804 17.432,-11.619 37.463,-17.417 57.533,-17.421 20.07,0.003 40.103,5.801 57.534,17.42 23.018,15.347 49.558,23.033 76.06,23.029 26.502,0.003 53.042,-7.683 76.06,-23.029 l -10e-4,-10e-4 c 4.485,-2.994 7.439,-8.096 7.439,-13.892 z"
   id="path14" />
	</g>
</g>
<g
   id="g20"
   transform="translate(-123.12023)">
</g>
<g
   id="g22"
   transform="translate(-123.12023)">
</g>
<g
   id="g24"
   transform="translate(-123.12023)">
</g>
<g
   id="g26"
   transform="translate(-123.12023)">
</g>
<g
   id="g28"
   transform="translate(-123.12023)">
</g>
<g
   id="g30"
   transform="translate(-123.12023)">
</g>
<g
   id="g32"
   transform="translate(-123.12023)">
</g>
<g
   id="g34"
   transform="translate(-123.12023)">
</g>
<g
   id="g36"
   transform="translate(-123.12023)">
</g>
<g
   id="g38"
   transform="translate(-123.12023)">
</g>
<g
   id="g40"
   transform="translate(-123.12023)">
</g>
<g
   id="g42"
   transform="translate(-123.12023)">
</g>
<g
   id="g44"
   transform="translate(-123.12023)">
</g>
<g
   id="g46"
   transform="translate(-123.12023)">
</g>
<g
   id="g48"
   transform="translate(-123.12023)">
</g>
</svg>
