<?xml version="1.0" encoding="UTF-8" standalone="no"?>
<!-- Created with Inkscape (http://www.inkscape.org/) -->

<svg
   width="210mm"
   height="210mm"
   viewBox="0 0 210 210"
   version="1.1"
   id="svg126"
   inkscape:version="1.1.1 (3bf5ae0d25, 2021-09-20)"
   sodipodi:docname="colon@b.svg"
   xmlns:inkscape="http://www.inkscape.org/namespaces/inkscape"
   xmlns:sodipodi="http://sodipodi.sourceforge.net/DTD/sodipodi-0.dtd"
   xmlns="http://www.w3.org/2000/svg"
   xmlns:svg="http://www.w3.org/2000/svg">
  <sodipodi:namedview
     id="namedview128"
     pagecolor="#ffffff"
     bordercolor="#666666"
     borderopacity="1.0"
     inkscape:pageshadow="2"
     inkscape:pageopacity="0.0"
     inkscape:pagecheckerboard="0"
     inkscape:document-units="mm"
     showgrid="false"
     height="210mm"
     inkscape:zoom="0.77771465"
     inkscape:cx="-52.718565"
     inkscape:cy="252.02046"
     inkscape:window-width="2560"
     inkscape:window-height="1284"
     inkscape:window-x="-11"
     inkscape:window-y="-11"
     inkscape:window-maximized="1"
     inkscape:current-layer="layer1" />
  <defs
     id="defs123" />
  <g
     inkscape:label="Layer 1"
     inkscape:groupmode="layer"
     id="layer1">
    <path
       d="M 91.512504,2.8842459 C 65.190482,10.362093 50.085237,38.030115 57.712638,64.501648 59.806434,71.38128 62.049784,74.97065 68.929401,81.700713 81.043506,93.814821 90.91424,98.60064 104.22484,98.750168 c 8.52471,0.149653 11.96453,-0.598225 18.69459,-3.888467 10.16987,-5.084916 23.48042,-17.797248 27.0698,-26.022879 C 160.45819,45.358397 148.79278,15.74614 124.7141,5.1275705 116.48846,1.3886681 100.33632,0.34174577 91.512504,2.8842459 Z"
       id="path18"
       style="stroke-width:0.149557" />
    <path
       d="m 93.606263,111.46253 c -13.908769,3.43977 -27.967112,15.10523 -33.799829,28.26626 -4.33715,9.72116 -5.084935,23.18129 -1.944238,33.94938 1.944238,7.17876 4.187588,10.469 11.665432,17.94685 12.712336,12.56276 21.087521,16.45123 35.444992,16.45123 13.46012,-0.14966 21.68572,-3.88847 34.09895,-15.55392 13.16099,-12.4132 17.64772,-27.51846 13.16099,-44.86704 -6.5805,-25.87335 -33.05207,-42.17507 -58.626297,-36.19276 z"
       id="path26"
       style="stroke-width:0.149557" />
  </g>
</svg>
