<?xml version="1.0" encoding="UTF-8" standalone="no"?>
<!-- Created with Inkscape (http://www.inkscape.org/) -->

<svg
   width="210mm"
   height="210mm"
   viewBox="0 0 210 210"
   version="1.1"
   id="svg126"
   inkscape:version="1.1.1 (3bf5ae0d25, 2021-09-20)"
   sodipodi:docname="comma@b.svg"
   xmlns:inkscape="http://www.inkscape.org/namespaces/inkscape"
   xmlns:sodipodi="http://sodipodi.sourceforge.net/DTD/sodipodi-0.dtd"
   xmlns="http://www.w3.org/2000/svg"
   xmlns:svg="http://www.w3.org/2000/svg">
  <sodipodi:namedview
     id="namedview128"
     pagecolor="#ffffff"
     bordercolor="#666666"
     borderopacity="1.0"
     inkscape:pageshadow="2"
     inkscape:pageopacity="0.0"
     inkscape:pagecheckerboard="0"
     inkscape:document-units="mm"
     showgrid="false"
     height="210mm"
     inkscape:zoom="1.0999107"
     inkscape:cx="396.85039"
     inkscape:cy="396.39581"
     inkscape:window-width="2560"
     inkscape:window-height="1284"
     inkscape:window-x="-11"
     inkscape:window-y="-11"
     inkscape:window-maximized="1"
     inkscape:current-layer="layer1" />
  <defs
     id="defs123" />
  <g
     inkscape:label="Layer 1"
     inkscape:groupmode="layer"
     id="layer1">
    <path
       d="m 94.306311,67.783054 c -9.431297,3.523781 -16.0643,9.845862 -20.417208,19.173524 -2.176455,4.974753 -2.487377,6.633003 -2.072814,14.509692 0.310921,7.04756 1.036407,10.15679 3.109222,14.19878 3.52378,6.94393 10.260424,12.95509 17.826197,15.96064 l 6.011154,2.48739 -0.518209,4.66383 c -0.310912,2.7983 -2.901941,9.32766 -6.425715,16.37523 l -5.907522,11.7114 1.865539,3.93836 c 2.280092,4.56018 9.120376,8.60216 14.716975,8.60216 9.43131,0 18.96623,-9.84587 30.36672,-31.50675 7.35848,-13.99149 10.36407,-37.51794 6.52936,-51.923997 -2.90194,-11.400475 -9.94951,-20.831773 -19.27717,-25.910166 -4.45653,-2.487376 -6.94392,-3.00558 -13.7842,-3.316501 -5.18204,-0.207265 -9.638606,0.207294 -12.022329,1.036408 z"
       id="path22"
       style="stroke-width:0.103641" />
  </g>
</svg>
