<?xml version="1.0" standalone="no"?>
<!DOCTYPE svg PUBLIC "-//W3C//DTD SVG 20010904//EN"
 "http://www.w3.org/TR/2001/REC-SVG-20010904/DTD/svg10.dtd">
<svg version="1.0" xmlns="http://www.w3.org/2000/svg"
 width="1202.000000pt" height="1280.000000pt" viewBox="0 0 1202.000000 1280.000000"
 preserveAspectRatio="xMidYMid meet">
<metadata>
Created by potrace 1.15, written by Peter Selinger 2001-2017
</metadata>
<g transform="translate(0.000000,1280.000000) scale(0.100000,-0.100000)"
fill="#000000" stroke="none">
<path d="M4392 11568 c-102 -15 -195 -86 -242 -183 -34 -70 -35 -197 -2 -270
69 -153 253 -232 405 -175 42 16 77 40 127 88 59 57 71 76 86 126 68 239 -125
452 -374 414z"/>
<path d="M9810 11528 c-100 -49 -210 -199 -245 -334 -8 -32 -15 -95 -15 -140
0 -139 41 -230 127 -281 40 -24 59 -28 118 -28 100 1 166 38 207 119 28 56 22
158 -12 210 -26 39 -103 96 -129 96 -9 0 -22 4 -30 9 -27 18 31 92 116 147 82
52 96 133 33 195 -23 24 -37 29 -77 29 -29 0 -66 -9 -93 -22z"/>
<path d="M7993 11474 c-72 -35 -164 -137 -206 -226 -48 -102 -60 -163 -55
-277 5 -106 30 -171 85 -223 99 -94 285 -72 356 44 72 116 7 281 -125 319 -24
7 -45 14 -47 15 -2 2 9 23 23 48 17 28 49 61 84 85 73 49 83 61 89 109 10 73
-44 132 -120 132 -18 0 -56 -12 -84 -26z"/>
<path d="M8554 11475 c-105 -52 -208 -186 -248 -324 -21 -71 -21 -221 0 -290
46 -157 230 -227 361 -139 116 79 126 253 20 343 -23 20 -59 41 -82 47 -22 6
-42 13 -44 14 -2 2 9 23 23 48 17 28 49 61 84 85 74 50 84 62 89 114 11 108
-90 159 -203 102z"/>
<path d="M514 11452 c-100 -35 -171 -119 -204 -241 -16 -61 -14 -222 5 -311
48 -229 180 -492 269 -534 42 -20 70 -11 118 36 145 146 265 493 244 707 -26
265 -218 417 -432 343z"/>
<path d="M10852 10865 l-262 -525 233 0 234 0 117 298 c65 163 121 301 125
305 4 4 61 -129 127 -295 l120 -303 232 -3 232 -2 -262 525 -263 525 -185 0
-185 0 -263 -525z"/>
<path d="M6550 11368 c0 -17 37 -264 46 -306 l7 -33 -59 34 c-61 36 -235 117
-250 117 -15 0 -104 -271 -91 -275 12 -4 318 -55 330 -55 4 0 -12 -17 -35 -37
-69 -59 -208 -197 -208 -205 0 -9 226 -178 238 -178 8 0 109 182 141 255 l22
50 48 -95 c57 -116 110 -210 118 -210 4 0 57 38 120 85 133 101 135 77 -18
231 l-100 101 63 6 c58 6 268 46 277 53 8 7 -83 274 -93 274 -7 0 -81 -34
-165 -75 -102 -50 -151 -70 -147 -59 8 21 33 180 42 267 l6 67 -146 0 c-110 0
-146 -3 -146 -12z"/>
<path d="M1750 11157 c-176 -50 -277 -235 -226 -412 14 -46 29 -70 75 -115 81
-81 147 -113 236 -114 57 -1 80 4 125 26 68 34 157 119 181 174 70 157 -8 355
-169 426 -55 25 -163 32 -222 15z"/>
<path d="M4330 10844 c-95 -30 -186 -124 -211 -219 -6 -22 -9 -74 -7 -115 8
-127 73 -222 190 -275 31 -14 61 -32 67 -39 16 -19 -5 -81 -67 -198 -44 -86
-50 -102 -42 -129 27 -94 151 -129 241 -69 48 31 75 66 158 198 175 280 163
635 -26 791 -79 65 -201 88 -303 55z"/>
<path d="M3039 10727 c-91 -34 -155 -95 -197 -185 -21 -48 -24 -64 -20 -140 3
-68 10 -98 30 -137 34 -67 99 -125 172 -154 l58 -24 -5 -45 c-3 -27 -28 -90
-62 -158 l-57 -113 18 -38 c22 -44 88 -83 142 -83 91 0 183 95 293 304 71 135
100 362 63 501 -28 110 -96 201 -186 250 -43 24 -67 29 -133 32 -50 2 -93 -2
-116 -10z"/>
<path d="M5677 10519 c-99 -23 -188 -95 -229 -184 -17 -39 -22 -68 -22 -135 0
-103 17 -141 96 -218 75 -74 141 -105 227 -106 87 0 153 31 238 114 51 50 66
72 79 118 36 122 0 247 -97 336 -85 79 -176 102 -292 75z"/>
<path d="M1764 10431 c-93 -23 -187 -101 -226 -189 -29 -65 -34 -155 -13 -227
13 -48 28 -70 78 -120 85 -84 141 -110 237 -110 90 1 145 26 228 104 88 83
118 184 88 300 -44 173 -221 282 -392 242z"/>
<path d="M505 10246 c-71 -33 -129 -88 -159 -148 -36 -71 -37 -180 -2 -253 27
-59 85 -119 141 -148 56 -28 167 -35 233 -13 67 22 144 92 177 160 34 70 37
175 5 240 -26 54 -115 140 -172 166 -62 28 -159 27 -223 -4z"/>
<path d="M8220 7800 l0 -1210 170 0 170 0 0 1210 0 1210 -170 0 -170 0 0
-1210z"/>
<path d="M3905 8780 c-246 -25 -443 -116 -605 -280 -380 -383 -440 -1055 -136
-1513 201 -302 566 -464 964 -426 190 17 368 76 535 176 81 48 277 226 277
251 0 9 -32 12 -127 12 l-127 0 -73 -51 c-154 -106 -325 -170 -508 -189 -332
-34 -625 98 -794 359 -144 224 -177 589 -79 891 95 294 316 495 611 556 106
22 293 20 392 -6 193 -49 344 -166 423 -330 66 -134 77 -190 77 -375 -1 -182
-13 -241 -73 -365 -63 -130 -213 -260 -299 -260 -62 0 -63 -14 26 548 45 284
84 527 86 540 5 22 5 22 -124 22 -145 0 -134 6 -147 -83 l-6 -48 -55 60 c-78
87 -143 116 -253 116 -74 -1 -94 -5 -150 -32 -121 -57 -202 -142 -279 -293
-84 -164 -121 -319 -121 -502 0 -231 72 -398 213 -491 142 -94 305 -86 447 22
70 54 80 59 80 36 0 -8 19 -35 43 -59 63 -66 126 -79 245 -51 78 19 178 69
261 131 354 266 425 888 147 1279 -92 129 -234 238 -386 298 -127 49 -326 73
-485 57z m130 -645 c21 -15 47 -49 59 -74 62 -136 -19 -631 -128 -774 -48 -64
-98 -89 -169 -84 -49 3 -62 8 -91 36 -80 77 -103 223 -72 439 49 334 156 501
313 489 37 -2 62 -11 88 -32z"/>
<path d="M10740 8675 c-135 -56 -443 -185 -685 -285 -242 -100 -459 -190 -482
-200 l-43 -19 0 -195 c0 -108 2 -196 4 -196 1 0 328 -135 726 -300 398 -165
727 -300 731 -300 5 0 9 103 9 228 l0 229 -412 158 c-227 87 -424 164 -438
171 l-24 12 34 14 c19 8 216 84 437 169 l403 154 0 233 c0 127 -3 232 -7 231
-5 0 -118 -47 -253 -104z"/>
<path d="M1055 8689 c-207 -28 -353 -116 -424 -256 -84 -167 -59 -352 74 -532
25 -34 45 -65 45 -70 0 -4 -23 -18 -51 -30 -79 -33 -213 -126 -263 -183 -120
-137 -163 -308 -118 -469 52 -185 204 -321 427 -380 64 -17 118 -23 267 -26
305 -8 490 32 699 152 l47 27 96 -62 c128 -81 195 -120 206 -120 5 0 72 72
149 161 l140 161 -142 95 c-78 52 -143 96 -144 97 -1 1 21 45 48 99 54 109 96
234 83 247 -9 7 -372 90 -398 90 -7 0 -19 -19 -26 -42 -7 -24 -21 -60 -32 -81
l-19 -38 -62 52 c-91 76 -207 186 -207 196 1 4 43 37 95 72 125 84 188 148
231 236 130 262 -19 524 -336 590 -93 20 -293 27 -385 14z m263 -303 c62 -32
89 -93 71 -160 -12 -45 -111 -151 -168 -181 l-35 -17 -38 43 c-48 57 -98 149
-98 184 0 41 37 100 79 123 43 26 147 30 189 8z m-212 -927 c54 -50 148 -132
207 -182 l108 -91 -38 -23 c-89 -54 -217 -88 -303 -80 -104 9 -203 73 -236
153 -20 48 -18 128 6 173 20 40 125 141 145 141 7 0 56 -41 111 -91z"/>
<path d="M7151 8193 c-68 -280 -175 -719 -237 -977 -63 -257 -114 -472 -114
-477 0 -6 59 -8 136 -7 l137 3 58 240 c122 500 410 1681 416 1703 l5 22 -139
0 -139 0 -123 -507z"/>
<path d="M5570 8671 c0 -11 59 -254 319 -1325 83 -340 151 -620 151 -622 0 -2
61 -4 135 -4 101 0 135 3 135 13 0 6 -79 341 -176 742 -97 402 -202 836 -233
965 l-57 235 -137 3 c-86 2 -137 -1 -137 -7z"/>
<path d="M10250 5442 l0 -230 88 -34 c48 -18 246 -94 439 -168 194 -74 352
-137 352 -140 0 -3 -158 -65 -352 -139 -194 -74 -391 -150 -439 -169 l-88 -34
0 -229 c0 -126 3 -229 8 -229 4 0 336 137 737 303 l730 302 3 195 2 195 -722
299 c-397 164 -730 301 -740 304 -17 4 -18 -8 -18 -226z"/>
<path d="M8780 5285 l0 -245 -247 -2 -248 -3 0 -210 0 -210 248 -3 247 -2 0
-245 0 -245 210 0 210 0 0 245 0 245 250 0 250 0 0 215 0 215 -250 0 -250 0 0
245 0 245 -210 0 -210 0 0 -245z"/>
<path d="M6455 5460 c-245 -39 -426 -177 -504 -385 -20 -53 -56 -213 -50 -220
3 -2 484 -65 502 -65 3 0 8 19 12 43 25 149 101 227 220 227 87 0 147 -44 161
-117 12 -64 -20 -108 -173 -240 -76 -66 -155 -138 -175 -161 -77 -85 -118
-203 -118 -339 l0 -63 250 0 250 0 0 33 c0 53 25 123 60 167 18 22 78 78 134
124 231 191 298 290 305 450 6 158 -43 274 -162 383 -76 69 -144 106 -252 138
-77 23 -112 28 -245 31 -85 1 -182 -1 -215 -6z"/>
<path d="M3022 4233 l3 -1208 400 0 400 0 0 205 0 205 -157 3 -158 3 0 794 0
795 160 0 160 0 0 205 0 205 -405 0 -405 0 2 -1207z"/>
<path d="M4382 5233 l3 -208 158 -3 157 -3 -2 -792 -3 -792 -157 -3 -158 -3 0
-204 0 -205 400 0 400 0 0 1210 0 1210 -400 0 -400 0 2 -207z"/>
<path d="M685 5416 c-55 -75 -192 -289 -228 -356 -102 -189 -183 -439 -207
-640 -15 -122 -12 -380 5 -492 46 -308 151 -558 371 -887 l67 -101 168 0 c93
0 169 2 169 5 0 3 -13 32 -29 63 -119 235 -218 561 -262 857 -21 136 -18 500
5 650 36 239 117 511 235 790 27 63 46 117 43 120 -3 3 -78 5 -166 5 -125 0
-163 -3 -171 -14z"/>
<path d="M1680 5425 c0 -3 25 -65 56 -138 151 -357 226 -661 243 -976 23 -441
-58 -836 -263 -1285 -20 -43 -36 -80 -36 -82 0 -2 75 -4 168 -4 l167 0 77 118
c251 386 353 671 374 1055 12 203 -28 476 -98 676 -59 169 -195 420 -316 584
l-43 57 -164 0 c-91 0 -165 -2 -165 -5z"/>
<path d="M6310 3775 l0 -235 268 2 267 3 3 233 2 232 -270 0 -270 0 0 -235z"/>
<path d="M8660 3125 l0 -205 385 0 385 0 0 205 0 205 -385 0 -385 0 0 -205z"/>
<path d="M10280 2390 c-143 -23 -293 -90 -373 -168 -57 -56 -97 -143 -97 -212
0 -92 24 -146 99 -221 73 -73 165 -123 286 -155 99 -27 341 -27 440 0 167 44
309 143 360 251 55 116 20 253 -87 350 -59 53 -184 116 -278 139 -77 20 -273
29 -350 16z"/>
<path d="M8314 1963 l-79 -218 -330 -5 -330 -5 0 -260 0 -260 231 -5 231 -5
-40 -112 -39 -113 -192 -2 -191 -3 0 -260 0 -260 93 -3 c50 -1 92 -5 92 -7 0
-2 -21 -61 -46 -131 -25 -69 -44 -127 -42 -128 17 -14 483 -175 488 -169 4 5
33 80 65 168 32 88 66 184 77 213 l19 52 330 0 329 0 0 265 0 265 -230 0
c-178 0 -230 3 -229 13 0 6 17 57 37 112 l37 100 193 3 192 2 -2 263 -3 262
-91 5 -92 5 44 119 c24 66 44 124 44 130 0 8 -285 118 -476 183 -6 2 -45 -91
-90 -214z"/>
<path d="M3820 2074 c-275 -99 -295 -472 -31 -601 47 -23 69 -28 136 -28 67 0
89 5 136 28 66 32 132 99 162 165 33 71 31 188 -4 263 -54 114 -153 180 -279
186 -52 2 -89 -2 -120 -13z"/>
<path d="M1428 1683 l-3 -328 -297 -3 -298 -2 0 -285 0 -285 298 -2 297 -3 3
-323 2 -322 285 0 285 0 0 325 0 325 300 0 300 0 0 285 0 285 -297 2 -298 3
-3 328 -2 327 -285 0 -285 0 -2 -327z"/>
<path d="M5260 1605 c0 -3 0 -132 0 -287 l-1 -283 881 -3 880 -2 0 290 0 290
-880 0 c-484 0 -880 -2 -880 -5z"/>
<path d="M9520 1255 l0 -325 885 0 885 0 0 325 0 325 -885 0 -885 0 0 -325z"/>
<path d="M3040 1055 l0 -325 885 0 885 0 0 325 0 325 -885 0 -885 0 0 -325z"/>
<path d="M10348 890 c-143 -24 -286 -96 -366 -184 -190 -207 -50 -474 297
-568 60 -17 107 -21 221 -22 168 -1 238 14 366 74 105 51 175 114 215 195 28
57 31 71 27 132 -5 78 -24 124 -79 187 -75 85 -209 154 -356 182 -79 15 -247
17 -325 4z"/>
<path d="M5260 765 c0 -3 0 -132 0 -287 l-1 -283 881 -3 880 -2 0 290 0 290
-880 0 c-484 0 -880 -2 -880 -5z"/>
<path d="M3824 650 c-79 -26 -153 -91 -191 -168 -24 -49 -28 -69 -28 -142 0
-103 24 -160 97 -232 60 -59 135 -88 223 -88 125 0 226 61 285 172 31 57 34
71 35 148 0 73 -4 93 -28 142 -72 146 -240 218 -393 168z"/>
</g>
</svg>
