<?xml version="1.0" ?><!DOCTYPE svg  PUBLIC '-//W3C//DTD SVG 1.1//EN'  'http://www.w3.org/Graphics/SVG/1.1/DTD/svg11.dtd'><svg enable-background="new 0 0 128 128" height="128px" id="Layer_1" version="1.1" viewBox="0 0 128 128" width="128px" xml:space="preserve" xmlns="http://www.w3.org/2000/svg" xmlns:xlink="http://www.w3.org/1999/xlink"><g><path d="M36.496,77.5c-0.002-0.004-0.007-0.008-0.012-0.01c-2.164-2.154-5.15-3.486-8.447-3.49h-8.075   c-3.167,0.002-6.039,1.241-8.178,3.244c-0.095,0.088-0.195,0.17-0.287,0.26c-0.024,0.025-0.047,0.055-0.071,0.08   C9.309,79.744,8,82.707,8,85.976v8.049c0,3.219,1.272,6.136,3.332,8.288c0.059,0.061,0.11,0.126,0.169,0.186   c0.034,0.033,0.07,0.063,0.104,0.095c2.157,2.104,5.104,3.405,8.358,3.407h8.075c3.167-0.002,6.039-1.241,8.179-3.244   c0.094-0.088,0.194-0.17,0.285-0.26c0.024-0.025,0.047-0.055,0.071-0.08c2.118-2.16,3.426-5.123,3.426-8.392v-8.049   c0-3.183-1.243-6.065-3.26-8.21C36.656,77.679,36.583,77.585,36.496,77.5z" fill="#232323"/><path d="M116.496,77.5c-0.002-0.004-0.008-0.008-0.012-0.01c-2.164-2.154-5.15-3.486-8.447-3.49h-8.075   c-3.167,0.002-6.039,1.241-8.178,3.244c-0.095,0.088-0.195,0.17-0.286,0.26c-0.025,0.025-0.047,0.055-0.072,0.08   C89.309,79.744,88,82.707,88,85.976v8.049c0,3.219,1.272,6.136,3.332,8.288c0.059,0.061,0.109,0.126,0.168,0.186   c0.034,0.033,0.07,0.063,0.105,0.095c2.156,2.104,5.104,3.405,8.357,3.407h8.076c3.166-0.002,6.038-1.241,8.179-3.244   c0.094-0.088,0.194-0.17,0.285-0.26c0.024-0.025,0.047-0.055,0.071-0.08c2.117-2.16,3.426-5.123,3.426-8.392v-8.049   c0-3.183-1.243-6.065-3.26-8.21C116.656,77.679,116.582,77.585,116.496,77.5z" fill="#232323"/><path d="M76.496,77.5c-0.002-0.004-0.008-0.008-0.012-0.01c-2.164-2.154-5.15-3.486-8.447-3.49h-8.075   c-3.167,0.002-6.039,1.241-8.178,3.244c-0.095,0.088-0.195,0.17-0.287,0.26c-0.024,0.025-0.047,0.055-0.071,0.08   C49.309,79.744,48,82.707,48,85.976v8.049c0,3.219,1.272,6.136,3.332,8.288c0.059,0.061,0.11,0.126,0.169,0.186   c0.034,0.033,0.07,0.063,0.104,0.095c2.157,2.104,5.104,3.405,8.358,3.407h8.076c3.166-0.002,6.038-1.241,8.179-3.244   c0.094-0.088,0.194-0.17,0.285-0.26c0.024-0.025,0.047-0.055,0.071-0.08c2.117-2.16,3.426-5.123,3.426-8.392v-8.049   c0-3.183-1.243-6.065-3.26-8.21C76.656,77.679,76.582,77.585,76.496,77.5z" fill="#232323"/></g></svg>