<?xml version="1.0" encoding="UTF-8" standalone="no"?>
<!-- Created with Inkscape (http://www.inkscape.org/) -->

<svg
   width="107.74702mm"
   height="163.71274mm"
   viewBox="0 0 107.74702 163.71274"
   version="1.1"
   id="svg126"
   inkscape:version="1.1.1 (3bf5ae0d25, 2021-09-20)"
   sodipodi:docname="branching.svg"
   xmlns:inkscape="http://www.inkscape.org/namespaces/inkscape"
   xmlns:sodipodi="http://sodipodi.sourceforge.net/DTD/sodipodi-0.dtd"
   xmlns="http://www.w3.org/2000/svg"
   xmlns:svg="http://www.w3.org/2000/svg">
  <sodipodi:namedview
     id="namedview128"
     pagecolor="#ffffff"
     bordercolor="#666666"
     borderopacity="1.0"
     inkscape:pageshadow="2"
     inkscape:pageopacity="0.0"
     inkscape:pagecheckerboard="0"
     inkscape:document-units="mm"
     showgrid="false"
     height="210mm"
     inkscape:lockguides="true"
     fit-margin-left="5"
     fit-margin-right="5"
     fit-margin-top="0"
     fit-margin-bottom="0"
     inkscape:zoom="1.0999107"
     inkscape:cx="-59.095706"
     inkscape:cy="434.58073"
     inkscape:window-width="2560"
     inkscape:window-height="1284"
     inkscape:window-x="-11"
     inkscape:window-y="-11"
     inkscape:window-maximized="1"
     inkscape:current-layer="layer1" />
  <defs
     id="defs123" />
  <g
     inkscape:label="Layer 1"
     inkscape:groupmode="layer"
     id="layer1"
     transform="translate(-31.81945,-3.4158286)">
    <path
       style="fill:#000000;stroke-width:0.264583"
       id="path4015"
       d="m 38.998548,86.114918 c 0.615469,2.31816 1.139222,4.654923 1.520259,7.023206 0.133485,1.331706 0.245496,2.688796 7.94e-4,4.012803 -0.204317,1.073835 -0.452602,2.138124 -0.66497,3.210693 -0.293057,1.32492 -0.555093,2.66675 -0.615127,4.02494 0.04865,0.15075 0.06904,0.31375 0.145939,0.45223 0.576501,1.0381 2.520524,0.81055 3.466873,0.77308 2.524773,-0.21846 5.025784,-0.69871 7.553851,-0.88252 0.467826,-0.034 0.93749,-0.0345 1.406234,-0.0517 2.009672,0.0359 3.954349,0.50044 5.752949,1.41396 0.714333,0.36281 1.427488,0.7524 2.045242,1.26258 1.880945,1.5534 2.349908,2.74189 3.656844,4.84763 0.525774,1.21639 1.130702,2.40153 1.577324,3.64916 1.151133,3.21568 1.643237,5.93212 2.27145,9.31087 1.052177,5.65899 1.911546,11.35831 2.854759,17.03618 1.07341,5.30165 1.584968,11.34163 5.425229,15.54601 1.563489,1.71173 2.925325,2.29015 4.87046,3.3851 0.737365,0.29304 1.457246,0.63462 2.212097,0.87912 3.786007,1.22633 8.120075,1.01515 12.041978,0.91255 5.490627,-0.12806 10.969507,-0.5431 16.424607,-1.17134 1.23919,-0.10351 2.46329,-0.42936 3.7136,-0.40512 0.28127,0.005 0.66474,-0.0156 0.82204,0.30062 0.10085,0.20274 0.11097,0.43907 0.16645,0.6586 0.19076,1.07264 0.31547,2.15507 0.47275,3.23282 0.025,0.17148 0.11389,1.18232 0.33623,1.41405 0.1189,0.12392 0.3223,0.11875 0.48344,0.17812 1.31803,-0.82134 2.7317,-1.50613 3.9541,-2.46402 0.40036,-0.31373 0.55793,-0.85073 0.82689,-1.28244 0.39227,-0.62965 0.7622,-1.27308 1.15663,-1.90139 1.13885,-1.81415 1.83407,-2.88872 3.16,-4.60462 0.59224,-0.76644 1.22949,-1.49702 1.84424,-2.24552 1.47805,-1.72167 3.01376,-3.39049 4.58713,-5.0248 0.36417,-0.37827 0.73271,-0.75232 1.09575,-1.13168 0.27522,-0.28759 0.60618,-0.53272 0.81897,-0.86913 0.13147,-0.20784 0.12194,-0.47651 0.18291,-0.71477 -0.36518,-0.22959 -0.68828,-0.5466 -1.09553,-0.68877 -0.85219,-0.2975 -3.88331,-0.6713 -4.62076,-0.77295 -2.39094,-0.32957 -4.75671,-0.69815 -7.12739,-1.15082 -3.25705,-0.74102 -3.10503,-0.72728 -6.69082,1.75325 -0.33989,0.23513 -0.0821,1.99914 -0.0458,2.32133 0.21614,1.77379 0.44452,3.54698 0.86812,5.28487 0.035,0.16512 0.12103,0.32736 0.10488,0.49537 -0.0104,0.10802 -0.1191,0.18144 -0.17865,0.27217 0.95523,-0.60684 2.00296,-1.0881 2.86569,-1.8205 0.25484,-0.21635 -0.64684,0.17896 -0.97877,0.21862 -0.88279,0.10546 -2.15646,0.0723 -3.03515,0.0688 -2.31282,-0.0467 -4.6296,-0.14058 -6.92386,-0.4556 -1.11034,-0.15245 -2.74091,-0.45952 -3.83853,-0.65795 -3.83187,-0.72195 -7.583636,-1.81152 -11.304871,-2.964 -1.147193,-0.49503 -1.808109,-0.71007 -2.835277,-1.42468 -1.317273,-0.91644 -2.457469,-2.17901 -3.391183,-3.47384 -0.330171,-0.45786 -0.613876,-0.9475 -0.920814,-1.42125 -0.910108,-1.61601 -1.658215,-3.32908 -2.174129,-5.11305 -0.690639,-2.38815 -1.073507,-4.87518 -1.518671,-7.31608 -1.10781,-5.87395 -1.509424,-11.84636 -1.967725,-17.79692 -0.389654,-4.20122 -0.762375,-8.45742 -2.050153,-12.50133 -0.189283,-0.594397 -0.435351,-1.169193 -0.653026,-1.75379 -0.571029,-1.151732 -0.829043,-1.86132 -1.683649,-2.840197 -1.558581,-1.785223 -4.088929,-3.058424 -6.131166,-4.206467 -1.396159,-0.74131 -2.818588,-1.437317 -4.273267,-2.057014 -0.424355,-0.180774 -1.289415,-0.533458 -1.781035,-0.659262 -0.234476,-0.06 -0.4767,-0.08411 -0.715049,-0.126159 -1.719014,-0.12755 -1.084271,-0.289496 -3.468553,2.164694 -0.186264,0.191725 0.523129,-0.110969 0.786715,-0.155413 0.413245,-0.06968 0.828847,-0.124579 1.243269,-0.18687 0.495879,-0.08705 0.991759,-0.174091 1.487641,-0.261136 2.27068,-0.511053 4.38322,-1.487062 6.354559,-2.713723 1.871572,-1.164582 3.769862,-2.298165 5.53603,-3.617137 1.651688,-1.233482 3.028982,-3.159937 4.296042,-4.739042 0.573143,-0.949698 1.205878,-1.865892 1.719424,-2.849097 2.047013,-3.919101 3.198664,-8.298058 3.840729,-12.65139 0.172765,-1.171385 0.275444,-2.352038 0.413168,-3.528058 0.216477,-3.157871 0.533828,-6.336736 0.413745,-9.50782 -0.03693,-0.975262 -0.144198,-1.94672 -0.23563,-2.918389 -0.02982,-0.316944 -0.601253,-5.585751 -0.638858,-5.933167 -0.151008,-1.644494 -0.479465,-3.289059 0.02755,-4.926309 0.540602,-1.745729 1.995334,-3.552957 3.168581,-4.85267 1.712002,-1.896538 3.075604,-2.955427 5.002183,-4.600022 2.350371,-1.806277 1.948699,-1.551769 4.205444,-3.099738 0.498509,-0.341943 2.077492,-1.209822 1.507733,-1.007805 -0.736616,0.261179 -1.37414,0.750162 -2.020448,1.189596 -0.300704,0.204453 0.647713,-0.331292 0.978895,-0.481429 0.252343,-0.114397 0.513699,-0.207773 0.770548,-0.311659 1.660073,-0.527931 3.433778,-0.443417 5.153048,-0.376439 0.23998,0.14301 0.53407,0.220469 0.71993,0.429029 0.49844,0.559334 0.82442,1.770926 1.00514,2.415753 0.45781,1.633527 0.77349,3.308408 1.13146,4.965517 0.12232,0.513731 0.12549,1.851388 1.14607,1.774153 1.23739,-0.09364 5.22592,-2.128258 5.79132,-2.401231 2.78162,-1.342978 4.64337,-2.308233 7.37157,-3.697444 1.82001,-1.129448 3.87369,-1.949031 5.46003,-3.388345 1.7759,-1.611313 -2.08656,-4.740751 -2.87555,-5.527889 -2.36409,-2.358539 -1.97557,-1.988044 -4.2513,-4.446971 -1.90863,-2.057545 -3.71342,-4.2926713 -5.99367,-5.9657828 -1.02316,-0.7507311 -1.72363,-1.1099001 -2.81987,-1.7361305 -0.76435,-0.4196995 -1.57159,-0.8704481 -2.34939,-1.2707545 -0.2884,-0.1484289 -0.55774,-0.3524637 -0.87248,-0.4308277 -0.2189,-0.054502 -0.48631,-0.077814 -0.67522,0.045483 -1.27915,0.8348686 -2.60663,1.6563583 -3.64652,2.7752214 -0.27499,0.295878 -0.0385,0.8069529 -0.0578,1.2104293 0.0511,1.5761316 0.19086,3.1474438 0.32996,4.7176348 0.0387,0.436529 0.0795,0.872862 0.11967,1.309259 0.033,0.358479 0.13314,0.716939 0.0996,1.075368 -0.0252,0.26924 -0.18106,0.50962 -0.27159,0.764431 0.67907,-0.496048 2.20337,-0.663771 2.03721,-1.488143 -0.15096,-0.748968 -1.50113,0.292036 -2.25938,0.385869 -0.93766,0.116037 -1.88264,0.162428 -2.824004,0.243199 -1.03583,0.08888 -2.071901,0.175013 -3.107573,0.265743 -3.810529,0.333818 -2.202418,0.160286 -5.887008,0.655571 -3.229795,0.518478 -6.428314,1.309955 -9.366922,2.780839 -1.498923,0.750268 -6.033889,3.632347 -6.251541,3.766587 -2.169821,1.769861 -3.819181,4.089957 -4.910844,6.664661 -0.275799,0.650475 -0.49431,1.323782 -0.741468,1.985671 -0.823338,2.501043 -1.400879,5.06725 -1.641951,7.691977 -0.302604,3.294653 -0.182605,6.628247 -0.145706,9.930183 0.04523,5.069443 0.273955,10.157793 -0.127664,15.220024 -0.0633,0.797835 -0.16646,1.592008 -0.249693,2.388013 -0.402727,2.772698 -1.088453,5.541343 -2.503202,7.98663 -0.792313,1.369454 -1.10573,1.629227 -2.113031,2.804544 -0.979654,0.934172 -1.251794,1.267555 -2.346375,2.032328 -0.434872,0.303842 -1.774523,1.161555 -1.347735,0.846463 0.524113,-0.386948 2.038599,-0.546918 1.640383,-1.06252 -0.408014,-0.528282 -1.212983,0.55789 -1.82584,0.822397 -0.641937,0.277053 -1.292071,0.534725 -1.938104,0.802087 -3.507465,1.516353 -7.262995,2.141701 -11.025352,2.623846 -1.57698,0.164722 -3.160585,0.403432 -4.744206,0.213474 -1.616041,0.01265 -3.705077,0.802902 -3.873604,2.522591 0,0 3.582334,-1.713051 3.582334,-1.713051 v 0 c 0.843558,-1.562758 -4.508476,2.585649 -2.935517,1.48008 0.315449,0.03323 0.629258,0.08759 0.946142,0.101705 1.326388,0.05907 2.647844,-0.205877 3.963008,-0.319008 2.43681,-0.323032 4.916091,-0.624647 7.294335,-1.267444 1.194713,-0.322908 2.682208,-0.893119 3.835614,-1.312553 0.644851,-0.262096 3.109402,-1.244573 3.757631,-1.58211 1.649003,-0.85865 3.271333,-1.768502 4.882743,-2.695781 1.371338,-0.789136 2.569824,-1.822916 3.639516,-2.98164 0.979021,-1.207749 1.290203,-1.484633 2.054825,-2.878715 1.366393,-2.491245 2.016125,-5.290555 2.396284,-8.083616 0.07519,-0.798763 0.170751,-1.595874 0.225562,-2.396294 0.346134,-5.054796 0.05697,-10.132676 0.02371,-15.191398 -0.01966,-3.296743 -0.112242,-6.627403 0.23391,-9.913252 0.275442,-2.614621 0.888828,-5.172549 1.75445,-7.652081 0.261889,-0.655727 0.495961,-1.323261 0.785674,-1.967177 1.138047,-2.529439 2.80637,-4.793603 5.002512,-6.497433 -0.628849,0.313343 -1.189524,1.028315 -1.886548,0.940029 -0.631865,-0.08003 1.081974,-0.674498 1.645923,-0.970507 2.924003,-1.534773 6.124482,-2.375536 9.366525,-2.917781 0.951238,-0.136186 1.899232,-0.297342 2.853711,-0.408556 1.060153,-0.123528 5.069157,-0.448202 6.121701,-0.52654 0.04771,-0.0036 4.677595,-0.280081 5.030245,-0.427397 1.59647,-0.666908 3.00286,-1.719506 4.50429,-2.579258 0.0616,-0.29449 0.17498,-0.582774 0.18463,-0.883471 0.0114,-0.356046 -0.0829,-0.70762 -0.12219,-1.061678 -0.0478,-0.431447 -0.0962,-0.862861 -0.1391,-1.294823 -0.15444,-1.5533437 -0.29665,-3.1122374 -0.26404,-4.6753349 0.2882,-2.2339543 0.47932,-1.166518 -2.87208,0.1356683 -0.19235,0.074737 0.3385,-0.3104076 0.54428,-0.2949625 0.32442,0.02435 0.59621,0.2609633 0.88911,0.402549 0.70194,0.339304 1.70651,0.8794609 2.37904,1.235116 1.13625,0.6361154 1.7232,0.9235402 2.78657,1.6849132 2.29469,1.6430119 4.19992,3.7723529 6.10456,5.8313439 2.02469,2.195647 2.14312,2.352256 4.21462,4.487056 0.5232,0.539191 2.63568,2.437591 2.89261,3.441657 0.12566,0.491057 -0.4492,1.014791 -0.28379,1.493923 0.0826,0.239236 0.49212,-0.118474 0.73818,-0.177711 -3.54758,1.819353 -7.09282,3.584312 -10.71164,5.25844 -0.86317,0.399319 -2.21346,1.35837 -2.67939,0.714068 -0.24953,-0.345057 -0.21551,-0.823934 -0.32327,-1.235901 -0.38299,-1.662041 -0.69868,-3.348737 -1.14202,-4.995923 -0.20721,-0.769855 -0.54217,-2.018636 -1.08355,-2.676948 -0.21901,-0.266309 -0.5614,-0.400463 -0.8421,-0.600694 -1.74287,-0.0771 -3.53275,-0.19442 -5.23875,0.238922 -4.375426,1.653513 -8.216316,4.630594 -11.874461,7.485252 -1.881172,1.636588 -3.318047,2.782268 -4.984057,4.669017 -1.267629,1.43559 -2.633202,3.179008 -3.168803,5.081982 -0.457941,1.627039 -0.106919,3.347087 0.06585,4.965501 0.322186,2.928086 0.73102,5.874798 0.845143,8.821013 0.121843,3.145525 -0.105746,6.301853 -0.362585,9.433517 -0.148407,1.173152 -0.2633,2.351032 -0.44522,3.519459 -0.672123,4.316949 -1.815626,8.662381 -3.897952,12.530788 -0.522574,0.970798 -1.16477,1.872287 -1.747155,2.80843 -0.684588,0.830239 -1.319366,1.704195 -2.053767,2.490716 -0.720575,0.771716 -1.676731,1.324716 -2.302725,2.174957 -0.146978,0.199631 0.935929,-0.208761 0.741696,-0.05472 -0.708668,0.562028 -1.551855,0.932992 -2.360366,1.338447 -1.689648,0.847334 -2.10008,0.891808 -3.805804,1.388703 -1.719718,0.301178 -1.07918,0.2134 -2.663894,0.406257 -0.260903,0.03175 -0.555881,-0.04086 -0.783209,0.09105 -1.258731,0.730409 -2.435987,1.595548 -3.608631,2.45741 -0.199953,0.14696 1.686576,-0.07537 0.742794,0.0498 0.230003,0.02349 0.462979,0.02678 0.690007,0.07049 0.530559,0.102166 1.34108,0.400304 1.809181,0.585449 1.470171,0.581488 2.893521,1.276403 4.301017,1.993739 1.959059,1.08069 4.516942,2.388666 6.013733,4.078782 0.816173,0.921594 1.104484,1.657932 1.659509,2.743221 0.219506,0.570373 0.467299,1.130643 0.658516,1.711103 1.316961,3.99781 1.728237,8.22244 2.108938,12.38917 0.467056,5.96587 0.880621,11.95125 1.952498,17.84678 0.438571,2.46639 0.800219,4.98432 1.478672,7.40065 0.511016,1.82001 1.267602,3.56473 2.191178,5.21102 0.312211,0.48545 0.600789,0.98694 0.93663,1.45636 0.950791,1.32894 2.118276,2.64491 3.455665,3.59844 1.03119,0.73521 1.746327,0.97838 2.901778,1.48819 3.747254,1.12068 7.502903,2.25544 11.349714,2.9858 0.93336,0.17268 2.89839,0.54586 3.84561,0.68319 2.28985,0.33199 4.60511,0.46401 6.91651,0.51056 0.87471,0.0132 2.13775,0.043 3.02073,0.0149 0.34218,-0.0109 0.71854,0.0827 1.02463,-0.0707 1.32477,-0.66373 2.58258,-1.46606 3.78123,-2.33716 0.12558,-0.0913 0.0774,-0.30564 0.0686,-0.46062 -0.01,-0.16953 -0.0819,-0.32958 -0.12289,-0.49436 -0.4417,-1.71229 -0.68556,-3.46265 -0.86188,-5.2208 -0.0286,-0.38342 -0.12656,-1.10379 -0.009,-1.51348 0.0455,-0.15882 0.4094,-0.48729 0.25687,-0.42383 -5.46432,2.2733 -3.15178,1.3243 -1.75637,1.4807 0.57594,0.0646 1.13697,0.22539 1.70545,0.33809 1.94786,0.35467 2.56524,0.48229 4.583,0.78257 2.60325,0.38742 5.25967,0.59136 7.79015,1.35519 -0.0669,0.17676 -0.0911,0.37634 -0.20082,0.53026 -0.223,0.31293 -0.51863,0.56715 -0.78115,0.84775 -0.35057,0.37472 -0.70649,0.7444 -1.05809,1.11816 -1.53386,1.63057 -3.0282,3.29633 -4.47316,5.00669 -0.61141,0.75461 -1.24344,1.49297 -1.83422,2.26383 -1.42004,1.85285 -1.96495,2.73167 -3.21939,4.65794 -0.41498,0.63722 -0.80667,1.28986 -1.23736,1.91657 -0.29423,0.42813 -1.45401,1.28603 -0.93606,1.24603 1.05103,-0.0812 1.89277,-0.92868 2.83915,-1.39303 -0.0732,0.0883 -0.11422,0.30977 -0.21975,0.26481 -0.14841,-0.0632 -0.15535,-0.28625 -0.19666,-0.44219 -0.0744,-0.28084 -0.10222,-0.57203 -0.14804,-0.85892 -0.1747,-1.09401 -0.28876,-2.19556 -0.46574,-3.28921 -0.14085,-0.4955 -0.14971,-1.03295 -0.67267,-1.30613 -0.18026,-0.0942 -0.40029,-0.0812 -0.60348,-0.0899 -1.29872,-0.0554 -2.56261,0.3418 -3.8454,0.45984 -5.4632,0.71195 -10.96428,1.13682 -16.47297,1.25222 -3.807671,0.0864 -8.22506,0.26789 -11.913129,-0.82685 -0.755729,-0.22432 -1.480603,-0.54186 -2.220902,-0.81279 -1.930148,-1.02492 -3.287432,-1.55825 -4.84614,-3.20624 -3.836067,-4.0558 -4.448058,-10.10825 -5.559666,-15.29008 -1.312312,-7.56983 -0.632258,-3.51794 -1.898515,-11.36549 -1.032724,-6.40023 -1.781585,-12.95995 -4.656997,-18.86333 -1.292635,-2.18742 -1.747991,-3.42035 -3.651057,-5.05158 -0.621157,-0.53243 -1.347417,-0.93475 -2.069044,-1.3202 -1.792232,-0.95732 -3.734887,-1.5117 -5.761683,-1.60438 -0.476192,0.01 -0.953368,-0.003 -1.428578,0.0293 -0.488442,0.033 -0.972928,0.10987 -1.459278,0.1658 -2.016421,0.23189 -4.031112,0.47842 -6.047269,0.71258 -0.68712,0.0363 -2.247839,0.17206 -2.90473,-0.17214 -0.259625,-0.13604 -0.239543,-0.27789 -0.312201,-0.534 0.06528,-1.33861 0.327684,-2.6569 0.625377,-3.961145 0.230974,-1.077241 0.487249,-2.149039 0.674082,-3.235315 0.182367,-1.363069 0.06457,-2.739048 -0.11349,-4.098001 -0.420235,-2.365235 -0.996842,-4.696193 -1.467028,-7.050326 0,0 -3.481387,1.846898 -3.481387,1.846898 z" />
  </g>
</svg>
