<?xml version="1.0" encoding="UTF-8" standalone="no"?>
<!-- Generator: Adobe Illustrator 19.0.0, SVG Export Plug-In . SVG Version: 6.00 Build 0)  -->

<svg
   version="1.1"
   id="Capa_1"
   x="0px"
   y="0px"
   viewBox="0 0 350 512"
   xml:space="preserve"
   sodipodi:docname="arrow_down@b.svg"
   inkscape:version="1.1.1 (3bf5ae0d25, 2021-09-20)"
   width="350"
   height="512"
   xmlns:inkscape="http://www.inkscape.org/namespaces/inkscape"
   xmlns:sodipodi="http://sodipodi.sourceforge.net/DTD/sodipodi-0.dtd"
   xmlns="http://www.w3.org/2000/svg"
   xmlns:svg="http://www.w3.org/2000/svg"><defs
   id="defs47" /><sodipodi:namedview
   id="namedview45"
   pagecolor="#ffffff"
   bordercolor="#666666"
   borderopacity="1.0"
   inkscape:pageshadow="2"
   inkscape:pageopacity="0.0"
   inkscape:pagecheckerboard="0"
   showgrid="false"
   inkscape:zoom="1.3320312"
   inkscape:cx="112.60997"
   inkscape:cy="219.96482"
   inkscape:window-width="2560"
   inkscape:window-height="1284"
   inkscape:window-x="-11"
   inkscape:window-y="-11"
   inkscape:window-maximized="1"
   inkscape:current-layer="Capa_1"
   showguides="true"
   inkscape:guide-bbox="true"
   width="300px"><sodipodi:guide
     position="256,487.05012"
     orientation="-1,0"
     id="guide2940"
     inkscape:label=""
     inkscape:locked="false"
     inkscape:color="rgb(0,0,255)" /></sodipodi:namedview>
<g
   id="g6"
   transform="matrix(1,0,0,-1,-80.328448,512)">
	<g
   id="g4">
		<path
   d="M 407,210.99123 H 332 V 496.9013 c 0,8.29 -6.71,15 -15,15 H 195 c -8.29,0 -15,-6.71 -15,-15 V 210.99123 h -75 c -12.68,0 -19.69,-14.84 -11.52,-24.61 L 256,0 v 0 l 162.51,186.38123 c 8.17,9.77 1.17,24.61 -11.51,24.61 z"
   id="path2"
   sodipodi:nodetypes="scsssscsccccs" />
	</g>
</g>

<g
   id="g14"
   transform="matrix(1,0,0,-1,0,512)">
</g>
<g
   id="g16"
   transform="matrix(1,0,0,-1,0,512)">
</g>
<g
   id="g18"
   transform="matrix(1,0,0,-1,0,512)">
</g>
<g
   id="g20"
   transform="matrix(1,0,0,-1,0,512)">
</g>
<g
   id="g22"
   transform="matrix(1,0,0,-1,0,512)">
</g>
<g
   id="g24"
   transform="matrix(1,0,0,-1,0,512)">
</g>
<g
   id="g26"
   transform="matrix(1,0,0,-1,0,512)">
</g>
<g
   id="g28"
   transform="matrix(1,0,0,-1,0,512)">
</g>
<g
   id="g30"
   transform="matrix(1,0,0,-1,0,512)">
</g>
<g
   id="g32"
   transform="matrix(1,0,0,-1,0,512)">
</g>
<g
   id="g34"
   transform="matrix(1,0,0,-1,0,512)">
</g>
<g
   id="g36"
   transform="matrix(1,0,0,-1,0,512)">
</g>
<g
   id="g38"
   transform="matrix(1,0,0,-1,0,512)">
</g>
<g
   id="g40"
   transform="matrix(1,0,0,-1,0,512)">
</g>
<g
   id="g42"
   transform="matrix(1,0,0,-1,0,512)">
</g>
</svg>
