<?xml version="1.0" ?><svg id="blue_copy" style="enable-background:new 0 0 100 100;" version="1.1" viewBox="0 0 100 100" xml:space="preserve" xmlns="http://www.w3.org/2000/svg" xmlns:xlink="http://www.w3.org/1999/xlink"><g id="Layer_11_copy_2"><path d="M81.671,35.527l-16.722-9.654c-0.674-0.389-1.517,0.097-1.517,0.876v5.963c-6.124-0.454-11.125,0.817-14.866,3.819   c-4.55,3.651-5.638,8.632-6.598,13.025c-0.781,3.574-1.519,6.95-3.896,9.983c-3.381,4.313-9.461,6.904-18.07,7.701   c-1.925,0.178-3.341,1.883-3.163,3.808c0.168,1.815,1.693,3.178,3.481,3.177c0.107,0,0.217-0.005,0.326-0.015   c10.604-0.981,18.319-4.464,22.935-10.352c3.366-4.293,4.354-8.816,5.227-12.808c0.849-3.887,1.52-6.957,4.14-9.061   c2.406-1.931,5.939-2.677,10.486-2.254v6.321c0,0.779,0.843,1.265,1.517,0.876l16.722-9.654   C82.345,36.889,82.345,35.916,81.671,35.527z"/><g><path d="M63.704,39.275c-3.906-0.861-9.315-1.342-12.757,1.714c-1.963,1.743-2.94,3.57-4.14,9.061    c-0.872,3.991-1.86,8.515-5.227,12.808c-4.615,5.888-12.331,9.371-22.935,10.352c-0.109,0.01-0.219,0.015-0.326,0.015    c-0.162,0-0.318-0.023-0.474-0.045c0.639,0.644,1.515,1.045,2.474,1.045c0.107,0,0.217-0.005,0.326-0.015    c10.604-0.981,18.319-4.464,22.935-10.352c3.366-4.293,4.354-8.816,5.227-12.808c0.849-3.887,1.52-6.957,4.14-9.061    c2.04-1.637,4.896-2.413,8.485-2.357C62.19,39.514,62.947,39.395,63.704,39.275z"/><path d="M81.671,35.527L64.95,25.873c-0.162-0.094-0.333-0.134-0.501-0.134l15.222,8.789c0.674,0.389,0.674,1.362,0,1.752    l-16.239,9.375v0.403c0,0.779,0.843,1.265,1.517,0.876l16.721-9.654C82.345,36.889,82.345,35.916,81.671,35.527z"/></g><path d="M81.671,35.527l-16.722-9.654   c-0.674-0.389-1.517,0.097-1.517,0.876v5.963c-6.124-0.454-11.125,0.817-14.866,3.819c-4.55,3.651-5.638,8.632-6.598,13.025   c-0.781,3.574-1.519,6.95-3.896,9.983c-3.381,4.313-9.461,6.904-18.07,7.701c-1.925,0.178-3.341,1.883-3.163,3.808   c0.168,1.815,1.693,3.178,3.481,3.177c0.107,0,0.217-0.005,0.326-0.015c10.604-0.981,18.319-4.464,22.935-10.352   c3.366-4.293,4.354-8.816,5.227-12.808c0.849-3.887,1.52-6.957,4.14-9.061c2.406-1.931,5.939-2.677,10.486-2.254v6.321   c0,0.779,0.843,1.265,1.517,0.876l16.722-9.654C82.345,36.889,82.345,35.916,81.671,35.527z" style="fill:none;stroke:#000000;stroke-miterlimit:10;"/><path d="M81.671,67.345l-16.722,9.654c-0.674,0.389-1.517-0.097-1.517-0.876V70.16c-6.124,0.454-11.125-0.817-14.866-3.819   c-4.55-3.651-5.638-8.632-6.598-13.025c-0.781-3.574-1.519-6.95-3.896-9.983c-3.381-4.313-9.461-6.904-18.07-7.701   c-1.925-0.178-3.341-1.883-3.163-3.808c0.168-1.815,1.693-3.178,3.481-3.177c0.107,0,0.217,0.005,0.326,0.015   c10.604,0.981,18.319,4.464,22.935,10.352c3.366,4.293,4.354,8.816,5.227,12.808c0.849,3.887,1.52,6.957,4.14,9.061   c2.406,1.931,5.939,2.677,10.486,2.254v-6.321c0-0.779,0.843-1.265,1.517-0.876l16.722,9.654   C82.345,65.982,82.345,66.955,81.671,67.345z"/><g><path d="M18.002,34.631c-0.052-0.005-0.098-0.022-0.149-0.029c0.558,0.562,1.298,0.951,2.149,1.029    c4.434,0.411,8.191,1.301,11.26,2.653C27.882,36.361,23.45,35.136,18.002,34.631z"/><path d="M41.581,38.014c3.366,4.293,4.354,8.816,5.227,12.808c0.849,3.887,1.52,6.957,4.14,9.061    c0.779,0.625,1.689,1.113,2.7,1.49c-0.239-0.157-0.48-0.313-0.7-0.49c-2.62-2.104-3.291-5.173-4.14-9.061    c-0.872-3.991-1.86-8.515-5.227-12.808c-2.319-2.958-5.422-5.308-9.279-7.04C37.242,33.576,39.679,35.587,41.581,38.014z"/><path d="M63.919,69.277c-4.193,0.311-10.332-0.324-13.428-1.632c3.013,1.776,9.16,2.763,13.428,2.712    c0.014-0.256,0.018-0.526,0.011-0.808C63.928,69.457,63.924,69.366,63.919,69.277z"/><path d="M81.671,65.593l-16.722-9.654c-0.162-0.094-0.333-0.134-0.501-0.134l15.222,8.789c0.674,0.389,0.674,1.362,0,1.752    L63.432,75.72v0.403c0,0.779,0.843,1.265,1.517,0.876l16.722-9.654C82.345,66.955,82.345,65.982,81.671,65.593z"/></g><path d="M81.671,67.345l-16.722,9.654   c-0.674,0.389-1.517-0.097-1.517-0.876V70.16c-6.124,0.454-11.125-0.817-14.866-3.819c-4.55-3.651-5.638-8.632-6.598-13.025   c-0.781-3.574-1.519-6.95-3.896-9.983c-3.381-4.313-9.461-6.904-18.07-7.701c-1.925-0.178-3.341-1.883-3.163-3.808   c0.168-1.815,1.693-3.178,3.481-3.177c0.107,0,0.217,0.005,0.326,0.015c10.604,0.981,18.319,4.464,22.935,10.352   c3.366,4.293,4.354,8.816,5.227,12.808c0.849,3.887,1.52,6.957,4.14,9.061c2.406,1.931,5.939,2.677,10.486,2.254v-6.321   c0-0.779,0.843-1.265,1.517-0.876l16.722,9.654C82.345,65.982,82.345,66.955,81.671,67.345z" style="fill:none;stroke:#000000;stroke-miterlimit:10;"/></g></svg>