<?xml version="1.0" encoding="UTF-8" standalone="no"?>
<svg
   version="1.1"
   x="0px"
   y="0px"
   viewBox="0 0 25 25"
   enable-background="new 0 0 20 20"
   xml:space="preserve"
   id="svg8"
   sodipodi:docname="both_genders@b.svg"
   width="25"
   height="25"
   inkscape:version="1.1.1 (3bf5ae0d25, 2021-09-20)"
   xmlns:inkscape="http://www.inkscape.org/namespaces/inkscape"
   xmlns:sodipodi="http://sodipodi.sourceforge.net/DTD/sodipodi-0.dtd"
   xmlns="http://www.w3.org/2000/svg"
   xmlns:svg="http://www.w3.org/2000/svg"><defs
     id="defs12" /><sodipodi:namedview
     id="namedview10"
     pagecolor="#ffffff"
     bordercolor="#666666"
     borderopacity="1.0"
     inkscape:pageshadow="2"
     inkscape:pageopacity="0.0"
     inkscape:pagecheckerboard="0"
     showgrid="false"
     width="25px"
     inkscape:zoom="13.64"
     inkscape:cx="19.024927"
     inkscape:cy="12.646628"
     inkscape:window-width="1522"
     inkscape:window-height="871"
     inkscape:window-x="389"
     inkscape:window-y="1071"
     inkscape:window-maximized="1"
     inkscape:current-layer="svg8" /><path
     fill="#000000"
     d="M 16.311096,0.2094112 15.581264,2.7657447 17.62633,3.3496105 13.025697,5.9067122 C 12.185622,4.9756958 11.01693,4.2273295 9.7387642,3.8624134 6.1598969,2.8406478 2.5451139,4.8497991 1.5233483,8.4286665 0.64754958,11.496266 2.0906005,14.672958 4.8479264,16.151348 L 4.0816021,18.835498 1.5252682,18.105667 0.79543585,20.662 3.3517696,21.391831 2.6219372,23.948166 5.1782705,24.677997 5.9081027,22.121665 8.4644359,22.851498 9.1942687,20.295164 6.6379356,19.565331 7.4042595,16.88118 c 3.1222415,0.200225 6.0249575,-1.735752 6.9007575,-4.803352 0.364916,-1.278166 0.346381,-2.6658077 -7.68e-4,-3.8707993 L 18.90488,5.6499271 18.321014,7.694994 20.877348,8.4248264 22.70193,2.0339921 Z M 6.8194337,14.087746 C 4.6465503,13.467389 3.4593243,11.331381 4.079682,9.158499 4.7000397,6.9856152 6.8360481,5.7983893 9.0089311,6.418747 c 2.1728839,0.6203576 3.3601079,2.7563655 2.7397509,4.929249 -0.620358,2.172883 -2.7563642,3.360109 -4.9292483,2.73975 z"
     id="path2"
     style="stroke-width:1.32924" /></svg>
