<?xml version="1.0" encoding="UTF-8" standalone="no"?>
<svg
   version="1.1"
   id="svg2"
   x="0px"
   y="0px"
   viewBox="1582.8676 -62.4635 1679.4772 1679.4772"
   enable-background="new 1582.8676 -62.4635 987.1324 1679.4772"
   xml:space="preserve"
   sodipodi:docname="feminine@b.svg"
   width="1679.4772"
   height="1679.4772"
   inkscape:version="1.1.1 (3bf5ae0d25, 2021-09-20)"
   xmlns:inkscape="http://www.inkscape.org/namespaces/inkscape"
   xmlns:sodipodi="http://sodipodi.sourceforge.net/DTD/sodipodi-0.dtd"
   xmlns="http://www.w3.org/2000/svg"
   xmlns:svg="http://www.w3.org/2000/svg"><defs
   id="defs6" /><sodipodi:namedview
   id="namedview4"
   pagecolor="#ffffff"
   bordercolor="#666666"
   borderopacity="1.0"
   inkscape:pageshadow="2"
   inkscape:pageopacity="0.0"
   inkscape:pagecheckerboard="0"
   showgrid="false"
   height="1679.4772px"
   inkscape:zoom="0.28714104"
   inkscape:cx="1725.6328"
   inkscape:cy="712.19356"
   inkscape:window-width="1522"
   inkscape:window-height="871"
   inkscape:window-x="389"
   inkscape:window-y="1071"
   inkscape:window-maximized="1"
   inkscape:current-layer="svg2" />
<path
   id="path7"
   d="m 2368.3018,1019.983 c 95.6475,60.5133 202.7399,89.185 321.2742,85.2667 153.6846,-4.8301 286.1787,-62.667 393.7536,-171.24917 70.3516,-71.01059 120.0635,-157.25814 147.6498,-256.49219 28.6958,-101.85701 28.5905,-204.70179 -1.0536,-306.28691 -28.5135,-99.72037 -78.6546,-185.87652 -149.6652,-256.22826 -71.3863,-70.724038 -158.0097,-120.8079777 -257.2436,-148.394256 -101.1055,-27.951538 -203.9502,-27.846125 -305.911,1.425664 l -0.748,0.0035 c -99.7168,29.2614964 -185.4975,79.774759 -255.8492,150.785302 -72.213,72.88915 -122.6622,161.38419 -150.2345,263.60986 l -0.3687,1.12361 c -26.445,103.34239 -24.8473,205.43213 5.1548,303.64968 l 0.3794,1.12022 c 17.085,54.89581 38.6265,103.03914 64.6276,145.17801 l -116.1361,117.22373 -295.3137,-292.57395 -186.488,188.23426 295.3138,292.5741 -279.174,281.788 188.2343,186.488 279.1737,-281.7882 294.5625,291.8297 186.4878,-188.2343 -294.5624,-291.8296 116.1362,-117.2237 z m 526.5806,-719.37851 c 38.6989,38.33981 65.4656,84.21505 82.5609,141.35456 l 0.3793,1.12022 c 17.0816,54.1478 17.7046,107.62435 2.2558,163.04576 -16.1866,57.66883 -43.2653,105.2909 -82.3495,144.74115 -62.9072,63.4962 -136.4391,94.13129 -225.8171,94.92188 -88.2579,0.41141 -162.072,-29.53726 -225.5682,-92.44436 -62.7449,-62.16267 -94.1282,-135.69085 -94.5428,-224.69679 -0.039,-88.63365 30.2817,-162.8236 93.1887,-226.3198 39.0845,-39.45033 86.4518,-66.97183 143.9672,-83.69506 55.2751,-15.96484 108.7551,-15.8401 163.0563,-0.0119 58.0479,17.30674 104.5462,44.01672 142.8694,81.98432 z"
   style="stroke-width:1.23164" />
</svg>
