<?xml version="1.0" encoding="UTF-8" standalone="no"?>
<!-- Generator: Adobe Illustrator 19.0.0, SVG Export Plug-In . SVG Version: 6.00 Build 0)  -->

<svg
   version="1.1"
   id="Layer_1"
   x="0px"
   y="0px"
   viewBox="0 0 472.618 472.618"
   style="enable-background:new 0 0 472.618 472.618;"
   xml:space="preserve"
   sodipodi:docname="masculine@b.svg"
   inkscape:version="1.1.1 (3bf5ae0d25, 2021-09-20)"
   xmlns:inkscape="http://www.inkscape.org/namespaces/inkscape"
   xmlns:sodipodi="http://sodipodi.sourceforge.net/DTD/sodipodi-0.dtd"
   xmlns="http://www.w3.org/2000/svg"
   xmlns:svg="http://www.w3.org/2000/svg"><defs
   id="defs866" /><sodipodi:namedview
   id="namedview864"
   pagecolor="#ffffff"
   bordercolor="#666666"
   borderopacity="1.0"
   inkscape:pageshadow="2"
   inkscape:pageopacity="0.0"
   inkscape:pagecheckerboard="0"
   showgrid="false"
   inkscape:zoom="0.72151292"
   inkscape:cx="139.29065"
   inkscape:cy="198.88764"
   inkscape:window-width="1522"
   inkscape:window-height="871"
   inkscape:window-x="389"
   inkscape:window-y="1071"
   inkscape:window-maximized="1"
   inkscape:current-layer="Layer_1" />
<g
   id="g831"
   transform="rotate(90.147655,236.309,236.309)">
	<g
   id="g829">
		<path
   d="M 443.609,0.001 H 293.584 V 58.02 h 79.994 l -101.854,101.853 0.954,0.953 C 244.378,140.417 209.736,128.257 172.179,128.257 77.087,128.257 0,205.345 0,300.437 c 0,95.092 77.087,172.18 172.18,172.18 95.093,0 172.18,-77.088 172.18,-172.18 0,-37.558 -12.161,-72.201 -32.572,-100.502 l 0.959,0.959 101.852,-101.853 v 79.994 h 58.019 V 29.01 0.001 Z M 172.183,414.596 c -62.948,0 -114.159,-51.211 -114.159,-114.159 0,-62.948 51.211,-114.159 114.159,-114.159 62.948,0 114.158,51.211 114.158,114.159 0,62.949 -51.21,114.159 -114.158,114.159 z"
   id="path827" />
	</g>
</g>
<g
   id="g833">
</g>
<g
   id="g835">
</g>
<g
   id="g837">
</g>
<g
   id="g839">
</g>
<g
   id="g841">
</g>
<g
   id="g843">
</g>
<g
   id="g845">
</g>
<g
   id="g847">
</g>
<g
   id="g849">
</g>
<g
   id="g851">
</g>
<g
   id="g853">
</g>
<g
   id="g855">
</g>
<g
   id="g857">
</g>
<g
   id="g859">
</g>
<g
   id="g861">
</g>
</svg>
