<?xml version="1.0" encoding="UTF-8" standalone="no"?>
<!-- Created with Inkscape (http://www.inkscape.org/) -->

<svg
   width="196.70557"
   height="188.50941"
   id="svg2390"
   sodipodi:version="0.32"
   inkscape:version="1.1.1 (3bf5ae0d25, 2021-09-20)"
   sodipodi:docname="roman_empire.svg"
   inkscape:output_extension="org.inkscape.output.svg.inkscape"
   version="1.0"
   xmlns:inkscape="http://www.inkscape.org/namespaces/inkscape"
   xmlns:sodipodi="http://sodipodi.sourceforge.net/DTD/sodipodi-0.dtd"
   xmlns:xlink="http://www.w3.org/1999/xlink"
   xmlns="http://www.w3.org/2000/svg"
   xmlns:svg="http://www.w3.org/2000/svg"
   xmlns:rdf="http://www.w3.org/1999/02/22-rdf-syntax-ns#"
   xmlns:cc="http://creativecommons.org/ns#"
   xmlns:dc="http://purl.org/dc/elements/1.1/">
  <sodipodi:namedview
     id="base"
     pagecolor="#ffffff"
     bordercolor="#666666"
     borderopacity="1.0"
     gridtolerance="10000"
     guidetolerance="10"
     objecttolerance="10"
     inkscape:pageopacity="0.0"
     inkscape:pageshadow="2"
     inkscape:zoom="3.1659962"
     inkscape:cx="-14.845248"
     inkscape:cy="69.488397"
     inkscape:document-units="px"
     inkscape:current-layer="layer1"
     showgrid="false"
     showguides="true"
     inkscape:guide-bbox="true"
     inkscape:window-width="2560"
     inkscape:window-height="1284"
     inkscape:window-x="-11"
     inkscape:window-y="-11"
     inkscape:pagecheckerboard="0"
     inkscape:window-maximized="1"
     fit-margin-top="0"
     fit-margin-left="0"
     fit-margin-right="0"
     fit-margin-bottom="0" />
  <defs
     id="defs2392">
    <linearGradient
       id="linearGradient2970">
      <stop
         style="stop-color:#924f20;stop-opacity:1;"
         offset="0"
         id="stop2972" />
      <stop
         id="stop3770"
         offset="0.11599973"
         style="stop-color:#c7ac44;stop-opacity:1;" />
      <stop
         id="stop2978"
         offset="0.21599954"
         style="stop-color:#d4c24d;stop-opacity:1;" />
      <stop
         style="stop-color:#cfba4a;stop-opacity:1;"
         offset="0.30399936"
         id="stop3766" />
      <stop
         style="stop-color:#b79640;stop-opacity:1;"
         offset="0.43199915"
         id="stop2980" />
      <stop
         id="stop3768"
         offset="0.48399901"
         style="stop-color:#bfa046;stop-opacity:1;" />
      <stop
         id="stop3756"
         offset="0.59999877"
         style="stop-color:#f3dd6d;stop-opacity:1;" />
      <stop
         id="stop2982"
         offset="0.65999871"
         style="stop-color:#fce774;stop-opacity:1;" />
      <stop
         style="stop-color:#efd868;stop-opacity:1;"
         offset="0.7199986"
         id="stop3758" />
      <stop
         id="stop3762"
         offset="0.79199839"
         style="stop-color:#cbae47;stop-opacity:1;" />
      <stop
         style="stop-color:#9c781c;stop-opacity:1;"
         offset="0.89999825"
         id="stop2984" />
      <stop
         id="stop3760"
         offset="0.92399818"
         style="stop-color:#976b1c;stop-opacity:1;" />
      <stop
         style="stop-color:#8b491c;stop-opacity:1;"
         offset="1"
         id="stop2974" />
    </linearGradient>
    <linearGradient
       id="linearGradient4303">
      <stop
         style="stop-color:#000000;stop-opacity:0.85915494;"
         offset="0"
         id="stop4305" />
      <stop
         id="stop4313"
         offset="0.28019291"
         style="stop-color:#000000;stop-opacity:0.46478873;" />
      <stop
         style="stop-color:#000000;stop-opacity:0.30985916;"
         offset="0.49976185"
         id="stop4319" />
      <stop
         style="stop-color:#000000;stop-opacity:0.26760563;"
         offset="0.67960405"
         id="stop4317" />
      <stop
         style="stop-color:#000000;stop-opacity:0.28627452;"
         offset="0.79949874"
         id="stop4315" />
      <stop
         style="stop-color:#000000;stop-opacity:0.45882353;"
         offset="1"
         id="stop4307" />
    </linearGradient>
    <linearGradient
       id="linearGradient12206">
      <stop
         style="stop-color:#dbcc00;stop-opacity:1;"
         offset="0"
         id="stop12208" />
      <stop
         style="stop-color:#fff87e;stop-opacity:1;"
         offset="1"
         id="stop12210" />
    </linearGradient>
    <linearGradient
       id="linearGradient3865">
      <stop
         style="stop-color:#e7e6c6;stop-opacity:1;"
         offset="0"
         id="stop3867" />
      <stop
         id="stop3873"
         offset="0.5"
         style="stop-color:#c9b136;stop-opacity:1;" />
      <stop
         style="stop-color:#f2f8be;stop-opacity:1;"
         offset="1"
         id="stop3869" />
    </linearGradient>
    <radialGradient
       fy="356"
       fx="164"
       r="17"
       cy="356"
       cx="164"
       gradientUnits="userSpaceOnUse"
       id="id119">
      <stop
         id="stop528"
         style="stop-color:#e2e29b;stop-opacity:1;"
         offset="0" />
      <stop
         id="stop530"
         style="stop-color:#c3c447;stop-opacity:1;"
         offset="0.2" />
      <stop
         id="stop532"
         style="stop-color:#c1a73e;stop-opacity:1;"
         offset="0.50980401" />
      <stop
         id="stop534"
         style="stop-color:#B09734"
         offset="0.921569" />
      <stop
         id="stop536"
         style="stop-color:#b98a1a;stop-opacity:1;"
         offset="1" />
    </radialGradient>
    <radialGradient
       fy="421"
       fx="108"
       r="15"
       cy="421"
       cx="108"
       gradientUnits="userSpaceOnUse"
       id="id86">
      <stop
         id="stop477"
         style="stop-color:#e4e267;stop-opacity:1;"
         offset="0" />
      <stop
         id="stop479"
         style="stop-color:#b6b655;stop-opacity:1;"
         offset="0.2" />
      <stop
         id="stop481"
         style="stop-color:#c5a93a;stop-opacity:1;"
         offset="0.58823502" />
      <stop
         id="stop483"
         style="stop-color:#9d8c46;stop-opacity:1;"
         offset="0.92156899" />
      <stop
         id="stop485"
         style="stop-color:#967525;stop-opacity:1;"
         offset="1" />
    </radialGradient>
    <linearGradient
       inkscape:collect="always"
       xlink:href="#linearGradient12206"
       id="linearGradient3895"
       gradientUnits="userSpaceOnUse"
       gradientTransform="matrix(1.1396249,0,0,0.5882279,1154.5598,575.15493)"
       x1="0"
       y1="472.87766"
       x2="3.8890872"
       y2="472.87766" />
    <linearGradient
       inkscape:collect="always"
       xlink:href="#linearGradient12206"
       id="linearGradient3898"
       gradientUnits="userSpaceOnUse"
       gradientTransform="matrix(1.1396249,0,0,0.5882279,1150.4157,575.15493)"
       x1="0"
       y1="472.87766"
       x2="3.8890872"
       y2="472.87766" />
    <linearGradient
       inkscape:collect="always"
       xlink:href="#linearGradient12206"
       id="linearGradient4196"
       gradientUnits="userSpaceOnUse"
       x1="0"
       y1="472.87766"
       x2="3.8890872"
       y2="472.87766"
       gradientTransform="matrix(1.1396249,0,0,0.5882279,744.29492,575.15493)" />
    <clipPath
       id="clipPath3784"
       clipPathUnits="userSpaceOnUse">
      <path
         id="path3786"
         d="m 489.827,822.472 v -85.939 l 71.008,-0.517 -0.694,86.456 z" />
    </clipPath>
  </defs>
  <metadata
     id="metadata2395">
    <rdf:RDF>
      <cc:Work
         rdf:about="">
        <dc:format>image/svg+xml</dc:format>
        <dc:type
           rdf:resource="http://purl.org/dc/dcmitype/StillImage" />
      </cc:Work>
    </rdf:RDF>
  </metadata>
  <g
     inkscape:label="Layer 1"
     inkscape:groupmode="layer"
     id="layer1"
     transform="translate(-291.28171,-364.36462)">
    <rect
       style="opacity:1;fill:#9f0807;fill-opacity:1;fill-rule:evenodd;stroke:none;stroke-width:1.1915;stroke-linecap:round;stroke-linejoin:round;stroke-miterlimit:4;stroke-dasharray:none;stroke-opacity:1"
       id="rect2420"
       width="196.70557"
       height="188.50941"
       x="291.28171"
       y="364.36462" />
    <path
       id="path2045"
       style="fill:#af8000;fill-opacity:1;stroke:none;stroke-width:0.494843;stroke-miterlimit:4;stroke-dasharray:none;stroke-opacity:1"
       d="" />
    <path
       id="path2047"
       style="fill:#af8000;fill-opacity:1;stroke:none;stroke-width:0.494843;stroke-miterlimit:4;stroke-dasharray:none;stroke-opacity:1"
       d="" />
    <g
       transform="matrix(0.6205484,0,0,0.6205484,-127.2789,270.78898)"
       id="g4032"
       inkscape:label="Layer 1">
      <g
         id="g3780"
         transform="matrix(10.963376,0,0,-10.963376,-5181.0694,9279.051)">
        <g
           transform="matrix(0.3141387,0,0,0.3141387,344.12374,558.44649)"
           clip-path="url(#clipPath3784)"
           id="g3782" />
      </g>
    </g>
    <path
       style="display:inline;fill:#ffd900;fill-opacity:1;stroke:none;stroke-width:6.549;stroke-linecap:round;stroke-linejoin:round;stroke-miterlimit:4;stroke-dasharray:none;stroke-dashoffset:0;stroke-opacity:1"
       d="m 406.51401,365.41355 c -0.0469,6e-4 -0.0847,0.0263 -0.097,0.0388 -0.38856,0.3981 5.73867,8.06762 7.75685,9.71547 1.18323,0.96611 3.23083,2.14229 4.55715,2.61793 1.30981,0.46973 3.16728,0.86812 4.14992,0.89204 1.98209,1.39069 4.62824,3.21787 7.87321,5.4298 -2.4481,-0.65869 -5.28765,-0.94915 -7.67929,-0.69812 -3.37414,0.35418 -11.23992,2.68581 -12.15887,3.60694 -0.23903,0.23961 1.58879,0.62224 4.07235,0.85325 2.48357,0.23102 6.00002,0.64187 7.79564,0.89204 3.5138,0.48957 11.35964,0.28274 12.91516,-0.32966 0.31353,-0.12342 0.54986,-0.24883 0.69812,-0.38785 2.57037,1.93618 5.03766,4.02735 7.36901,6.26366 -3.35591,-1.53381 -7.33948,-2.21971 -12.39157,-2.2107 -5.66206,0.0101 -7.04283,0.55188 -4.11114,1.62894 1.11924,0.41119 4.37082,1.88744 7.21388,3.27727 2.84307,1.38984 6.63995,2.82402 8.43558,3.1997 1.79561,0.37568 4.595,0.70686 6.22487,0.7369 l 0.81447,0.0194 c 0.63073,0.76184 1.24,1.54033 1.84226,2.32705 1.5943,2.03483 3.09249,4.15343 4.47958,6.34123 -1.83927,-1.50466 -4.02206,-2.83945 -6.39941,-3.85903 -3.97908,-1.70652 -10.83089,-3.49309 -11.3444,-2.967 -0.10181,0.10432 1.57033,1.61667 3.72329,3.37423 2.15295,1.75756 5.25762,4.33614 6.90361,5.72068 3.00208,2.52521 8.72889,6.04693 10.66567,6.55454 0.59456,0.15584 1.07156,0.25315 1.43502,0.29089 1.65728,3.53968 3.08362,7.20446 4.24688,10.95655 -0.63461,-0.90944 -1.41976,-1.83586 -2.44341,-2.9476 -2.73086,-2.96584 -4.66497,-4.40894 -8.95917,-6.70968 -3.01246,-1.61401 -5.48798,-2.72183 -5.48797,-2.4628 0,0.25903 0.81351,1.32104 1.80346,2.38523 1.97901,2.12743 4.73666,6.2107 6.34123,9.38579 1.17357,2.32224 5.77228,7.02734 8.99795,9.21127 1.08407,0.73395 1.8004,1.15969 2.24949,1.29927 0.95836,5.22004 1.44959,10.54566 1.45441,15.86277 -0.31185,-2.05341 -0.84222,-4.2265 -1.51258,-6.05035 -1.25436,-3.41265 -2.07817,-4.59243 -5.56555,-8.06712 -2.25114,-2.24293 -4.7064,-4.72146 -5.44919,-5.48798 l -1.33806,-1.39623 0.38785,1.39623 c 3.93138,13.80511 6.31027,19.26543 10.72385,24.62801 1.68339,2.04536 2.13668,2.54962 2.4628,2.11375 -0.13132,1.60131 -0.30144,3.19858 -0.52359,4.78985 -0.4225,3.22793 -1.06131,6.42311 -1.86164,9.56033 0.0761,-2.86151 -0.31989,-5.93466 -1.22171,-8.47437 -1.01237,-2.85106 -7.58242,-13.97972 -7.98956,-13.53571 -0.366,0.39917 0.87896,18.5261 1.43502,20.88533 0.7076,3.00218 2.83595,7.73583 4.14992,9.23066 0.31537,0.35877 0.62745,0.6644 0.81447,0.83386 -1.75268,4.62859 -3.90848,9.09135 -6.4188,13.3224 0.88237,-3.79254 1.07573,-8.49888 0.32967,-12.8182 -1.41438,-8.18866 -3.79755,-13.69771 -3.82025,-8.82342 -0.004,0.82508 -0.74581,4.50418 -1.64834,8.18348 -2.5682,10.46956 -2.66923,14.21083 -0.46541,19.91572 l 0.48481,1.20231 c -2.30854,3.07788 -4.81366,5.99297 -7.50476,8.70707 0.0382,-0.0746 0.0649,-0.16283 0.097,-0.2327 1.37254,-2.99255 2.14532,-10.20789 1.68712,-15.84338 l -0.36845,-4.69289 -2.40463,4.57654 c -1.31338,2.51833 -2.93041,5.36952 -3.60694,6.34123 -2.87988,4.13646 -3.80375,7.11639 -4.09174,13.12848 l -0.2327,4.46019 c -0.88701,0.6635 -1.78221,1.31542 -2.69551,1.93921 -2.29234,1.601 -4.65687,3.06035 -7.09752,4.38262 3.17046,-3.82502 5.61882,-9.47864 6.57393,-15.66884 l 0.44602,-2.87004 -3.33545,3.18031 c -10.34966,9.90933 -13.12533,13.68494 -13.76841,18.59706 -0.0778,0.59388 -0.13462,1.01831 -0.13575,1.33806 -3.61896,1.31336 -7.30887,2.36463 -11.07291,3.12213 0.45726,-0.19852 0.8834,-0.43289 1.35745,-0.71751 3.302,-1.98255 8.60659,-8.89581 9.44397,-12.314 l 0.34906,-1.41563 -2.67611,1.31866 c -1.47451,0.72878 -4.24945,1.83736 -6.1667,2.4822 -1.91726,0.64483 -4.38844,1.80113 -5.50737,2.55976 -2.53549,1.71904 -6.43819,6.66409 -6.43819,8.18348 1e-5,0.87785 0.21019,1.08055 2.50159,0.989 -5.5698,0.59271 -11.18629,0.58306 -16.75481,-0.0388 0.0879,0.002 0.1849,-10e-4 0.27149,0 l 3.66511,0.0582 -0.83386,-2.07496 c -1.98359,-4.86384 -5.14208,-7.45342 -12.02312,-9.8512 -2.06896,-0.72095 -4.816,-1.84543 -6.10853,-2.52098 l -2.36584,-1.2411 0.36845,1.29928 c 1.20451,4.13672 7.40989,11.51982 11.05352,13.41936 -1.90414,-0.36771 -3.78863,-0.80295 -5.6625,-1.31867 -1.94704,-0.51252 -3.88284,-1.10886 -5.77886,-1.78408 0.0805,-0.38932 0.0803,-0.93806 0,-1.66772 -0.47065,-4.27809 -2.01732,-6.57521 -9.57971,-14.23383 l -7.33023,-7.40779 0.34906,2.40462 c 0.18523,1.32246 0.95468,4.42524 1.7065,6.9036 1.23446,4.06935 3.05591,7.38287 5.44919,9.88999 -3.7185,-1.93729 -7.28026,-4.18539 -10.66567,-6.70968 l 0.27149,-1.16353 c 1.04322,-4.34978 -1.08134,-12.06332 -4.88682,-17.76319 -0.78347,-1.17348 -2.31936,-3.9041 -3.41301,-6.05035 l -1.978,-3.89782 -0.17453,7.25266 c -0.0965,4.05961 0.0996,8.52422 0.44602,10.16148 0.3453,1.63173 1.22955,3.51086 2.42401,5.31344 -3.47013,-3.27888 -6.65782,-6.87167 -9.54093,-10.72385 0.29784,0.21139 0.51619,0.31818 0.62055,0.2521 0.93625,-0.59281 2.14007,-6.09295 2.13314,-9.71546 -0.004,-2.29405 -0.71315,-6.57123 -1.90043,-11.46075 -1.04231,-4.29252 -1.91273,-8.56292 -1.93922,-9.48276 -0.0475,-1.64972 -0.0722,-1.64151 -1.10535,0.65934 -1.22767,2.73406 -3.21909,12.18096 -3.21909,15.281 0,1.18397 0.41634,4.05227 0.91143,6.36062 0.21462,1.00066 0.42258,1.82413 0.65933,2.55976 -2.25319,-3.57432 -4.24129,-7.32672 -5.93399,-11.22804 -7.1085,-15.96594 -8.82478,-34.33799 -5.4298,-51.5637 0,1.78871 0.13724,1.78424 2.90882,-0.19392 3.47963,-2.48352 7.02363,-6.51556 10.62689,-12.04251 1.79901,-2.75948 4.04008,-5.94775 4.98378,-7.09753 0.9437,-1.14977 1.59558,-2.09435 1.43502,-2.09435 -1.07073,0 -10.6009,5.57736 -12.56611,7.34962 -2.64452,2.38489 -4.66573,5.07211 -5.9146,7.81503 1.27977,-4.65671 2.95825,-9.19299 5.00317,-13.53571 0.11302,0.0333 0.24699,0.0398 0.42663,0.0388 2.53755,-0.014 11.44319,-5.50399 15.99851,-9.8706 1.06366,-1.01959 3.22423,-2.85219 4.80925,-4.07235 3.2137,-2.47395 2.8306,-2.68343 -2.57915,-1.37684 -5.85576,1.41432 -11.12247,4.26744 -14.66046,7.71807 2.15856,-3.62109 4.60935,-7.03001 7.29145,-10.23905 h 1.37684 c 4.50963,-0.015 9.56102,-1.34433 14.33079,-3.76207 2.39416,-1.21358 5.54314,-2.66809 6.98116,-3.2191 3.50435,-1.34275 2.43407,-1.90904 -3.54876,-1.91982 -5.91385,-0.0107 -9.96613,0.7679 -13.45814,2.77308 2.58779,-2.5196 5.32193,-4.86983 8.20287,-7.01996 0.0228,0.0524 0.0715,0.10921 0.11636,0.15514 0.18897,0.19361 1.25966,0.53267 2.38523,0.75629 3.29549,0.65477 7.08975,0.5656 13.47754,-0.31027 3.29197,-0.45138 6.88668,-0.83132 8.00895,-0.83386 1.12225,-0.003 2.05556,-0.18324 2.05556,-0.42663 10e-6,-0.24339 -2.15185,-1.17915 -4.77046,-2.07496 -6.00139,-2.05305 -12.44144,-2.27011 -16.79359,-0.58176 3.28708,-2.47621 5.86186,-4.42857 7.77625,-5.934 0.21223,0.10234 0.57375,0.097 1.12474,0.097 4.04667,0 7.23377,-1.62655 11.30561,-5.79824 4.23871,-4.34265 6.71972,-8.11248 4.80925,-7.31084 -0.55397,0.23244 -2.71436,0.8622 -4.80925,1.41563 -8.54896,2.25844 -11.35368,4.49099 -12.48853,9.88999 -0.006,0.0265 -0.014,0.0324 -0.0194,0.0582 -3.28866,2.05397 -7.36302,4.76326 -9.90939,6.49637 0.10694,-0.10608 0.20968,-0.22497 0.31028,-0.32967 3.15354,-3.28223 4.68502,-6.23599 6.05035,-11.67406 l 0.9696,-3.85904 -1.16353,0.62055 c -0.64188,0.34671 -2.61491,1.62673 -4.38262,2.85064 -6.89036,4.77073 -10.46075,10.80589 -9.26944,15.66885 0.19569,0.79879 0.47203,1.45441 0.60116,1.45441 0.1878,-10e-6 0.45943,-0.0828 0.79507,-0.23271 -9.31603,7.58319 -17.02854,17.21717 -22.51427,28.25435 0.88219,-2.40467 1.41146,-5.26487 1.41563,-8.04774 0.005,-3.36507 -0.39284,-5.48222 -1.84225,-9.98695 l -1.84226,-5.70129 -1.53198,4.67351 c -4.1657,12.60791 -4.31861,16.58979 -0.79507,22.70819 l 1.12474,1.93921 1.20231,-1.45441 c 0.32486,-0.38692 0.64005,-0.82107 0.93083,-1.29927 -2.16326,4.77758 -3.92094,9.79723 -5.21649,15.00951 -0.0388,-1.04521 -0.16057,-2.04138 -0.38784,-3.02517 -0.78419,-3.39443 -2.93391,-8.65862 -4.05296,-9.92878 -0.41437,-0.47034 -1.59682,-2.27548 -2.61794,-4.01417 -1.80489,-3.07326 -1.8486,-3.11461 -1.86164,-1.39623 -0.007,0.97217 -0.21324,4.55552 -0.44602,7.95077 -0.68357,9.97034 1.06742,15.98076 5.41041,18.69402 1.21889,0.7615 1.80164,1.08737 2.19131,0.85326 -0.56777,4.06944 -0.87265,8.23524 -0.87265,12.46914 0,0.48517 0.0117,0.97114 0.0194,1.45441 -1.34059,-3.72134 -6.82648,-12.0649 -9.03673,-13.63267 -0.73147,-0.51885 -2.21684,-1.67873 -3.29667,-2.59855 -1.50635,-1.28316 -1.86994,-1.43278 -1.57076,-0.62054 0.21448,0.58224 0.75212,3.33747 1.20231,6.12791 1.60079,9.92223 4.41033,15.58917 9.3858,18.94612 1.63821,1.10531 3.31608,2.01677 3.72329,2.01678 0.11974,-10e-6 0.21981,-0.0653 0.31027,-0.19392 0.60741,4.733 1.5938,9.35086 2.90882,13.8072 -1.7329,-2.82085 -3.87422,-5.31709 -5.89521,-6.57393 -1.04957,-0.65272 -3.35095,-2.20676 -5.10013,-3.4518 -1.74917,-1.24505 -4.33009,-2.93151 -5.74007,-3.76208 l -2.57916,-1.51259 3.25788,6.70968 c 1.7838,3.68957 4.08808,8.0358 5.13892,9.65729 2.32973,3.59484 6.24128,6.72548 10.14209,8.1447 3.29165,1.19758 4.16038,1.4576 4.20809,0.34905 2.20054,5.16195 4.88066,10.0577 7.97017,14.62167 -1.2217,-1.31162 -2.47877,-2.51196 -3.50998,-3.27727 -3.42338,-2.54068 -9.51876,-5.38183 -13.03151,-6.08913 -1.68182,-0.33864 -3.97181,-0.9743 -5.10014,-1.41562 -2.88759,-1.12946 -3.0066,-1.03533 -1.16352,1.00839 0.89864,0.99647 2.70952,3.29371 4.03356,5.10013 2.45887,3.3547 8.0611,8.30563 11.3444,10.04513 1.00606,0.53299 3.34275,1.31009 5.1777,1.7259 1.83496,0.41579 3.82286,0.65526 4.42141,0.52358 0.59854,-0.13167 1.52416,-0.24791 2.05556,-0.25209 0.80054,-0.006 0.88224,-0.12493 0.34906,-1.22171 12.88824,15.79229 31.14269,26.63347 51.81579,29.41787 -2.05124,0.4057 -4.14746,0.96882 -5.79825,1.60955 -2.8515,1.10677 -18.77084,9.05054 -18.77159,9.3664 -7.5e-4,0.32493 10.55539,-0.23082 13.92356,-0.7369 4.78126,-0.71838 11.04119,-2.85757 13.59389,-4.63472 1.05789,-0.73648 2.75509,-2.33963 3.78146,-3.56815 l 1.14414,-1.37684 c 0.89355,0.0302 1.79499,0.0582 2.69551,0.0582 0.99914,0 1.99585,-0.021 2.98639,-0.0582 l 2.83125,2.6955 c 3.07797,2.94987 4.0994,3.55329 8.08652,4.80925 6.66433,2.09929 7.20158,2.20562 14.35018,2.63733 3.59126,0.21688 6.8398,0.43623 7.21387,0.48481 0.37409,0.0486 0.67873,-0.0264 0.67873,-0.17453 0,-0.36188 -4.8299,-2.82563 -6.53515,-3.33545 -0.74818,-0.22368 -2.228,-1.02521 -3.29666,-1.76468 -3.62549,-2.50876 -10.2496,-4.9227 -15.57189,-6.03096 29.87822,-4.09618 54.70596,-25.02812 65.48725,-53.38655 -0.53531,1.56679 -0.91143,2.83687 -0.91144,3.16092 10e-6,1.11257 0.78919,1.09124 4.16931,-0.17453 3.8807,-1.45324 7.52619,-4.16923 9.73486,-7.23327 1.88745,-2.61841 9.00982,-16.81628 8.43558,-16.81298 -0.35977,0.002 -7.27452,4.39066 -11.51893,7.31083 -4.47981,3.08214 -7.00145,6.19051 -8.90099,10.99535 1.99028,-5.8115 3.39952,-11.91543 4.14991,-18.22861 0.17996,1.60995 1.16847,1.13047 4.28567,-0.77569 4.94838,-3.02591 8.06318,-9.01434 9.54093,-18.34496 0.42031,-2.65401 1.00412,-5.48772 1.29927,-6.28305 0.29515,-0.79533 0.34139,-1.43502 0.097,-1.43502 -0.78945,10e-6 -8.98443,8.55997 -10.89838,11.38318 -1.97051,2.90663 -3.16994,5.74716 -3.80086,9.1337 0.069,-1.44117 0.097,-2.88485 0.097,-4.34384 0,-27.95223 -12.80927,-52.79197 -32.61757,-68.45424 0.99812,0.51205 1.99239,0.85514 2.26888,0.77569 0.79067,-0.22722 0.9917,-4.2039 0.32966,-6.47698 -0.8704,-2.98839 -5.59698,-8.29673 -9.98695,-11.20865 -2.16978,-1.43924 -4.03175,-2.53963 -4.13052,-2.44341 -0.3083,0.30039 1.49944,7.00051 2.54037,9.40518 0.89577,2.06933 3.64039,5.47229 6.06974,7.75686 -1.43052,-1.03168 -2.90791,-2.02985 -4.40202,-2.967 -1.47243,-0.70961 -4.31162,-2.29952 -7.11691,-3.87843 0.0608,-0.15174 0.097,-0.34239 0.097,-0.58176 1e-5,-3.93237 -4.0283,-8.08098 -9.32762,-9.6185 -1.90319,-0.55218 -4.65399,-1.40006 -6.10852,-1.86164 -1.27272,-0.40389 -2.40582,-0.68289 -2.73429,-0.67873 z m 40.91741,11.3444 0.19392,7.23327 c 0.17315,6.48448 0.36078,7.59281 1.68711,10.51054 0.87372,1.92203 2.54581,4.27823 4.07235,5.72068 1.42448,1.34598 2.75409,2.44014 2.967,2.4434 0.83825,0.0129 1.61975,-4.87628 1.31866,-8.22226 -0.45246,-5.02824 -2.08829,-8.11736 -8.14469,-15.24222 z m -115.34443,0.23271 -3.49059,4.34383 c -1.92086,2.38614 -4.11809,5.63373 -4.88682,7.21388 -1.55508,3.19654 -2.04501,7.86453 -1.2217,11.75163 0.27599,1.30309 0.74597,2.36585 1.04717,2.36584 0.30121,0 1.84846,-1.29912 3.43241,-2.90882 4.42515,-4.49705 6.3416,-11.13987 5.50737,-19.12064 z m 133.51486,16.65784 c -0.29382,-0.027 -1.01096,1.36592 -1.90043,3.72329 -1.50178,3.98023 -1.6754,5.1347 -1.70651,10.6075 -0.0324,5.7028 0.061,6.34048 1.51259,9.19187 0.85849,1.68634 1.8266,3.4055 2.15252,3.82025 0.48506,0.61723 0.77825,0.53216 1.55137,-0.44602 1.40834,-1.78185 3.17153,-7.03028 3.16092,-9.38579 -0.0119,-2.63771 -2.28965,-11.11048 -4.6735,-17.39475 -0.024,-0.0631 -0.055,-0.11249 -0.097,-0.11635 z m 12.77942,20.74959 -2.36585,3.76207 c -1.30728,2.06618 -3.18179,5.37606 -4.14991,7.36901 -1.6491,3.39483 -1.74902,3.99882 -1.74529,9.48276 0.002,3.7177 0.25647,6.30088 0.69811,7.09752 0.38243,0.68986 0.84919,1.26049 1.02779,1.26049 1.08638,-10e-6 3.92114,-2.48648 4.88681,-4.28566 2.35531,-4.38828 2.93402,-9.71082 2.11375,-19.25639 z m -154.4002,20.94351 c -0.25236,0.10453 -2.33845,2.05809 -4.86742,4.53776 -5.29461,5.19135 -6.97141,7.94431 -8.47437,14.02051 -0.59977,2.42487 -0.77074,4.52794 -0.52358,6.55454 0.20003,1.64017 0.55662,2.9864 0.77568,2.98639 0.49001,-1e-5 5.4786,-6.80401 6.98117,-9.52154 0.9781,-1.76893 2.62584,-6.59272 5.27466,-15.39735 0.47855,-1.59065 0.87265,-3.00454 0.87265,-3.16092 0,-0.01 -0.022,-0.0264 -0.0388,-0.0194 z m 15.97912,0.7369 c -3.30239,0.0418 -5.96313,0.92777 -7.91199,2.65672 -1.94405,1.72475 -2.96981,4.08097 -3.00578,6.92299 -0.0644,1.77849 0.39823,3.54981 1.33806,5.33284 0.96132,1.82388 2.7349,3.78776 5.35223,5.95339 l 2.24949,1.86164 c 0.006,1.1e-4 0.0129,1.1e-4 0.0194,0 2.09004,1.68766 3.53302,3.16063 4.34384,4.38262 0.80266,1.20979 1.19073,2.55925 1.16353,4.11114 -1.1e-4,0.006 -1.1e-4,0.0129 0,0.0194 0.002,1.5344 -0.50779,2.86606 -1.60955,4.11113 -1.05485,1.19203 -2.66215,1.84644 -4.945,1.91982 -1.62946,0.0177 -3.04958,-0.34665 -4.34384,-1.08596 -1.23827,-0.70731 -2.04603,-1.84489 -2.4434,-3.54876 -0.0636,-0.31446 -0.0822,-0.58483 -0.097,-0.89204 -0.0152,-0.31509 -0.0223,-0.60334 -0.0194,-0.81447 0.006,-0.27577 -0.039,-0.48168 -0.15513,-0.69811 -0.0762,-0.14198 -0.22995,-0.30132 -0.38785,-0.36845 -0.1579,-0.0671 -0.2877,-0.0793 -0.40723,-0.0776 -0.33592,-0.003 -0.69138,0.23592 -0.83386,0.54298 -0.12221,0.26341 -0.14967,0.49785 -0.17453,0.79508 -1.1e-4,0.006 -1.1e-4,0.0129 0,0.0194 -0.0332,0.42569 -0.0725,1.09455 -0.13575,2.01678 -0.0643,0.93731 -0.10902,2.04202 -0.11635,3.31606 -0.0131,0.67704 0.005,1.12885 0.15514,1.53197 0.16057,0.43205 0.53817,0.72236 0.9696,0.91143 1.07276,0.51467 2.15725,0.87076 3.33545,1.08596 1.16624,0.21302 2.35887,0.31669 3.56815,0.31028 1.40694,0.006 2.79062,-0.16085 4.13053,-0.5042 1.35423,-0.34703 2.60104,-0.92499 3.74268,-1.70651 0.0132,-0.006 0.0261,-0.0125 0.0388,-0.0194 1.74804,-1.3367 2.96872,-2.83964 3.60693,-4.53776 0.60249,-1.60313 0.90812,-2.99027 0.87265,-4.1887 -1.7e-4,-0.006 1.9e-4,-0.0135 0,-0.0194 2.1e-4,-0.007 -1.9e-4,-0.0129 0,-0.0194 0.0603,-2.04083 -0.45074,-4.02125 -1.51259,-5.89521 -1.08642,-1.91725 -3.09971,-3.98823 -6.01156,-6.28305 l -1.39623,-1.08596 c -2.32601,-1.7908 -3.92015,-3.30215 -4.73169,-4.42141 -0.81262,-1.12069 -1.16604,-2.24353 -1.12474,-3.47119 0.0378,-1.71164 0.55887,-2.95089 1.57076,-3.83965 1.03405,-0.90819 2.3075,-1.36417 3.956,-1.37684 2.19136,0.074 3.6607,0.47364 4.38262,1.00839 0.43528,0.32247 0.76999,0.59261 0.989,0.81447 0.21901,0.22187 0.31072,0.40874 0.31028,0.40724 0.01,0.0334 0.023,0.0658 0.0388,0.097 0.12915,0.25575 0.25348,0.60979 0.36845,1.08596 0.11661,0.48322 0.16608,0.87694 0.19392,1.18292 0.0253,0.25818 0.0887,0.46684 0.17453,0.65933 0.13284,0.29842 0.53362,0.53872 0.83386,0.54298 0.2063,0.004 0.43645,-0.10844 0.58177,-0.2521 0.14532,-0.14365 0.20591,-0.29094 0.2521,-0.44602 0.0937,-0.31473 0.11742,-0.64526 0.11635,-1.06656 0.008,-1.6831 0.0405,-2.94749 0.097,-3.78147 0.0582,-0.86029 0.0894,-1.3485 0.097,-1.45441 1.1e-4,-0.006 10e-5,-0.0129 0,-0.0194 0.008,-0.23102 -0.0693,-0.55317 -0.32967,-0.7563 -0.26707,-0.20793 -0.51193,-0.21456 -0.75629,-0.21331 -0.1301,10e-4 -0.35547,-0.005 -0.60116,-0.0388 -0.23704,-0.0326 -0.57538,-0.0983 -1.02778,-0.19393 -0.64407,-0.15826 -1.33661,-0.27635 -2.11374,-0.36845 -0.78401,-0.0928 -1.67284,-0.15297 -2.65673,-0.15513 z m 56.15963,0 c -4.66446,0.0929 -8.52189,1.2074 -11.53832,3.37423 -2.97226,2.13516 -5.19797,4.75558 -6.61272,7.83442 -1.39928,3.04524 -2.10711,6.01766 -2.09435,8.90099 -0.0155,3.15773 0.68523,6.27816 2.05557,9.32762 1.38417,3.08029 3.58137,5.64218 6.53515,7.67929 2.99323,2.06433 6.82541,3.12258 11.49953,3.1997 0.006,1e-4 0.0129,1e-4 0.0194,0 1.4126,-0.0118 2.87309,-0.17887 4.36323,-0.5042 1.34802,-0.29431 2.43554,-0.69192 3.39362,-1.14413 l 8.16409,4.51836 c 4.04027,2.25704 7.75734,3.93838 11.15048,5.06135 3.3985,1.12474 6.6318,1.68923 9.69607,1.68712 0.006,10e-5 0.0129,10e-5 0.0194,0 3.74793,-0.063 6.99274,-0.46155 9.75424,-1.2411 2.71578,-0.76669 4.80701,-1.51205 6.30245,-2.24949 1e-4,-0.006 1e-4,-0.0129 0,-0.0194 0.18199,-0.0911 0.34476,-0.17017 0.52359,-0.40723 0.006,1e-4 0.0129,1e-4 0.0194,0 0.15598,-0.2074 0.19764,-0.45594 0.19392,-0.63994 -2.2e-4,-0.21846 -0.13235,-0.44304 -0.23271,-0.56238 -0.13688,-0.16229 -0.41072,-0.30311 -0.63994,-0.31027 -0.0129,-4.2e-4 -0.0258,-4.2e-4 -0.0388,0 -0.14619,0.004 -0.30461,0.0374 -0.4848,0.097 -0.13511,0.0446 -0.24548,0.0866 -0.38785,0.13575 -0.006,-1.1e-4 -0.0129,-1.1e-4 -0.0194,0 -1.72367,0.67802 -3.44589,1.17535 -5.15831,1.4738 -1.72781,0.30109 -3.2222,0.43262 -4.46019,0.42662 -0.0194,-9.4e-4 -0.0388,-9.4e-4 -0.0582,0 -1.141,0.0951 -3.58541,-0.13874 -7.17509,-0.79507 -3.51959,-0.64352 -8.02688,-2.32525 -13.49693,-5.02257 l -9.44397,-4.86742 c 1.67498,-1.20323 3.35312,-2.94309 5.08074,-5.44919 2.03477,-2.95177 3.13143,-6.68116 3.29666,-11.16987 4.3e-4,-0.0129 4.2e-4,-0.0259 0,-0.0388 -0.11779,-5.96377 -2.05789,-10.71589 -5.79825,-14.11747 -3.72716,-3.38943 -8.56789,-5.12043 -14.40836,-5.1777 -0.006,-1.1e-4 -0.0129,-1.1e-4 -0.0194,0 z m -44.85401,0.69811 c -0.33155,-0.002 -0.60239,0.0388 -0.85325,0.15514 -0.29434,0.13666 -0.54527,0.52902 -0.54298,0.85325 -10e-5,0.006 -1.1e-4,0.0129 0,0.0194 0.009,0.22089 0.1986,0.56645 0.40723,0.69811 0.16473,0.10409 0.37208,0.17461 0.58177,0.17453 0.21959,4e-5 0.50759,0.0146 0.83386,0.0388 0.31154,0.0232 0.55849,0.056 0.7369,0.097 0.006,1e-4 0.0129,1e-4 0.0194,0 0.71624,0.14735 1.09971,0.39005 1.27988,0.65933 0.20213,0.30216 0.34056,0.85297 0.36845,1.62894 -10e-5,0.006 -10e-5,0.0129 0,0.0194 0.0463,0.64024 0.0866,1.64983 0.097,3.02518 0.0103,1.37643 0.002,3.94416 0,7.69867 v 8.78464 c 0.005,2.41473 0.006,4.5589 -0.0194,6.4188 -0.0258,1.85646 -0.0783,3.31056 -0.19392,4.34384 -0.0808,0.6964 -0.21717,1.2622 -0.38784,1.68711 -0.13999,0.3485 -0.30996,0.47166 -0.62055,0.54298 -0.20885,0.0471 -0.4391,0.0976 -0.69812,0.13575 -0.24172,0.0356 -0.45348,0.0369 -0.65933,0.0388 -0.006,-1e-4 -0.0129,-1e-4 -0.0194,0 -0.23461,0.005 -0.48017,0.0573 -0.69812,0.27149 -0.1048,0.10299 -0.29844,0.35736 -0.29088,0.63994 -0.002,0.32423 0.24853,0.69725 0.54298,0.83386 0.25084,0.11641 0.52154,0.15765 0.85325,0.15514 0.85453,-0.006 1.83592,-0.0337 2.92821,-0.0776 1.0667,-0.0428 1.6669,-0.071 1.84226,-0.0776 0.003,1.1e-4 0.0351,-1.2e-4 0.0388,0 0.19923,0.007 0.88747,0.0347 2.09435,0.0776 1.2349,0.0439 2.58712,0.0713 4.03357,0.0776 0.32047,-0.005 0.60042,-0.0334 0.87264,-0.17453 0.26048,-0.135 0.4933,-0.49221 0.5042,-0.81447 1.9e-4,-0.006 -5e-5,-0.0138 0,-0.0194 4e-5,-0.004 -0.005,-0.0168 0,-0.0194 -0.0134,-0.2608 -0.17324,-0.50456 -0.27149,-0.60116 -0.21783,-0.21399 -0.4635,-0.26652 -0.69812,-0.27149 -0.006,-1e-4 -0.0129,-1e-4 -0.0194,0 -0.22419,-0.002 -0.54258,-0.0198 -0.96961,-0.0582 -0.43151,-0.0388 -0.8229,-0.0659 -1.18292,-0.11636 -0.60475,-0.0926 -0.89004,-0.30264 -1.04717,-0.60115 -0.20859,-0.39624 -0.33908,-0.93326 -0.38785,-1.60955 -0.006,-0.007 -0.0128,-0.0131 -0.0194,-0.0194 -0.11559,-1.03328 -0.16809,-2.48738 -0.19392,-4.34384 -0.026,-1.86402 -0.044,-4.00725 -0.0388,-6.4188 v -20.49749 c -0.002,-0.18767 0.0246,-0.31575 0.0582,-0.40723 0.16478,-0.0687 0.42415,-0.15057 0.7563,-0.19392 0.35682,-0.0465 0.73715,-0.0581 1.14413,-0.0582 0.0194,9.5e-4 0.0388,9.5e-4 0.0582,0 0.50081,-0.0519 1.43374,0.0139 2.69551,0.23271 1.12001,0.19426 2.32552,0.86556 3.62632,2.07495 1.22206,1.33983 1.95807,2.6528 2.24949,3.956 0.31206,1.39576 0.43156,2.49657 0.38785,3.27727 -10e-5,0.006 -1.1e-4,0.0129 0,0.0194 -0.0539,2.21379 -0.80832,3.98363 -2.30767,5.39102 -1.49986,1.40787 -3.37889,2.10299 -5.74007,2.15252 -0.53909,-0.007 -0.87326,0.0224 -1.20231,0.11636 -0.20076,0.0574 -0.41205,0.17484 -0.54298,0.36845 -0.13093,0.19361 -0.18374,0.41138 -0.17453,0.60115 -1e-4,0.006 -1.1e-4,0.0129 0,0.0194 0.0166,0.28203 0.2904,0.64293 0.52358,0.75629 0.13234,0.0643 0.3139,0.1172 0.52359,0.13574 0.0146,0.001 0.0238,-7.8e-4 0.0388,0 0.0243,0.001 0.033,0.0196 0.0582,0.0194 0.16344,0.0219 0.31821,0.0342 0.5042,0.0388 0.22776,0.006 0.41394,9.9e-4 0.54298,0 3.72549,-0.0536 6.82768,-1.20986 9.19187,-3.4518 2.3689,-2.24641 3.61353,-5.28109 3.68451,-8.99795 4.3e-4,-0.0129 4.2e-4,-0.0259 0,-0.0388 -0.0373,-1.41114 -0.34592,-2.69364 -0.91143,-3.82026 -0.52759,-1.0509 -1.09454,-1.8608 -1.7259,-2.4628 -0.0203,-0.0194 -0.0377,-0.0586 -0.0582,-0.0776 l -0.0194,0.0194 c -0.49997,-0.60272 -1.3477,-1.12443 -2.7149,-1.80347 -1.53491,-0.76222 -3.81539,-1.14896 -6.92299,-1.22171 -0.006,-10e-5 -0.0129,-10e-5 -0.0194,0 -1.20433,0.006 -2.4237,0.0338 -3.62633,0.0776 -1.19577,0.0436 -2.07041,0.0715 -2.65672,0.0776 -0.25272,-0.006 -0.96521,-0.0339 -2.11374,-0.0776 -1.15415,-0.0438 -2.33017,-0.0713 -3.52937,-0.0776 z m 64.71156,0 c -0.33156,-0.002 -0.60241,0.0388 -0.85325,0.15514 -0.29432,0.13666 -0.54529,0.52898 -0.54298,0.85325 -1e-4,0.006 -1.1e-4,0.0129 0,0.0194 0.009,0.22091 0.19863,0.56646 0.40723,0.69811 0.16476,0.10412 0.37208,0.17461 0.58177,0.17453 0.21958,4e-5 0.50758,0.0146 0.83386,0.0388 0.31154,0.0232 0.55849,0.056 0.7369,0.097 0.006,1e-4 0.0129,1e-4 0.0194,0 0.71622,0.14735 1.09972,0.39006 1.27988,0.65933 0.20213,0.30216 0.34056,0.85297 0.36845,1.62894 -10e-5,0.006 -10e-5,0.0129 0,0.0194 0.0463,0.64023 0.0866,1.64982 0.097,3.02518 0.0103,1.37643 0.002,3.94415 0,7.69867 v 8.78464 c 0.005,2.41474 0.006,4.5589 -0.0194,6.4188 -0.0258,1.85646 -0.0783,3.31056 -0.19392,4.34384 -0.0808,0.69641 -0.21717,1.2622 -0.38784,1.68711 -0.14001,0.34852 -0.30996,0.47166 -0.62055,0.54298 -0.20884,0.0471 -0.43911,0.0976 -0.69812,0.13575 -0.2417,0.0356 -0.45349,0.0369 -0.65933,0.0388 -0.006,-1e-4 -0.0129,-1e-4 -0.0194,0 -0.23462,0.005 -0.48021,0.0573 -0.69812,0.27149 -0.10474,0.10294 -0.29844,0.3573 -0.29088,0.63994 -0.002,0.32428 0.24854,0.69726 0.54298,0.83386 0.25082,0.11639 0.52154,0.15765 0.85325,0.15514 0.85664,-0.006 1.82691,-0.0337 2.90882,-0.0776 1.04456,-0.0423 1.60803,-0.0698 1.76469,-0.0776 0.005,1.7e-4 0.0524,-1.9e-4 0.0582,0 0.20683,0.007 0.87924,0.0351 2.07496,0.0776 1.2349,0.0439 2.58711,0.0713 4.03357,0.0776 0.32045,-0.005 0.60042,-0.0334 0.87264,-0.17453 0.26047,-0.135 0.49329,-0.49221 0.5042,-0.81447 1.8e-4,-0.006 -5e-5,-0.0138 0,-0.0194 3e-5,-0.004 -0.005,-0.0168 0,-0.0194 -0.0134,-0.2608 -0.17324,-0.50456 -0.27149,-0.60116 -0.21786,-0.21404 -0.4635,-0.26652 -0.69812,-0.27149 -0.006,-1e-4 -0.0129,-1e-4 -0.0194,0 -0.2242,-0.002 -0.54257,-0.0198 -0.96961,-0.0582 -0.43308,-0.0389 -0.84512,-0.0663 -1.20231,-0.11636 -0.60318,-0.0923 -0.86494,-0.2918 -1.02778,-0.60115 -0.2086,-0.39624 -0.33907,-0.93326 -0.38785,-1.60955 -0.006,-0.007 -0.0128,-0.0131 -0.0194,-0.0194 -0.11559,-1.03329 -0.1681,-2.48739 -0.19392,-4.34384 -0.026,-1.86401 -0.044,-4.00725 -0.0388,-6.4188 v -0.989 l 5.8952,0.097 c 0.0701,2e-5 0.0646,-0.007 0.0776,0 0.0619,0.0323 0.0955,0.055 0.13575,0.097 0.52408,0.69453 1.26195,1.73266 2.24949,3.10275 1.00846,1.39918 2.05759,2.81591 3.14152,4.24687 1.39703,1.87946 2.62745,3.42153 3.66512,4.65412 1.06247,1.26212 2.13187,2.21095 3.25787,2.83125 0.67515,0.37864 1.422,0.63908 2.26888,0.79508 0.85087,0.15673 1.96941,0.23693 3.35484,0.2327 h 3.54877 c 0.47866,0.002 0.82472,-0.0357 1.12474,-0.13574 0.16206,-0.054 0.33026,-0.14105 0.46541,-0.31028 0.13515,-0.16922 0.20162,-0.39839 0.19392,-0.58176 -0.009,-0.21367 -0.19084,-0.53428 -0.36845,-0.65933 -0.20828,-0.14652 -0.43322,-0.2078 -0.65933,-0.21332 -0.0129,-4.2e-4 -0.0259,-4.2e-4 -0.0388,0 -0.12258,0.003 -0.34974,-0.004 -0.67872,-0.0194 -0.29902,-0.014 -0.67789,-0.0463 -1.14414,-0.11635 -0.0127,-0.007 -0.0256,-0.0134 -0.0388,-0.0194 -0.51897,-0.0487 -1.30753,-0.27643 -2.30766,-0.7369 -0.92633,-0.42643 -2.08772,-1.30494 -3.41302,-2.65672 -1.42819,-1.54237 -2.98252,-3.39158 -4.6929,-5.54615 -1.62021,-2.04093 -3.42469,-4.31368 -5.33284,-6.76786 2.03377,-1.95525 3.55822,-3.86268 4.4602,-5.72068 0.95289,-1.96293 1.42693,-3.91684 1.39623,-5.85642 10e-5,-0.006 1.1e-4,-0.0129 0,-0.0194 -0.0685,-1.81254 -0.4961,-3.38032 -1.33806,-4.65412 -0.79513,-1.20281 -1.56812,-2.06547 -2.36584,-2.59854 -1.40821,-0.96713 -2.95787,-1.60122 -4.61533,-1.90043 -1.6149,-0.29145 -3.23825,-0.43489 -4.86742,-0.40724 -0.89648,0.006 -1.98947,0.0339 -3.31606,0.0776 -1.31374,0.0433 -2.16123,0.0713 -2.54037,0.0776 -0.002,-6e-5 -0.0175,6e-5 -0.0194,0 -0.19735,-0.006 -0.86996,-0.0343 -2.03617,-0.0776 -1.18198,-0.0438 -2.37908,-0.0713 -3.58755,-0.0776 z m -20.9629,2.21071 c 0.25123,-0.0102 0.51795,7e-5 0.77569,0 3.9292,0.018 7.25131,1.49335 10.1033,4.51836 2.81846,2.98959 4.3231,7.39345 4.46019,13.30301 -0.0857,4.71503 -0.94745,8.19409 -2.48219,10.52993 -1.58079,2.40584 -3.36222,4.00038 -5.35223,4.80925 -2.07343,0.84274 -3.8458,1.19751 -5.31345,1.14414 -0.006,-1.1e-4 -0.0129,-1.1e-4 -0.0194,0 -4.44887,-0.0674 -8.02452,-1.70295 -10.89838,-4.98378 -2.86268,-3.26805 -4.35801,-7.7527 -4.46019,-13.53571 0.0848,-5.36817 1.42515,-9.26842 3.97539,-11.86799 2.41542,-2.46213 5.44281,-3.76502 9.21126,-3.91721 z m 31.16316,0.60115 c 0.32902,-0.012 0.68839,0.002 1.06657,0 2.56974,0.0248 4.47454,0.81534 5.87582,2.42402 1.40018,1.60754 2.12729,3.89261 2.15253,6.94239 -0.0172,1.84565 -0.29396,3.36358 -0.81447,4.57654 -0.52884,1.23226 -1.18513,2.09086 -1.95861,2.61794 -0.52632,0.35087 -1.05905,0.56785 -1.62894,0.67872 -0.61334,0.11936 -1.20178,0.16478 -1.76468,0.15514 -0.006,-1.1e-4 -0.0129,-1.1e-4 -0.0194,0 -1.10584,-0.005 -2.12011,-0.0696 -3.06395,-0.21331 -0.9449,-0.14389 -1.60398,-0.34838 -1.88104,-0.5042 -0.11009,-0.0683 -0.0406,-0.004 -0.0388,-0.0582 1.1e-4,-0.006 10e-5,-0.0129 0,-0.0194 v -16.30878 c 10e-4,-0.042 -0.0139,-0.0373 -0.0194,-0.0388 0.005,0.004 0.0203,0.007 0.0388,0 0.20227,-0.0568 0.58363,-0.11922 1.14413,-0.17453 0.28372,-0.028 0.58241,-0.0656 0.91143,-0.0776 z m -103.94185,16.09548 c -0.9138,0.0164 -6.93432,10.1651 -8.00895,13.72963 -1.4334,4.75461 -1.40618,9.81681 0.0582,13.82659 1.12298,3.07507 1.15401,3.11076 2.23009,2.11375 1.33012,-1.23238 2.96545,-4.44971 4.03357,-7.912 0.62597,-2.02912 1.71764,-15.03671 1.80346,-21.52527 0.002,-0.1542 -0.0389,-0.2341 -0.11635,-0.2327 z m 159.01552,38.06676 c -0.41657,0.02 -1.17022,0.20538 -2.23009,0.56237 -1.31178,0.44185 -3.72097,1.07074 -5.35223,1.41563 -4.40218,0.9307 -11.73987,4.91845 -15.31979,8.29983 -2.5927,2.44892 -5.9146,6.9983 -5.9146,8.10592 0,0.155 0.67021,0.39325 1.49319,0.52358 2.80948,0.44493 9.11519,-1.06571 11.63528,-2.79246 6.68557,-4.58097 8.43296,-6.25189 11.61589,-11.09231 1.02995,-1.56629 2.51039,-3.27305 3.29667,-3.80085 1.24272,-0.83423 1.46996,-1.25505 0.77568,-1.22171 z m -169.48727,24.53105 c -0.37729,0.0109 -0.62104,0.0403 -0.69812,0.097 -0.091,0.0669 2.55548,2.04996 5.87582,4.40202 5.9968,4.24802 7.62105,5.06738 13.88477,7.05874 3.74495,1.19059 9.37846,1.04039 12.62428,-0.34906 l 1.9586,-0.83386 -2.13313,-1.91983 c -1.16778,-1.05056 -3.71724,-2.69434 -5.6625,-3.66511 -1.94526,-0.97076 -3.91134,-1.96726 -4.38263,-2.2107 -1.55765,-0.8046 -17.82002,-2.68434 -21.46709,-2.57916 z m 155.52493,0.21332 c -1.51743,-0.0195 -4.73738,0.18988 -10.66567,0.69811 -7.36726,0.6316 -12.40736,2.20032 -16.87116,5.23588 -4.03426,2.74343 -4.9964,3.88002 -3.99478,4.73168 0.42453,0.36097 1.83771,0.88153 3.14153,1.14414 4.79866,0.96652 8.94817,0.37012 15.04829,-2.13314 2.61567,-1.07336 13.82245,-8.35331 14.44715,-9.38579 0.10975,-0.18138 -0.1949,-0.27915 -1.10536,-0.29088 z m -39.9478,16.85176 c -3.639,10e-6 -10.73048,1.51505 -12.85698,2.73429 -1.01782,0.58356 2.54591,3.06487 6.43818,4.49898 2.11579,0.77955 4.40327,1.09096 8.06713,1.10535 4.46317,0.0175 6.10853,-0.27985 12.93456,-2.34645 6.95577,-2.10587 7.6201,-2.4055 6.03095,-2.75368 -8.42987,-1.84696 -17.25882,-3.23849 -20.61384,-3.23849 z m -75.2221,0.11636 c -2.88534,0.029 -5.92597,0.34886 -8.95916,0.9696 -2.90063,0.59363 -7.07023,1.38398 -9.26944,1.76469 l -3.99478,0.69811 2.36584,0.67873 c 1.30141,0.37249 4.82233,1.43568 7.81503,2.36584 9.42597,2.92961 19.59951,2.08227 24.18199,-2.01678 l 1.74529,-1.57077 -1.39623,-0.65933 c -3.27553,-1.52904 -7.67962,-2.27834 -12.48854,-2.23009 z"
       id="path18706" />
  </g>
</svg>
